%TF.GenerationSoftware,KiCad,Pcbnew,8.0.7*%
%TF.CreationDate,2025-01-12T22:52:32-06:00*%
%TF.ProjectId,Parallel-to-PS2-Keyboard-Adapter,50617261-6c6c-4656-9c2d-746f2d505332,v1.0*%
%TF.SameCoordinates,Original*%
%TF.FileFunction,Legend,Bot*%
%TF.FilePolarity,Positive*%
%FSLAX46Y46*%
G04 Gerber Fmt 4.6, Leading zero omitted, Abs format (unit mm)*
G04 Created by KiCad (PCBNEW 8.0.7) date 2025-01-12 22:52:32*
%MOMM*%
%LPD*%
G01*
G04 APERTURE LIST*
%ADD10C,0.150000*%
G04 APERTURE END LIST*
D10*
X169043905Y-116786819D02*
X169043905Y-115786819D01*
X169043905Y-115786819D02*
X168662953Y-115786819D01*
X168662953Y-115786819D02*
X168567715Y-115834438D01*
X168567715Y-115834438D02*
X168520096Y-115882057D01*
X168520096Y-115882057D02*
X168472477Y-115977295D01*
X168472477Y-115977295D02*
X168472477Y-116120152D01*
X168472477Y-116120152D02*
X168520096Y-116215390D01*
X168520096Y-116215390D02*
X168567715Y-116263009D01*
X168567715Y-116263009D02*
X168662953Y-116310628D01*
X168662953Y-116310628D02*
X169043905Y-116310628D01*
X167472477Y-116691580D02*
X167520096Y-116739200D01*
X167520096Y-116739200D02*
X167662953Y-116786819D01*
X167662953Y-116786819D02*
X167758191Y-116786819D01*
X167758191Y-116786819D02*
X167901048Y-116739200D01*
X167901048Y-116739200D02*
X167996286Y-116643961D01*
X167996286Y-116643961D02*
X168043905Y-116548723D01*
X168043905Y-116548723D02*
X168091524Y-116358247D01*
X168091524Y-116358247D02*
X168091524Y-116215390D01*
X168091524Y-116215390D02*
X168043905Y-116024914D01*
X168043905Y-116024914D02*
X167996286Y-115929676D01*
X167996286Y-115929676D02*
X167901048Y-115834438D01*
X167901048Y-115834438D02*
X167758191Y-115786819D01*
X167758191Y-115786819D02*
X167662953Y-115786819D01*
X167662953Y-115786819D02*
X167520096Y-115834438D01*
X167520096Y-115834438D02*
X167472477Y-115882057D01*
X166710572Y-116263009D02*
X166567715Y-116310628D01*
X166567715Y-116310628D02*
X166520096Y-116358247D01*
X166520096Y-116358247D02*
X166472477Y-116453485D01*
X166472477Y-116453485D02*
X166472477Y-116596342D01*
X166472477Y-116596342D02*
X166520096Y-116691580D01*
X166520096Y-116691580D02*
X166567715Y-116739200D01*
X166567715Y-116739200D02*
X166662953Y-116786819D01*
X166662953Y-116786819D02*
X167043905Y-116786819D01*
X167043905Y-116786819D02*
X167043905Y-115786819D01*
X167043905Y-115786819D02*
X166710572Y-115786819D01*
X166710572Y-115786819D02*
X166615334Y-115834438D01*
X166615334Y-115834438D02*
X166567715Y-115882057D01*
X166567715Y-115882057D02*
X166520096Y-115977295D01*
X166520096Y-115977295D02*
X166520096Y-116072533D01*
X166520096Y-116072533D02*
X166567715Y-116167771D01*
X166567715Y-116167771D02*
X166615334Y-116215390D01*
X166615334Y-116215390D02*
X166710572Y-116263009D01*
X166710572Y-116263009D02*
X167043905Y-116263009D01*
X165282000Y-116786819D02*
X165282000Y-115786819D01*
X165282000Y-116167771D02*
X165186762Y-116120152D01*
X165186762Y-116120152D02*
X164996286Y-116120152D01*
X164996286Y-116120152D02*
X164901048Y-116167771D01*
X164901048Y-116167771D02*
X164853429Y-116215390D01*
X164853429Y-116215390D02*
X164805810Y-116310628D01*
X164805810Y-116310628D02*
X164805810Y-116596342D01*
X164805810Y-116596342D02*
X164853429Y-116691580D01*
X164853429Y-116691580D02*
X164901048Y-116739200D01*
X164901048Y-116739200D02*
X164996286Y-116786819D01*
X164996286Y-116786819D02*
X165186762Y-116786819D01*
X165186762Y-116786819D02*
X165282000Y-116739200D01*
X164472476Y-116120152D02*
X164234381Y-116786819D01*
X163996286Y-116120152D02*
X164234381Y-116786819D01*
X164234381Y-116786819D02*
X164329619Y-117024914D01*
X164329619Y-117024914D02*
X164377238Y-117072533D01*
X164377238Y-117072533D02*
X164472476Y-117120152D01*
X162282000Y-116691580D02*
X162329619Y-116739200D01*
X162329619Y-116739200D02*
X162472476Y-116786819D01*
X162472476Y-116786819D02*
X162567714Y-116786819D01*
X162567714Y-116786819D02*
X162710571Y-116739200D01*
X162710571Y-116739200D02*
X162805809Y-116643961D01*
X162805809Y-116643961D02*
X162853428Y-116548723D01*
X162853428Y-116548723D02*
X162901047Y-116358247D01*
X162901047Y-116358247D02*
X162901047Y-116215390D01*
X162901047Y-116215390D02*
X162853428Y-116024914D01*
X162853428Y-116024914D02*
X162805809Y-115929676D01*
X162805809Y-115929676D02*
X162710571Y-115834438D01*
X162710571Y-115834438D02*
X162567714Y-115786819D01*
X162567714Y-115786819D02*
X162472476Y-115786819D01*
X162472476Y-115786819D02*
X162329619Y-115834438D01*
X162329619Y-115834438D02*
X162282000Y-115882057D01*
X161853428Y-116786819D02*
X161853428Y-115786819D01*
X161424857Y-116786819D02*
X161424857Y-116263009D01*
X161424857Y-116263009D02*
X161472476Y-116167771D01*
X161472476Y-116167771D02*
X161567714Y-116120152D01*
X161567714Y-116120152D02*
X161710571Y-116120152D01*
X161710571Y-116120152D02*
X161805809Y-116167771D01*
X161805809Y-116167771D02*
X161853428Y-116215390D01*
X160948666Y-116786819D02*
X160948666Y-116120152D01*
X160948666Y-116310628D02*
X160901047Y-116215390D01*
X160901047Y-116215390D02*
X160853428Y-116167771D01*
X160853428Y-116167771D02*
X160758190Y-116120152D01*
X160758190Y-116120152D02*
X160662952Y-116120152D01*
X160329618Y-116786819D02*
X160329618Y-116120152D01*
X160329618Y-115786819D02*
X160377237Y-115834438D01*
X160377237Y-115834438D02*
X160329618Y-115882057D01*
X160329618Y-115882057D02*
X160281999Y-115834438D01*
X160281999Y-115834438D02*
X160329618Y-115786819D01*
X160329618Y-115786819D02*
X160329618Y-115882057D01*
X159901047Y-116739200D02*
X159805809Y-116786819D01*
X159805809Y-116786819D02*
X159615333Y-116786819D01*
X159615333Y-116786819D02*
X159520095Y-116739200D01*
X159520095Y-116739200D02*
X159472476Y-116643961D01*
X159472476Y-116643961D02*
X159472476Y-116596342D01*
X159472476Y-116596342D02*
X159520095Y-116501104D01*
X159520095Y-116501104D02*
X159615333Y-116453485D01*
X159615333Y-116453485D02*
X159758190Y-116453485D01*
X159758190Y-116453485D02*
X159853428Y-116405866D01*
X159853428Y-116405866D02*
X159901047Y-116310628D01*
X159901047Y-116310628D02*
X159901047Y-116263009D01*
X159901047Y-116263009D02*
X159853428Y-116167771D01*
X159853428Y-116167771D02*
X159758190Y-116120152D01*
X159758190Y-116120152D02*
X159615333Y-116120152D01*
X159615333Y-116120152D02*
X159520095Y-116167771D01*
X158424856Y-115786819D02*
X157853428Y-115786819D01*
X158139142Y-116786819D02*
X158139142Y-115786819D01*
X157139142Y-116739200D02*
X157234380Y-116786819D01*
X157234380Y-116786819D02*
X157424856Y-116786819D01*
X157424856Y-116786819D02*
X157520094Y-116739200D01*
X157520094Y-116739200D02*
X157567713Y-116643961D01*
X157567713Y-116643961D02*
X157567713Y-116263009D01*
X157567713Y-116263009D02*
X157520094Y-116167771D01*
X157520094Y-116167771D02*
X157424856Y-116120152D01*
X157424856Y-116120152D02*
X157234380Y-116120152D01*
X157234380Y-116120152D02*
X157139142Y-116167771D01*
X157139142Y-116167771D02*
X157091523Y-116263009D01*
X157091523Y-116263009D02*
X157091523Y-116358247D01*
X157091523Y-116358247D02*
X157567713Y-116453485D01*
X156662951Y-116786819D02*
X156662951Y-116120152D01*
X156662951Y-116310628D02*
X156615332Y-116215390D01*
X156615332Y-116215390D02*
X156567713Y-116167771D01*
X156567713Y-116167771D02*
X156472475Y-116120152D01*
X156472475Y-116120152D02*
X156377237Y-116120152D01*
X156091522Y-116739200D02*
X155996284Y-116786819D01*
X155996284Y-116786819D02*
X155805808Y-116786819D01*
X155805808Y-116786819D02*
X155710570Y-116739200D01*
X155710570Y-116739200D02*
X155662951Y-116643961D01*
X155662951Y-116643961D02*
X155662951Y-116596342D01*
X155662951Y-116596342D02*
X155710570Y-116501104D01*
X155710570Y-116501104D02*
X155805808Y-116453485D01*
X155805808Y-116453485D02*
X155948665Y-116453485D01*
X155948665Y-116453485D02*
X156043903Y-116405866D01*
X156043903Y-116405866D02*
X156091522Y-116310628D01*
X156091522Y-116310628D02*
X156091522Y-116263009D01*
X156091522Y-116263009D02*
X156043903Y-116167771D01*
X156043903Y-116167771D02*
X155948665Y-116120152D01*
X155948665Y-116120152D02*
X155805808Y-116120152D01*
X155805808Y-116120152D02*
X155710570Y-116167771D01*
X155377236Y-116120152D02*
X154996284Y-116120152D01*
X155234379Y-115786819D02*
X155234379Y-116643961D01*
X155234379Y-116643961D02*
X155186760Y-116739200D01*
X155186760Y-116739200D02*
X155091522Y-116786819D01*
X155091522Y-116786819D02*
X154996284Y-116786819D01*
X154281998Y-116739200D02*
X154377236Y-116786819D01*
X154377236Y-116786819D02*
X154567712Y-116786819D01*
X154567712Y-116786819D02*
X154662950Y-116739200D01*
X154662950Y-116739200D02*
X154710569Y-116643961D01*
X154710569Y-116643961D02*
X154710569Y-116263009D01*
X154710569Y-116263009D02*
X154662950Y-116167771D01*
X154662950Y-116167771D02*
X154567712Y-116120152D01*
X154567712Y-116120152D02*
X154377236Y-116120152D01*
X154377236Y-116120152D02*
X154281998Y-116167771D01*
X154281998Y-116167771D02*
X154234379Y-116263009D01*
X154234379Y-116263009D02*
X154234379Y-116358247D01*
X154234379Y-116358247D02*
X154710569Y-116453485D01*
X153424855Y-116739200D02*
X153520093Y-116786819D01*
X153520093Y-116786819D02*
X153710569Y-116786819D01*
X153710569Y-116786819D02*
X153805807Y-116739200D01*
X153805807Y-116739200D02*
X153853426Y-116643961D01*
X153853426Y-116643961D02*
X153853426Y-116263009D01*
X153853426Y-116263009D02*
X153805807Y-116167771D01*
X153805807Y-116167771D02*
X153710569Y-116120152D01*
X153710569Y-116120152D02*
X153520093Y-116120152D01*
X153520093Y-116120152D02*
X153424855Y-116167771D01*
X153424855Y-116167771D02*
X153377236Y-116263009D01*
X153377236Y-116263009D02*
X153377236Y-116358247D01*
X153377236Y-116358247D02*
X153853426Y-116453485D01*
X152520093Y-116120152D02*
X152520093Y-116929676D01*
X152520093Y-116929676D02*
X152567712Y-117024914D01*
X152567712Y-117024914D02*
X152615331Y-117072533D01*
X152615331Y-117072533D02*
X152710569Y-117120152D01*
X152710569Y-117120152D02*
X152853426Y-117120152D01*
X152853426Y-117120152D02*
X152948664Y-117072533D01*
X152520093Y-116739200D02*
X152615331Y-116786819D01*
X152615331Y-116786819D02*
X152805807Y-116786819D01*
X152805807Y-116786819D02*
X152901045Y-116739200D01*
X152901045Y-116739200D02*
X152948664Y-116691580D01*
X152948664Y-116691580D02*
X152996283Y-116596342D01*
X152996283Y-116596342D02*
X152996283Y-116310628D01*
X152996283Y-116310628D02*
X152948664Y-116215390D01*
X152948664Y-116215390D02*
X152901045Y-116167771D01*
X152901045Y-116167771D02*
X152805807Y-116120152D01*
X152805807Y-116120152D02*
X152615331Y-116120152D01*
X152615331Y-116120152D02*
X152520093Y-116167771D01*
X175829620Y-93942819D02*
X175162954Y-94942819D01*
X175162954Y-93942819D02*
X175829620Y-94942819D01*
X174401049Y-94895200D02*
X174496287Y-94942819D01*
X174496287Y-94942819D02*
X174686763Y-94942819D01*
X174686763Y-94942819D02*
X174782001Y-94895200D01*
X174782001Y-94895200D02*
X174829620Y-94799961D01*
X174829620Y-94799961D02*
X174829620Y-94419009D01*
X174829620Y-94419009D02*
X174782001Y-94323771D01*
X174782001Y-94323771D02*
X174686763Y-94276152D01*
X174686763Y-94276152D02*
X174496287Y-94276152D01*
X174496287Y-94276152D02*
X174401049Y-94323771D01*
X174401049Y-94323771D02*
X174353430Y-94419009D01*
X174353430Y-94419009D02*
X174353430Y-94514247D01*
X174353430Y-94514247D02*
X174829620Y-94609485D01*
X173924858Y-94942819D02*
X173924858Y-94276152D01*
X173924858Y-94466628D02*
X173877239Y-94371390D01*
X173877239Y-94371390D02*
X173829620Y-94323771D01*
X173829620Y-94323771D02*
X173734382Y-94276152D01*
X173734382Y-94276152D02*
X173639144Y-94276152D01*
X173162953Y-94942819D02*
X173258191Y-94895200D01*
X173258191Y-94895200D02*
X173305810Y-94847580D01*
X173305810Y-94847580D02*
X173353429Y-94752342D01*
X173353429Y-94752342D02*
X173353429Y-94466628D01*
X173353429Y-94466628D02*
X173305810Y-94371390D01*
X173305810Y-94371390D02*
X173258191Y-94323771D01*
X173258191Y-94323771D02*
X173162953Y-94276152D01*
X173162953Y-94276152D02*
X173020096Y-94276152D01*
X173020096Y-94276152D02*
X172924858Y-94323771D01*
X172924858Y-94323771D02*
X172877239Y-94371390D01*
X172877239Y-94371390D02*
X172829620Y-94466628D01*
X172829620Y-94466628D02*
X172829620Y-94752342D01*
X172829620Y-94752342D02*
X172877239Y-94847580D01*
X172877239Y-94847580D02*
X172924858Y-94895200D01*
X172924858Y-94895200D02*
X173020096Y-94942819D01*
X173020096Y-94942819D02*
X173162953Y-94942819D01*
X172496286Y-94942819D02*
X171972477Y-94276152D01*
X172496286Y-94276152D02*
X171972477Y-94942819D01*
X170686762Y-94371390D02*
X170782000Y-94323771D01*
X170782000Y-94323771D02*
X170829619Y-94276152D01*
X170829619Y-94276152D02*
X170877238Y-94180914D01*
X170877238Y-94180914D02*
X170877238Y-94133295D01*
X170877238Y-94133295D02*
X170829619Y-94038057D01*
X170829619Y-94038057D02*
X170782000Y-93990438D01*
X170782000Y-93990438D02*
X170686762Y-93942819D01*
X170686762Y-93942819D02*
X170496286Y-93942819D01*
X170496286Y-93942819D02*
X170401048Y-93990438D01*
X170401048Y-93990438D02*
X170353429Y-94038057D01*
X170353429Y-94038057D02*
X170305810Y-94133295D01*
X170305810Y-94133295D02*
X170305810Y-94180914D01*
X170305810Y-94180914D02*
X170353429Y-94276152D01*
X170353429Y-94276152D02*
X170401048Y-94323771D01*
X170401048Y-94323771D02*
X170496286Y-94371390D01*
X170496286Y-94371390D02*
X170686762Y-94371390D01*
X170686762Y-94371390D02*
X170782000Y-94419009D01*
X170782000Y-94419009D02*
X170829619Y-94466628D01*
X170829619Y-94466628D02*
X170877238Y-94561866D01*
X170877238Y-94561866D02*
X170877238Y-94752342D01*
X170877238Y-94752342D02*
X170829619Y-94847580D01*
X170829619Y-94847580D02*
X170782000Y-94895200D01*
X170782000Y-94895200D02*
X170686762Y-94942819D01*
X170686762Y-94942819D02*
X170496286Y-94942819D01*
X170496286Y-94942819D02*
X170401048Y-94895200D01*
X170401048Y-94895200D02*
X170353429Y-94847580D01*
X170353429Y-94847580D02*
X170305810Y-94752342D01*
X170305810Y-94752342D02*
X170305810Y-94561866D01*
X170305810Y-94561866D02*
X170353429Y-94466628D01*
X170353429Y-94466628D02*
X170401048Y-94419009D01*
X170401048Y-94419009D02*
X170496286Y-94371390D01*
X169924857Y-94038057D02*
X169877238Y-93990438D01*
X169877238Y-93990438D02*
X169782000Y-93942819D01*
X169782000Y-93942819D02*
X169543905Y-93942819D01*
X169543905Y-93942819D02*
X169448667Y-93990438D01*
X169448667Y-93990438D02*
X169401048Y-94038057D01*
X169401048Y-94038057D02*
X169353429Y-94133295D01*
X169353429Y-94133295D02*
X169353429Y-94228533D01*
X169353429Y-94228533D02*
X169401048Y-94371390D01*
X169401048Y-94371390D02*
X169972476Y-94942819D01*
X169972476Y-94942819D02*
X169353429Y-94942819D01*
X168734381Y-93942819D02*
X168639143Y-93942819D01*
X168639143Y-93942819D02*
X168543905Y-93990438D01*
X168543905Y-93990438D02*
X168496286Y-94038057D01*
X168496286Y-94038057D02*
X168448667Y-94133295D01*
X168448667Y-94133295D02*
X168401048Y-94323771D01*
X168401048Y-94323771D02*
X168401048Y-94561866D01*
X168401048Y-94561866D02*
X168448667Y-94752342D01*
X168448667Y-94752342D02*
X168496286Y-94847580D01*
X168496286Y-94847580D02*
X168543905Y-94895200D01*
X168543905Y-94895200D02*
X168639143Y-94942819D01*
X168639143Y-94942819D02*
X168734381Y-94942819D01*
X168734381Y-94942819D02*
X168829619Y-94895200D01*
X168829619Y-94895200D02*
X168877238Y-94847580D01*
X168877238Y-94847580D02*
X168924857Y-94752342D01*
X168924857Y-94752342D02*
X168972476Y-94561866D01*
X168972476Y-94561866D02*
X168972476Y-94323771D01*
X168972476Y-94323771D02*
X168924857Y-94133295D01*
X168924857Y-94133295D02*
X168877238Y-94038057D01*
X168877238Y-94038057D02*
X168829619Y-93990438D01*
X168829619Y-93990438D02*
X168734381Y-93942819D01*
X167210571Y-94942819D02*
X167210571Y-93942819D01*
X167210571Y-93942819D02*
X166829619Y-93942819D01*
X166829619Y-93942819D02*
X166734381Y-93990438D01*
X166734381Y-93990438D02*
X166686762Y-94038057D01*
X166686762Y-94038057D02*
X166639143Y-94133295D01*
X166639143Y-94133295D02*
X166639143Y-94276152D01*
X166639143Y-94276152D02*
X166686762Y-94371390D01*
X166686762Y-94371390D02*
X166734381Y-94419009D01*
X166734381Y-94419009D02*
X166829619Y-94466628D01*
X166829619Y-94466628D02*
X167210571Y-94466628D01*
X166258190Y-94895200D02*
X166115333Y-94942819D01*
X166115333Y-94942819D02*
X165877238Y-94942819D01*
X165877238Y-94942819D02*
X165782000Y-94895200D01*
X165782000Y-94895200D02*
X165734381Y-94847580D01*
X165734381Y-94847580D02*
X165686762Y-94752342D01*
X165686762Y-94752342D02*
X165686762Y-94657104D01*
X165686762Y-94657104D02*
X165734381Y-94561866D01*
X165734381Y-94561866D02*
X165782000Y-94514247D01*
X165782000Y-94514247D02*
X165877238Y-94466628D01*
X165877238Y-94466628D02*
X166067714Y-94419009D01*
X166067714Y-94419009D02*
X166162952Y-94371390D01*
X166162952Y-94371390D02*
X166210571Y-94323771D01*
X166210571Y-94323771D02*
X166258190Y-94228533D01*
X166258190Y-94228533D02*
X166258190Y-94133295D01*
X166258190Y-94133295D02*
X166210571Y-94038057D01*
X166210571Y-94038057D02*
X166162952Y-93990438D01*
X166162952Y-93990438D02*
X166067714Y-93942819D01*
X166067714Y-93942819D02*
X165829619Y-93942819D01*
X165829619Y-93942819D02*
X165686762Y-93990438D01*
X164543905Y-93895200D02*
X165401047Y-95180914D01*
X164258190Y-94038057D02*
X164210571Y-93990438D01*
X164210571Y-93990438D02*
X164115333Y-93942819D01*
X164115333Y-93942819D02*
X163877238Y-93942819D01*
X163877238Y-93942819D02*
X163782000Y-93990438D01*
X163782000Y-93990438D02*
X163734381Y-94038057D01*
X163734381Y-94038057D02*
X163686762Y-94133295D01*
X163686762Y-94133295D02*
X163686762Y-94228533D01*
X163686762Y-94228533D02*
X163734381Y-94371390D01*
X163734381Y-94371390D02*
X164305809Y-94942819D01*
X164305809Y-94942819D02*
X163686762Y-94942819D01*
X162496285Y-94942819D02*
X162496285Y-93942819D01*
X161924857Y-94942819D02*
X162353428Y-94371390D01*
X161924857Y-93942819D02*
X162496285Y-94514247D01*
X161115333Y-94895200D02*
X161210571Y-94942819D01*
X161210571Y-94942819D02*
X161401047Y-94942819D01*
X161401047Y-94942819D02*
X161496285Y-94895200D01*
X161496285Y-94895200D02*
X161543904Y-94799961D01*
X161543904Y-94799961D02*
X161543904Y-94419009D01*
X161543904Y-94419009D02*
X161496285Y-94323771D01*
X161496285Y-94323771D02*
X161401047Y-94276152D01*
X161401047Y-94276152D02*
X161210571Y-94276152D01*
X161210571Y-94276152D02*
X161115333Y-94323771D01*
X161115333Y-94323771D02*
X161067714Y-94419009D01*
X161067714Y-94419009D02*
X161067714Y-94514247D01*
X161067714Y-94514247D02*
X161543904Y-94609485D01*
X160734380Y-94276152D02*
X160496285Y-94942819D01*
X160258190Y-94276152D02*
X160496285Y-94942819D01*
X160496285Y-94942819D02*
X160591523Y-95180914D01*
X160591523Y-95180914D02*
X160639142Y-95228533D01*
X160639142Y-95228533D02*
X160734380Y-95276152D01*
X159877237Y-94942819D02*
X159877237Y-93942819D01*
X159877237Y-94323771D02*
X159781999Y-94276152D01*
X159781999Y-94276152D02*
X159591523Y-94276152D01*
X159591523Y-94276152D02*
X159496285Y-94323771D01*
X159496285Y-94323771D02*
X159448666Y-94371390D01*
X159448666Y-94371390D02*
X159401047Y-94466628D01*
X159401047Y-94466628D02*
X159401047Y-94752342D01*
X159401047Y-94752342D02*
X159448666Y-94847580D01*
X159448666Y-94847580D02*
X159496285Y-94895200D01*
X159496285Y-94895200D02*
X159591523Y-94942819D01*
X159591523Y-94942819D02*
X159781999Y-94942819D01*
X159781999Y-94942819D02*
X159877237Y-94895200D01*
X158829618Y-94942819D02*
X158924856Y-94895200D01*
X158924856Y-94895200D02*
X158972475Y-94847580D01*
X158972475Y-94847580D02*
X159020094Y-94752342D01*
X159020094Y-94752342D02*
X159020094Y-94466628D01*
X159020094Y-94466628D02*
X158972475Y-94371390D01*
X158972475Y-94371390D02*
X158924856Y-94323771D01*
X158924856Y-94323771D02*
X158829618Y-94276152D01*
X158829618Y-94276152D02*
X158686761Y-94276152D01*
X158686761Y-94276152D02*
X158591523Y-94323771D01*
X158591523Y-94323771D02*
X158543904Y-94371390D01*
X158543904Y-94371390D02*
X158496285Y-94466628D01*
X158496285Y-94466628D02*
X158496285Y-94752342D01*
X158496285Y-94752342D02*
X158543904Y-94847580D01*
X158543904Y-94847580D02*
X158591523Y-94895200D01*
X158591523Y-94895200D02*
X158686761Y-94942819D01*
X158686761Y-94942819D02*
X158829618Y-94942819D01*
X157639142Y-94942819D02*
X157639142Y-94419009D01*
X157639142Y-94419009D02*
X157686761Y-94323771D01*
X157686761Y-94323771D02*
X157781999Y-94276152D01*
X157781999Y-94276152D02*
X157972475Y-94276152D01*
X157972475Y-94276152D02*
X158067713Y-94323771D01*
X157639142Y-94895200D02*
X157734380Y-94942819D01*
X157734380Y-94942819D02*
X157972475Y-94942819D01*
X157972475Y-94942819D02*
X158067713Y-94895200D01*
X158067713Y-94895200D02*
X158115332Y-94799961D01*
X158115332Y-94799961D02*
X158115332Y-94704723D01*
X158115332Y-94704723D02*
X158067713Y-94609485D01*
X158067713Y-94609485D02*
X157972475Y-94561866D01*
X157972475Y-94561866D02*
X157734380Y-94561866D01*
X157734380Y-94561866D02*
X157639142Y-94514247D01*
X157162951Y-94942819D02*
X157162951Y-94276152D01*
X157162951Y-94466628D02*
X157115332Y-94371390D01*
X157115332Y-94371390D02*
X157067713Y-94323771D01*
X157067713Y-94323771D02*
X156972475Y-94276152D01*
X156972475Y-94276152D02*
X156877237Y-94276152D01*
X156115332Y-94942819D02*
X156115332Y-93942819D01*
X156115332Y-94895200D02*
X156210570Y-94942819D01*
X156210570Y-94942819D02*
X156401046Y-94942819D01*
X156401046Y-94942819D02*
X156496284Y-94895200D01*
X156496284Y-94895200D02*
X156543903Y-94847580D01*
X156543903Y-94847580D02*
X156591522Y-94752342D01*
X156591522Y-94752342D02*
X156591522Y-94466628D01*
X156591522Y-94466628D02*
X156543903Y-94371390D01*
X156543903Y-94371390D02*
X156496284Y-94323771D01*
X156496284Y-94323771D02*
X156401046Y-94276152D01*
X156401046Y-94276152D02*
X156210570Y-94276152D01*
X156210570Y-94276152D02*
X156115332Y-94323771D01*
X154924855Y-94657104D02*
X154448665Y-94657104D01*
X155020093Y-94942819D02*
X154686760Y-93942819D01*
X154686760Y-93942819D02*
X154353427Y-94942819D01*
X153591522Y-94942819D02*
X153591522Y-93942819D01*
X153591522Y-94895200D02*
X153686760Y-94942819D01*
X153686760Y-94942819D02*
X153877236Y-94942819D01*
X153877236Y-94942819D02*
X153972474Y-94895200D01*
X153972474Y-94895200D02*
X154020093Y-94847580D01*
X154020093Y-94847580D02*
X154067712Y-94752342D01*
X154067712Y-94752342D02*
X154067712Y-94466628D01*
X154067712Y-94466628D02*
X154020093Y-94371390D01*
X154020093Y-94371390D02*
X153972474Y-94323771D01*
X153972474Y-94323771D02*
X153877236Y-94276152D01*
X153877236Y-94276152D02*
X153686760Y-94276152D01*
X153686760Y-94276152D02*
X153591522Y-94323771D01*
X152686760Y-94942819D02*
X152686760Y-94419009D01*
X152686760Y-94419009D02*
X152734379Y-94323771D01*
X152734379Y-94323771D02*
X152829617Y-94276152D01*
X152829617Y-94276152D02*
X153020093Y-94276152D01*
X153020093Y-94276152D02*
X153115331Y-94323771D01*
X152686760Y-94895200D02*
X152781998Y-94942819D01*
X152781998Y-94942819D02*
X153020093Y-94942819D01*
X153020093Y-94942819D02*
X153115331Y-94895200D01*
X153115331Y-94895200D02*
X153162950Y-94799961D01*
X153162950Y-94799961D02*
X153162950Y-94704723D01*
X153162950Y-94704723D02*
X153115331Y-94609485D01*
X153115331Y-94609485D02*
X153020093Y-94561866D01*
X153020093Y-94561866D02*
X152781998Y-94561866D01*
X152781998Y-94561866D02*
X152686760Y-94514247D01*
X152210569Y-94276152D02*
X152210569Y-95276152D01*
X152210569Y-94323771D02*
X152115331Y-94276152D01*
X152115331Y-94276152D02*
X151924855Y-94276152D01*
X151924855Y-94276152D02*
X151829617Y-94323771D01*
X151829617Y-94323771D02*
X151781998Y-94371390D01*
X151781998Y-94371390D02*
X151734379Y-94466628D01*
X151734379Y-94466628D02*
X151734379Y-94752342D01*
X151734379Y-94752342D02*
X151781998Y-94847580D01*
X151781998Y-94847580D02*
X151829617Y-94895200D01*
X151829617Y-94895200D02*
X151924855Y-94942819D01*
X151924855Y-94942819D02*
X152115331Y-94942819D01*
X152115331Y-94942819D02*
X152210569Y-94895200D01*
X151448664Y-94276152D02*
X151067712Y-94276152D01*
X151305807Y-93942819D02*
X151305807Y-94799961D01*
X151305807Y-94799961D02*
X151258188Y-94895200D01*
X151258188Y-94895200D02*
X151162950Y-94942819D01*
X151162950Y-94942819D02*
X151067712Y-94942819D01*
X150353426Y-94895200D02*
X150448664Y-94942819D01*
X150448664Y-94942819D02*
X150639140Y-94942819D01*
X150639140Y-94942819D02*
X150734378Y-94895200D01*
X150734378Y-94895200D02*
X150781997Y-94799961D01*
X150781997Y-94799961D02*
X150781997Y-94419009D01*
X150781997Y-94419009D02*
X150734378Y-94323771D01*
X150734378Y-94323771D02*
X150639140Y-94276152D01*
X150639140Y-94276152D02*
X150448664Y-94276152D01*
X150448664Y-94276152D02*
X150353426Y-94323771D01*
X150353426Y-94323771D02*
X150305807Y-94419009D01*
X150305807Y-94419009D02*
X150305807Y-94514247D01*
X150305807Y-94514247D02*
X150781997Y-94609485D01*
X149877235Y-94942819D02*
X149877235Y-94276152D01*
X149877235Y-94466628D02*
X149829616Y-94371390D01*
X149829616Y-94371390D02*
X149781997Y-94323771D01*
X149781997Y-94323771D02*
X149686759Y-94276152D01*
X149686759Y-94276152D02*
X149591521Y-94276152D01*
X148591520Y-94276152D02*
X148353425Y-94942819D01*
X148353425Y-94942819D02*
X148115330Y-94276152D01*
X147210568Y-94942819D02*
X147781996Y-94942819D01*
X147496282Y-94942819D02*
X147496282Y-93942819D01*
X147496282Y-93942819D02*
X147591520Y-94085676D01*
X147591520Y-94085676D02*
X147686758Y-94180914D01*
X147686758Y-94180914D02*
X147781996Y-94228533D01*
X146781996Y-94847580D02*
X146734377Y-94895200D01*
X146734377Y-94895200D02*
X146781996Y-94942819D01*
X146781996Y-94942819D02*
X146829615Y-94895200D01*
X146829615Y-94895200D02*
X146781996Y-94847580D01*
X146781996Y-94847580D02*
X146781996Y-94942819D01*
X146115330Y-93942819D02*
X146020092Y-93942819D01*
X146020092Y-93942819D02*
X145924854Y-93990438D01*
X145924854Y-93990438D02*
X145877235Y-94038057D01*
X145877235Y-94038057D02*
X145829616Y-94133295D01*
X145829616Y-94133295D02*
X145781997Y-94323771D01*
X145781997Y-94323771D02*
X145781997Y-94561866D01*
X145781997Y-94561866D02*
X145829616Y-94752342D01*
X145829616Y-94752342D02*
X145877235Y-94847580D01*
X145877235Y-94847580D02*
X145924854Y-94895200D01*
X145924854Y-94895200D02*
X146020092Y-94942819D01*
X146020092Y-94942819D02*
X146115330Y-94942819D01*
X146115330Y-94942819D02*
X146210568Y-94895200D01*
X146210568Y-94895200D02*
X146258187Y-94847580D01*
X146258187Y-94847580D02*
X146305806Y-94752342D01*
X146305806Y-94752342D02*
X146353425Y-94561866D01*
X146353425Y-94561866D02*
X146353425Y-94323771D01*
X146353425Y-94323771D02*
X146305806Y-94133295D01*
X146305806Y-94133295D02*
X146258187Y-94038057D01*
X146258187Y-94038057D02*
X146210568Y-93990438D01*
X146210568Y-93990438D02*
X146115330Y-93942819D01*
X177210572Y-105960152D02*
X177210572Y-106769676D01*
X177210572Y-106769676D02*
X177258191Y-106864914D01*
X177258191Y-106864914D02*
X177305810Y-106912533D01*
X177305810Y-106912533D02*
X177401048Y-106960152D01*
X177401048Y-106960152D02*
X177543905Y-106960152D01*
X177543905Y-106960152D02*
X177639143Y-106912533D01*
X177210572Y-106579200D02*
X177305810Y-106626819D01*
X177305810Y-106626819D02*
X177496286Y-106626819D01*
X177496286Y-106626819D02*
X177591524Y-106579200D01*
X177591524Y-106579200D02*
X177639143Y-106531580D01*
X177639143Y-106531580D02*
X177686762Y-106436342D01*
X177686762Y-106436342D02*
X177686762Y-106150628D01*
X177686762Y-106150628D02*
X177639143Y-106055390D01*
X177639143Y-106055390D02*
X177591524Y-106007771D01*
X177591524Y-106007771D02*
X177496286Y-105960152D01*
X177496286Y-105960152D02*
X177305810Y-105960152D01*
X177305810Y-105960152D02*
X177210572Y-106007771D01*
X176734381Y-106626819D02*
X176734381Y-105960152D01*
X176734381Y-105626819D02*
X176782000Y-105674438D01*
X176782000Y-105674438D02*
X176734381Y-105722057D01*
X176734381Y-105722057D02*
X176686762Y-105674438D01*
X176686762Y-105674438D02*
X176734381Y-105626819D01*
X176734381Y-105626819D02*
X176734381Y-105722057D01*
X176401048Y-105960152D02*
X176020096Y-105960152D01*
X176258191Y-105626819D02*
X176258191Y-106483961D01*
X176258191Y-106483961D02*
X176210572Y-106579200D01*
X176210572Y-106579200D02*
X176115334Y-106626819D01*
X176115334Y-106626819D02*
X176020096Y-106626819D01*
X175686762Y-106626819D02*
X175686762Y-105626819D01*
X175258191Y-106626819D02*
X175258191Y-106103009D01*
X175258191Y-106103009D02*
X175305810Y-106007771D01*
X175305810Y-106007771D02*
X175401048Y-105960152D01*
X175401048Y-105960152D02*
X175543905Y-105960152D01*
X175543905Y-105960152D02*
X175639143Y-106007771D01*
X175639143Y-106007771D02*
X175686762Y-106055390D01*
X174353429Y-105960152D02*
X174353429Y-106626819D01*
X174782000Y-105960152D02*
X174782000Y-106483961D01*
X174782000Y-106483961D02*
X174734381Y-106579200D01*
X174734381Y-106579200D02*
X174639143Y-106626819D01*
X174639143Y-106626819D02*
X174496286Y-106626819D01*
X174496286Y-106626819D02*
X174401048Y-106579200D01*
X174401048Y-106579200D02*
X174353429Y-106531580D01*
X173877238Y-106626819D02*
X173877238Y-105626819D01*
X173877238Y-106007771D02*
X173782000Y-105960152D01*
X173782000Y-105960152D02*
X173591524Y-105960152D01*
X173591524Y-105960152D02*
X173496286Y-106007771D01*
X173496286Y-106007771D02*
X173448667Y-106055390D01*
X173448667Y-106055390D02*
X173401048Y-106150628D01*
X173401048Y-106150628D02*
X173401048Y-106436342D01*
X173401048Y-106436342D02*
X173448667Y-106531580D01*
X173448667Y-106531580D02*
X173496286Y-106579200D01*
X173496286Y-106579200D02*
X173591524Y-106626819D01*
X173591524Y-106626819D02*
X173782000Y-106626819D01*
X173782000Y-106626819D02*
X173877238Y-106579200D01*
X172972476Y-106531580D02*
X172924857Y-106579200D01*
X172924857Y-106579200D02*
X172972476Y-106626819D01*
X172972476Y-106626819D02*
X173020095Y-106579200D01*
X173020095Y-106579200D02*
X172972476Y-106531580D01*
X172972476Y-106531580D02*
X172972476Y-106626819D01*
X172067715Y-106579200D02*
X172162953Y-106626819D01*
X172162953Y-106626819D02*
X172353429Y-106626819D01*
X172353429Y-106626819D02*
X172448667Y-106579200D01*
X172448667Y-106579200D02*
X172496286Y-106531580D01*
X172496286Y-106531580D02*
X172543905Y-106436342D01*
X172543905Y-106436342D02*
X172543905Y-106150628D01*
X172543905Y-106150628D02*
X172496286Y-106055390D01*
X172496286Y-106055390D02*
X172448667Y-106007771D01*
X172448667Y-106007771D02*
X172353429Y-105960152D01*
X172353429Y-105960152D02*
X172162953Y-105960152D01*
X172162953Y-105960152D02*
X172067715Y-106007771D01*
X171496286Y-106626819D02*
X171591524Y-106579200D01*
X171591524Y-106579200D02*
X171639143Y-106531580D01*
X171639143Y-106531580D02*
X171686762Y-106436342D01*
X171686762Y-106436342D02*
X171686762Y-106150628D01*
X171686762Y-106150628D02*
X171639143Y-106055390D01*
X171639143Y-106055390D02*
X171591524Y-106007771D01*
X171591524Y-106007771D02*
X171496286Y-105960152D01*
X171496286Y-105960152D02*
X171353429Y-105960152D01*
X171353429Y-105960152D02*
X171258191Y-106007771D01*
X171258191Y-106007771D02*
X171210572Y-106055390D01*
X171210572Y-106055390D02*
X171162953Y-106150628D01*
X171162953Y-106150628D02*
X171162953Y-106436342D01*
X171162953Y-106436342D02*
X171210572Y-106531580D01*
X171210572Y-106531580D02*
X171258191Y-106579200D01*
X171258191Y-106579200D02*
X171353429Y-106626819D01*
X171353429Y-106626819D02*
X171496286Y-106626819D01*
X170734381Y-106626819D02*
X170734381Y-105960152D01*
X170734381Y-106055390D02*
X170686762Y-106007771D01*
X170686762Y-106007771D02*
X170591524Y-105960152D01*
X170591524Y-105960152D02*
X170448667Y-105960152D01*
X170448667Y-105960152D02*
X170353429Y-106007771D01*
X170353429Y-106007771D02*
X170305810Y-106103009D01*
X170305810Y-106103009D02*
X170305810Y-106626819D01*
X170305810Y-106103009D02*
X170258191Y-106007771D01*
X170258191Y-106007771D02*
X170162953Y-105960152D01*
X170162953Y-105960152D02*
X170020096Y-105960152D01*
X170020096Y-105960152D02*
X169924857Y-106007771D01*
X169924857Y-106007771D02*
X169877238Y-106103009D01*
X169877238Y-106103009D02*
X169877238Y-106626819D01*
X168686763Y-105579200D02*
X169543905Y-106864914D01*
X167924858Y-106626819D02*
X167924858Y-105626819D01*
X167924858Y-106579200D02*
X168020096Y-106626819D01*
X168020096Y-106626819D02*
X168210572Y-106626819D01*
X168210572Y-106626819D02*
X168305810Y-106579200D01*
X168305810Y-106579200D02*
X168353429Y-106531580D01*
X168353429Y-106531580D02*
X168401048Y-106436342D01*
X168401048Y-106436342D02*
X168401048Y-106150628D01*
X168401048Y-106150628D02*
X168353429Y-106055390D01*
X168353429Y-106055390D02*
X168305810Y-106007771D01*
X168305810Y-106007771D02*
X168210572Y-105960152D01*
X168210572Y-105960152D02*
X168020096Y-105960152D01*
X168020096Y-105960152D02*
X167924858Y-106007771D01*
X167448667Y-105960152D02*
X167448667Y-106817295D01*
X167448667Y-106817295D02*
X167496286Y-106912533D01*
X167496286Y-106912533D02*
X167591524Y-106960152D01*
X167591524Y-106960152D02*
X167639143Y-106960152D01*
X167448667Y-105626819D02*
X167496286Y-105674438D01*
X167496286Y-105674438D02*
X167448667Y-105722057D01*
X167448667Y-105722057D02*
X167401048Y-105674438D01*
X167401048Y-105674438D02*
X167448667Y-105626819D01*
X167448667Y-105626819D02*
X167448667Y-105722057D01*
X167115334Y-105960152D02*
X166734382Y-105960152D01*
X166972477Y-105626819D02*
X166972477Y-106483961D01*
X166972477Y-106483961D02*
X166924858Y-106579200D01*
X166924858Y-106579200D02*
X166829620Y-106626819D01*
X166829620Y-106626819D02*
X166734382Y-106626819D01*
X166020096Y-106579200D02*
X166115334Y-106626819D01*
X166115334Y-106626819D02*
X166305810Y-106626819D01*
X166305810Y-106626819D02*
X166401048Y-106579200D01*
X166401048Y-106579200D02*
X166448667Y-106483961D01*
X166448667Y-106483961D02*
X166448667Y-106103009D01*
X166448667Y-106103009D02*
X166401048Y-106007771D01*
X166401048Y-106007771D02*
X166305810Y-105960152D01*
X166305810Y-105960152D02*
X166115334Y-105960152D01*
X166115334Y-105960152D02*
X166020096Y-106007771D01*
X166020096Y-106007771D02*
X165972477Y-106103009D01*
X165972477Y-106103009D02*
X165972477Y-106198247D01*
X165972477Y-106198247D02*
X166448667Y-106293485D01*
X165543905Y-106626819D02*
X165543905Y-105960152D01*
X165543905Y-106150628D02*
X165496286Y-106055390D01*
X165496286Y-106055390D02*
X165448667Y-106007771D01*
X165448667Y-106007771D02*
X165353429Y-105960152D01*
X165353429Y-105960152D02*
X165258191Y-105960152D01*
X164972476Y-106579200D02*
X164877238Y-106626819D01*
X164877238Y-106626819D02*
X164686762Y-106626819D01*
X164686762Y-106626819D02*
X164591524Y-106579200D01*
X164591524Y-106579200D02*
X164543905Y-106483961D01*
X164543905Y-106483961D02*
X164543905Y-106436342D01*
X164543905Y-106436342D02*
X164591524Y-106341104D01*
X164591524Y-106341104D02*
X164686762Y-106293485D01*
X164686762Y-106293485D02*
X164829619Y-106293485D01*
X164829619Y-106293485D02*
X164924857Y-106245866D01*
X164924857Y-106245866D02*
X164972476Y-106150628D01*
X164972476Y-106150628D02*
X164972476Y-106103009D01*
X164972476Y-106103009D02*
X164924857Y-106007771D01*
X164924857Y-106007771D02*
X164829619Y-105960152D01*
X164829619Y-105960152D02*
X164686762Y-105960152D01*
X164686762Y-105960152D02*
X164591524Y-106007771D01*
X164258190Y-105960152D02*
X163877238Y-105960152D01*
X164115333Y-105626819D02*
X164115333Y-106483961D01*
X164115333Y-106483961D02*
X164067714Y-106579200D01*
X164067714Y-106579200D02*
X163972476Y-106626819D01*
X163972476Y-106626819D02*
X163877238Y-106626819D01*
X163162952Y-106579200D02*
X163258190Y-106626819D01*
X163258190Y-106626819D02*
X163448666Y-106626819D01*
X163448666Y-106626819D02*
X163543904Y-106579200D01*
X163543904Y-106579200D02*
X163591523Y-106483961D01*
X163591523Y-106483961D02*
X163591523Y-106103009D01*
X163591523Y-106103009D02*
X163543904Y-106007771D01*
X163543904Y-106007771D02*
X163448666Y-105960152D01*
X163448666Y-105960152D02*
X163258190Y-105960152D01*
X163258190Y-105960152D02*
X163162952Y-106007771D01*
X163162952Y-106007771D02*
X163115333Y-106103009D01*
X163115333Y-106103009D02*
X163115333Y-106198247D01*
X163115333Y-106198247D02*
X163591523Y-106293485D01*
X162305809Y-106579200D02*
X162401047Y-106626819D01*
X162401047Y-106626819D02*
X162591523Y-106626819D01*
X162591523Y-106626819D02*
X162686761Y-106579200D01*
X162686761Y-106579200D02*
X162734380Y-106483961D01*
X162734380Y-106483961D02*
X162734380Y-106103009D01*
X162734380Y-106103009D02*
X162686761Y-106007771D01*
X162686761Y-106007771D02*
X162591523Y-105960152D01*
X162591523Y-105960152D02*
X162401047Y-105960152D01*
X162401047Y-105960152D02*
X162305809Y-106007771D01*
X162305809Y-106007771D02*
X162258190Y-106103009D01*
X162258190Y-106103009D02*
X162258190Y-106198247D01*
X162258190Y-106198247D02*
X162734380Y-106293485D01*
X161401047Y-105960152D02*
X161401047Y-106769676D01*
X161401047Y-106769676D02*
X161448666Y-106864914D01*
X161448666Y-106864914D02*
X161496285Y-106912533D01*
X161496285Y-106912533D02*
X161591523Y-106960152D01*
X161591523Y-106960152D02*
X161734380Y-106960152D01*
X161734380Y-106960152D02*
X161829618Y-106912533D01*
X161401047Y-106579200D02*
X161496285Y-106626819D01*
X161496285Y-106626819D02*
X161686761Y-106626819D01*
X161686761Y-106626819D02*
X161781999Y-106579200D01*
X161781999Y-106579200D02*
X161829618Y-106531580D01*
X161829618Y-106531580D02*
X161877237Y-106436342D01*
X161877237Y-106436342D02*
X161877237Y-106150628D01*
X161877237Y-106150628D02*
X161829618Y-106055390D01*
X161829618Y-106055390D02*
X161781999Y-106007771D01*
X161781999Y-106007771D02*
X161686761Y-105960152D01*
X161686761Y-105960152D02*
X161496285Y-105960152D01*
X161496285Y-105960152D02*
X161401047Y-106007771D01*
X160496285Y-106579200D02*
X160591523Y-106626819D01*
X160591523Y-106626819D02*
X160781999Y-106626819D01*
X160781999Y-106626819D02*
X160877237Y-106579200D01*
X160877237Y-106579200D02*
X160924856Y-106531580D01*
X160924856Y-106531580D02*
X160972475Y-106436342D01*
X160972475Y-106436342D02*
X160972475Y-106150628D01*
X160972475Y-106150628D02*
X160924856Y-106055390D01*
X160924856Y-106055390D02*
X160877237Y-106007771D01*
X160877237Y-106007771D02*
X160781999Y-105960152D01*
X160781999Y-105960152D02*
X160591523Y-105960152D01*
X160591523Y-105960152D02*
X160496285Y-106007771D01*
X159353428Y-105579200D02*
X160210570Y-106864914D01*
X159115332Y-105626819D02*
X158448666Y-106626819D01*
X158448666Y-105626819D02*
X159115332Y-106626819D01*
X157686761Y-106579200D02*
X157781999Y-106626819D01*
X157781999Y-106626819D02*
X157972475Y-106626819D01*
X157972475Y-106626819D02*
X158067713Y-106579200D01*
X158067713Y-106579200D02*
X158115332Y-106483961D01*
X158115332Y-106483961D02*
X158115332Y-106103009D01*
X158115332Y-106103009D02*
X158067713Y-106007771D01*
X158067713Y-106007771D02*
X157972475Y-105960152D01*
X157972475Y-105960152D02*
X157781999Y-105960152D01*
X157781999Y-105960152D02*
X157686761Y-106007771D01*
X157686761Y-106007771D02*
X157639142Y-106103009D01*
X157639142Y-106103009D02*
X157639142Y-106198247D01*
X157639142Y-106198247D02*
X158115332Y-106293485D01*
X157210570Y-106626819D02*
X157210570Y-105960152D01*
X157210570Y-106150628D02*
X157162951Y-106055390D01*
X157162951Y-106055390D02*
X157115332Y-106007771D01*
X157115332Y-106007771D02*
X157020094Y-105960152D01*
X157020094Y-105960152D02*
X156924856Y-105960152D01*
X156448665Y-106626819D02*
X156543903Y-106579200D01*
X156543903Y-106579200D02*
X156591522Y-106531580D01*
X156591522Y-106531580D02*
X156639141Y-106436342D01*
X156639141Y-106436342D02*
X156639141Y-106150628D01*
X156639141Y-106150628D02*
X156591522Y-106055390D01*
X156591522Y-106055390D02*
X156543903Y-106007771D01*
X156543903Y-106007771D02*
X156448665Y-105960152D01*
X156448665Y-105960152D02*
X156305808Y-105960152D01*
X156305808Y-105960152D02*
X156210570Y-106007771D01*
X156210570Y-106007771D02*
X156162951Y-106055390D01*
X156162951Y-106055390D02*
X156115332Y-106150628D01*
X156115332Y-106150628D02*
X156115332Y-106436342D01*
X156115332Y-106436342D02*
X156162951Y-106531580D01*
X156162951Y-106531580D02*
X156210570Y-106579200D01*
X156210570Y-106579200D02*
X156305808Y-106626819D01*
X156305808Y-106626819D02*
X156448665Y-106626819D01*
X155781998Y-106626819D02*
X155258189Y-105960152D01*
X155781998Y-105960152D02*
X155258189Y-106626819D01*
X154877236Y-106245866D02*
X154115332Y-106245866D01*
X153496284Y-106055390D02*
X153591522Y-106007771D01*
X153591522Y-106007771D02*
X153639141Y-105960152D01*
X153639141Y-105960152D02*
X153686760Y-105864914D01*
X153686760Y-105864914D02*
X153686760Y-105817295D01*
X153686760Y-105817295D02*
X153639141Y-105722057D01*
X153639141Y-105722057D02*
X153591522Y-105674438D01*
X153591522Y-105674438D02*
X153496284Y-105626819D01*
X153496284Y-105626819D02*
X153305808Y-105626819D01*
X153305808Y-105626819D02*
X153210570Y-105674438D01*
X153210570Y-105674438D02*
X153162951Y-105722057D01*
X153162951Y-105722057D02*
X153115332Y-105817295D01*
X153115332Y-105817295D02*
X153115332Y-105864914D01*
X153115332Y-105864914D02*
X153162951Y-105960152D01*
X153162951Y-105960152D02*
X153210570Y-106007771D01*
X153210570Y-106007771D02*
X153305808Y-106055390D01*
X153305808Y-106055390D02*
X153496284Y-106055390D01*
X153496284Y-106055390D02*
X153591522Y-106103009D01*
X153591522Y-106103009D02*
X153639141Y-106150628D01*
X153639141Y-106150628D02*
X153686760Y-106245866D01*
X153686760Y-106245866D02*
X153686760Y-106436342D01*
X153686760Y-106436342D02*
X153639141Y-106531580D01*
X153639141Y-106531580D02*
X153591522Y-106579200D01*
X153591522Y-106579200D02*
X153496284Y-106626819D01*
X153496284Y-106626819D02*
X153305808Y-106626819D01*
X153305808Y-106626819D02*
X153210570Y-106579200D01*
X153210570Y-106579200D02*
X153162951Y-106531580D01*
X153162951Y-106531580D02*
X153115332Y-106436342D01*
X153115332Y-106436342D02*
X153115332Y-106245866D01*
X153115332Y-106245866D02*
X153162951Y-106150628D01*
X153162951Y-106150628D02*
X153210570Y-106103009D01*
X153210570Y-106103009D02*
X153305808Y-106055390D01*
X152734379Y-105722057D02*
X152686760Y-105674438D01*
X152686760Y-105674438D02*
X152591522Y-105626819D01*
X152591522Y-105626819D02*
X152353427Y-105626819D01*
X152353427Y-105626819D02*
X152258189Y-105674438D01*
X152258189Y-105674438D02*
X152210570Y-105722057D01*
X152210570Y-105722057D02*
X152162951Y-105817295D01*
X152162951Y-105817295D02*
X152162951Y-105912533D01*
X152162951Y-105912533D02*
X152210570Y-106055390D01*
X152210570Y-106055390D02*
X152781998Y-106626819D01*
X152781998Y-106626819D02*
X152162951Y-106626819D01*
X151543903Y-105626819D02*
X151448665Y-105626819D01*
X151448665Y-105626819D02*
X151353427Y-105674438D01*
X151353427Y-105674438D02*
X151305808Y-105722057D01*
X151305808Y-105722057D02*
X151258189Y-105817295D01*
X151258189Y-105817295D02*
X151210570Y-106007771D01*
X151210570Y-106007771D02*
X151210570Y-106245866D01*
X151210570Y-106245866D02*
X151258189Y-106436342D01*
X151258189Y-106436342D02*
X151305808Y-106531580D01*
X151305808Y-106531580D02*
X151353427Y-106579200D01*
X151353427Y-106579200D02*
X151448665Y-106626819D01*
X151448665Y-106626819D02*
X151543903Y-106626819D01*
X151543903Y-106626819D02*
X151639141Y-106579200D01*
X151639141Y-106579200D02*
X151686760Y-106531580D01*
X151686760Y-106531580D02*
X151734379Y-106436342D01*
X151734379Y-106436342D02*
X151781998Y-106245866D01*
X151781998Y-106245866D02*
X151781998Y-106007771D01*
X151781998Y-106007771D02*
X151734379Y-105817295D01*
X151734379Y-105817295D02*
X151686760Y-105722057D01*
X151686760Y-105722057D02*
X151639141Y-105674438D01*
X151639141Y-105674438D02*
X151543903Y-105626819D01*
X150781998Y-106245866D02*
X150020094Y-106245866D01*
X149543903Y-106626819D02*
X149543903Y-105626819D01*
X149543903Y-105626819D02*
X149162951Y-105626819D01*
X149162951Y-105626819D02*
X149067713Y-105674438D01*
X149067713Y-105674438D02*
X149020094Y-105722057D01*
X149020094Y-105722057D02*
X148972475Y-105817295D01*
X148972475Y-105817295D02*
X148972475Y-105960152D01*
X148972475Y-105960152D02*
X149020094Y-106055390D01*
X149020094Y-106055390D02*
X149067713Y-106103009D01*
X149067713Y-106103009D02*
X149162951Y-106150628D01*
X149162951Y-106150628D02*
X149543903Y-106150628D01*
X148543903Y-106626819D02*
X148543903Y-105960152D01*
X148543903Y-106150628D02*
X148496284Y-106055390D01*
X148496284Y-106055390D02*
X148448665Y-106007771D01*
X148448665Y-106007771D02*
X148353427Y-105960152D01*
X148353427Y-105960152D02*
X148258189Y-105960152D01*
X147781998Y-106626819D02*
X147877236Y-106579200D01*
X147877236Y-106579200D02*
X147924855Y-106531580D01*
X147924855Y-106531580D02*
X147972474Y-106436342D01*
X147972474Y-106436342D02*
X147972474Y-106150628D01*
X147972474Y-106150628D02*
X147924855Y-106055390D01*
X147924855Y-106055390D02*
X147877236Y-106007771D01*
X147877236Y-106007771D02*
X147781998Y-105960152D01*
X147781998Y-105960152D02*
X147639141Y-105960152D01*
X147639141Y-105960152D02*
X147543903Y-106007771D01*
X147543903Y-106007771D02*
X147496284Y-106055390D01*
X147496284Y-106055390D02*
X147448665Y-106150628D01*
X147448665Y-106150628D02*
X147448665Y-106436342D01*
X147448665Y-106436342D02*
X147496284Y-106531580D01*
X147496284Y-106531580D02*
X147543903Y-106579200D01*
X147543903Y-106579200D02*
X147639141Y-106626819D01*
X147639141Y-106626819D02*
X147781998Y-106626819D01*
X147020093Y-105960152D02*
X147020093Y-106817295D01*
X147020093Y-106817295D02*
X147067712Y-106912533D01*
X147067712Y-106912533D02*
X147162950Y-106960152D01*
X147162950Y-106960152D02*
X147210569Y-106960152D01*
X147020093Y-105626819D02*
X147067712Y-105674438D01*
X147067712Y-105674438D02*
X147020093Y-105722057D01*
X147020093Y-105722057D02*
X146972474Y-105674438D01*
X146972474Y-105674438D02*
X147020093Y-105626819D01*
X147020093Y-105626819D02*
X147020093Y-105722057D01*
X146162951Y-106579200D02*
X146258189Y-106626819D01*
X146258189Y-106626819D02*
X146448665Y-106626819D01*
X146448665Y-106626819D02*
X146543903Y-106579200D01*
X146543903Y-106579200D02*
X146591522Y-106483961D01*
X146591522Y-106483961D02*
X146591522Y-106103009D01*
X146591522Y-106103009D02*
X146543903Y-106007771D01*
X146543903Y-106007771D02*
X146448665Y-105960152D01*
X146448665Y-105960152D02*
X146258189Y-105960152D01*
X146258189Y-105960152D02*
X146162951Y-106007771D01*
X146162951Y-106007771D02*
X146115332Y-106103009D01*
X146115332Y-106103009D02*
X146115332Y-106198247D01*
X146115332Y-106198247D02*
X146591522Y-106293485D01*
X145258189Y-106579200D02*
X145353427Y-106626819D01*
X145353427Y-106626819D02*
X145543903Y-106626819D01*
X145543903Y-106626819D02*
X145639141Y-106579200D01*
X145639141Y-106579200D02*
X145686760Y-106531580D01*
X145686760Y-106531580D02*
X145734379Y-106436342D01*
X145734379Y-106436342D02*
X145734379Y-106150628D01*
X145734379Y-106150628D02*
X145686760Y-106055390D01*
X145686760Y-106055390D02*
X145639141Y-106007771D01*
X145639141Y-106007771D02*
X145543903Y-105960152D01*
X145543903Y-105960152D02*
X145353427Y-105960152D01*
X145353427Y-105960152D02*
X145258189Y-106007771D01*
X144972474Y-105960152D02*
X144591522Y-105960152D01*
X144829617Y-105626819D02*
X144829617Y-106483961D01*
X144829617Y-106483961D02*
X144781998Y-106579200D01*
X144781998Y-106579200D02*
X144686760Y-106626819D01*
X144686760Y-106626819D02*
X144591522Y-106626819D01*
X144305807Y-106579200D02*
X144210569Y-106626819D01*
X144210569Y-106626819D02*
X144020093Y-106626819D01*
X144020093Y-106626819D02*
X143924855Y-106579200D01*
X143924855Y-106579200D02*
X143877236Y-106483961D01*
X143877236Y-106483961D02*
X143877236Y-106436342D01*
X143877236Y-106436342D02*
X143924855Y-106341104D01*
X143924855Y-106341104D02*
X144020093Y-106293485D01*
X144020093Y-106293485D02*
X144162950Y-106293485D01*
X144162950Y-106293485D02*
X144258188Y-106245866D01*
X144258188Y-106245866D02*
X144305807Y-106150628D01*
X144305807Y-106150628D02*
X144305807Y-106103009D01*
X144305807Y-106103009D02*
X144258188Y-106007771D01*
X144258188Y-106007771D02*
X144162950Y-105960152D01*
X144162950Y-105960152D02*
X144020093Y-105960152D01*
X144020093Y-105960152D02*
X143924855Y-106007771D01*
M02*
