%TF.GenerationSoftware,KiCad,Pcbnew,8.0.7*%
%TF.CreationDate,2025-01-12T22:52:32-06:00*%
%TF.ProjectId,Parallel-to-PS2-Keyboard-Adapter,50617261-6c6c-4656-9c2d-746f2d505332,v1.0*%
%TF.SameCoordinates,Original*%
%TF.FileFunction,Soldermask,Bot*%
%TF.FilePolarity,Negative*%
%FSLAX46Y46*%
G04 Gerber Fmt 4.6, Leading zero omitted, Abs format (unit mm)*
G04 Created by KiCad (PCBNEW 8.0.7) date 2025-01-12 22:52:32*
%MOMM*%
%LPD*%
G01*
G04 APERTURE LIST*
%ADD10C,1.600000*%
%ADD11O,1.600000X1.600000*%
%ADD12C,2.700000*%
%ADD13R,1.846667X3.480000*%
%ADD14R,1.600000X1.600000*%
%ADD15C,1.500000*%
%ADD16R,1.408000X1.408000*%
%ADD17C,1.408000*%
%ADD18O,2.730000X1.230000*%
%ADD19O,1.230000X2.730000*%
G04 APERTURE END LIST*
D10*
%TO.C,C3*%
X146050000Y-104394000D03*
X143550000Y-104394000D03*
%TD*%
%TO.C,R1*%
X165608000Y-100310000D03*
D11*
X157988000Y-100310000D03*
%TD*%
D10*
%TO.C,C1*%
X143530000Y-96012000D03*
X146030000Y-96012000D03*
%TD*%
D12*
%TO.C,H2*%
X171704000Y-109728000D03*
%TD*%
%TO.C,H1*%
X149606000Y-109728000D03*
%TD*%
D13*
%TO.C,J3*%
X175835000Y-91440000D03*
X173065000Y-91440000D03*
X170295000Y-91440000D03*
X167525000Y-91440000D03*
X164755000Y-91440000D03*
X161985000Y-91440000D03*
X159215000Y-91440000D03*
X156445000Y-91440000D03*
X153675000Y-91440000D03*
X150905000Y-91440000D03*
X148135000Y-91440000D03*
X145365000Y-91440000D03*
%TD*%
D14*
%TO.C,U1*%
X156210000Y-104013000D03*
D11*
X158750000Y-104013000D03*
X161290000Y-104013000D03*
X163830000Y-104013000D03*
X166370000Y-104013000D03*
X168910000Y-104013000D03*
X171450000Y-104013000D03*
X173990000Y-104013000D03*
X176530000Y-104013000D03*
X176530000Y-96393000D03*
X173990000Y-96393000D03*
X171450000Y-96393000D03*
X168910000Y-96393000D03*
X166370000Y-96393000D03*
X163830000Y-96393000D03*
X161290000Y-96393000D03*
X158750000Y-96393000D03*
X156210000Y-96393000D03*
%TD*%
D15*
%TO.C,Y1*%
X150368000Y-97790000D03*
X150368000Y-102670000D03*
%TD*%
D16*
%TO.C,J1*%
X161900000Y-110450000D03*
D17*
X159300000Y-110450000D03*
X164000000Y-110450000D03*
X157200000Y-110450000D03*
X164000000Y-107950000D03*
X157200000Y-107950000D03*
D18*
X160600000Y-114250000D03*
D19*
X153850000Y-113450000D03*
X167350000Y-113450000D03*
%TD*%
D10*
%TO.C,C2*%
X143530000Y-100203000D03*
X146030000Y-100203000D03*
%TD*%
M02*
