M48
; DRILL file {KiCad 8.0.7} date 2025-01-12T22:52:34-0600
; FORMAT={-:-/ absolute / inch / decimal}
; #@! TF.CreationDate,2025-01-12T22:52:34-06:00
; #@! TF.GenerationSoftware,Kicad,Pcbnew,8.0.7
; #@! TF.FileFunction,MixedPlating,1,2
FMAT,2
INCH
; #@! TA.AperFunction,Plated,PTH,ViaDrill
T1C0.0118
; #@! TA.AperFunction,Plated,PTH,ViaDrill
T2C0.0157
; #@! TA.AperFunction,Plated,PTH,ComponentDrill
T3C0.0276
; #@! TA.AperFunction,Plated,PTH,ComponentDrill
T4C0.0315
; #@! TA.AperFunction,Plated,PTH,ComponentDrill
T5C0.0354
; #@! TA.AperFunction,NonPlated,NPTH,ComponentDrill
T6C0.1063
%
G90
G05
T1
X6.47Y-3.85
X6.5Y-3.8736
X6.54Y-3.735
X6.65Y-3.705
X6.75Y-4.035
X6.8Y-4.005
X6.85Y-3.735
X6.95Y-3.705
X6.95Y-4.005
X7.0Y-4.035
T2
X6.215Y-3.705
T4
X5.6508Y-3.78
X5.6508Y-3.945
X5.6516Y-4.11
X5.7492Y-3.78
X5.7492Y-3.945
X5.75Y-4.11
X5.92Y-3.85
X5.92Y-4.0421
X6.15Y-3.795
X6.15Y-4.095
X6.22Y-3.9492
X6.25Y-3.795
X6.25Y-4.095
X6.35Y-3.795
X6.35Y-4.095
X6.45Y-3.795
X6.45Y-4.095
X6.52Y-3.9492
X6.55Y-3.795
X6.55Y-4.095
X6.65Y-3.795
X6.65Y-4.095
X6.75Y-3.795
X6.75Y-4.095
X6.85Y-3.795
X6.85Y-4.095
X6.95Y-3.795
X6.95Y-4.095
T5
X6.189Y-4.25
X6.189Y-4.3484
X6.2717Y-4.3484
X6.374Y-4.3484
X6.4567Y-4.25
X6.4567Y-4.3484
T6
X5.89Y-4.32
X6.76Y-4.32
T3
G00X6.0571Y-4.437
M15
G01X6.0571Y-4.4961
M16
G05
G00X6.2933Y-4.498
M15
G01X6.3524Y-4.498
M16
G05
G00X6.5886Y-4.437
M15
G01X6.5886Y-4.4961
M16
G05
M30
