%TF.GenerationSoftware,KiCad,Pcbnew,8.0.7*%
%TF.CreationDate,2025-01-12T23:09:13-06:00*%
%TF.ProjectId,DB37-to-IDC34-Floppy-Adapter,44423337-2d74-46f2-9d49-444333342d46,v1.0*%
%TF.SameCoordinates,Original*%
%TF.FileFunction,Legend,Bot*%
%TF.FilePolarity,Positive*%
%FSLAX46Y46*%
G04 Gerber Fmt 4.6, Leading zero omitted, Abs format (unit mm)*
G04 Created by KiCad (PCBNEW 8.0.7) date 2025-01-12 23:09:13*
%MOMM*%
%LPD*%
G01*
G04 APERTURE LIST*
%ADD10C,0.150000*%
G04 APERTURE END LIST*
D10*
X179701649Y-60544152D02*
X179701649Y-61353676D01*
X179701649Y-61353676D02*
X179749268Y-61448914D01*
X179749268Y-61448914D02*
X179796887Y-61496533D01*
X179796887Y-61496533D02*
X179892125Y-61544152D01*
X179892125Y-61544152D02*
X180034982Y-61544152D01*
X180034982Y-61544152D02*
X180130220Y-61496533D01*
X179701649Y-61163200D02*
X179796887Y-61210819D01*
X179796887Y-61210819D02*
X179987363Y-61210819D01*
X179987363Y-61210819D02*
X180082601Y-61163200D01*
X180082601Y-61163200D02*
X180130220Y-61115580D01*
X180130220Y-61115580D02*
X180177839Y-61020342D01*
X180177839Y-61020342D02*
X180177839Y-60734628D01*
X180177839Y-60734628D02*
X180130220Y-60639390D01*
X180130220Y-60639390D02*
X180082601Y-60591771D01*
X180082601Y-60591771D02*
X179987363Y-60544152D01*
X179987363Y-60544152D02*
X179796887Y-60544152D01*
X179796887Y-60544152D02*
X179701649Y-60591771D01*
X179225458Y-61210819D02*
X179225458Y-60544152D01*
X179225458Y-60210819D02*
X179273077Y-60258438D01*
X179273077Y-60258438D02*
X179225458Y-60306057D01*
X179225458Y-60306057D02*
X179177839Y-60258438D01*
X179177839Y-60258438D02*
X179225458Y-60210819D01*
X179225458Y-60210819D02*
X179225458Y-60306057D01*
X178892125Y-60544152D02*
X178511173Y-60544152D01*
X178749268Y-60210819D02*
X178749268Y-61067961D01*
X178749268Y-61067961D02*
X178701649Y-61163200D01*
X178701649Y-61163200D02*
X178606411Y-61210819D01*
X178606411Y-61210819D02*
X178511173Y-61210819D01*
X178177839Y-61210819D02*
X178177839Y-60210819D01*
X177749268Y-61210819D02*
X177749268Y-60687009D01*
X177749268Y-60687009D02*
X177796887Y-60591771D01*
X177796887Y-60591771D02*
X177892125Y-60544152D01*
X177892125Y-60544152D02*
X178034982Y-60544152D01*
X178034982Y-60544152D02*
X178130220Y-60591771D01*
X178130220Y-60591771D02*
X178177839Y-60639390D01*
X176844506Y-60544152D02*
X176844506Y-61210819D01*
X177273077Y-60544152D02*
X177273077Y-61067961D01*
X177273077Y-61067961D02*
X177225458Y-61163200D01*
X177225458Y-61163200D02*
X177130220Y-61210819D01*
X177130220Y-61210819D02*
X176987363Y-61210819D01*
X176987363Y-61210819D02*
X176892125Y-61163200D01*
X176892125Y-61163200D02*
X176844506Y-61115580D01*
X176368315Y-61210819D02*
X176368315Y-60210819D01*
X176368315Y-60591771D02*
X176273077Y-60544152D01*
X176273077Y-60544152D02*
X176082601Y-60544152D01*
X176082601Y-60544152D02*
X175987363Y-60591771D01*
X175987363Y-60591771D02*
X175939744Y-60639390D01*
X175939744Y-60639390D02*
X175892125Y-60734628D01*
X175892125Y-60734628D02*
X175892125Y-61020342D01*
X175892125Y-61020342D02*
X175939744Y-61115580D01*
X175939744Y-61115580D02*
X175987363Y-61163200D01*
X175987363Y-61163200D02*
X176082601Y-61210819D01*
X176082601Y-61210819D02*
X176273077Y-61210819D01*
X176273077Y-61210819D02*
X176368315Y-61163200D01*
X175463553Y-61115580D02*
X175415934Y-61163200D01*
X175415934Y-61163200D02*
X175463553Y-61210819D01*
X175463553Y-61210819D02*
X175511172Y-61163200D01*
X175511172Y-61163200D02*
X175463553Y-61115580D01*
X175463553Y-61115580D02*
X175463553Y-61210819D01*
X174558792Y-61163200D02*
X174654030Y-61210819D01*
X174654030Y-61210819D02*
X174844506Y-61210819D01*
X174844506Y-61210819D02*
X174939744Y-61163200D01*
X174939744Y-61163200D02*
X174987363Y-61115580D01*
X174987363Y-61115580D02*
X175034982Y-61020342D01*
X175034982Y-61020342D02*
X175034982Y-60734628D01*
X175034982Y-60734628D02*
X174987363Y-60639390D01*
X174987363Y-60639390D02*
X174939744Y-60591771D01*
X174939744Y-60591771D02*
X174844506Y-60544152D01*
X174844506Y-60544152D02*
X174654030Y-60544152D01*
X174654030Y-60544152D02*
X174558792Y-60591771D01*
X173987363Y-61210819D02*
X174082601Y-61163200D01*
X174082601Y-61163200D02*
X174130220Y-61115580D01*
X174130220Y-61115580D02*
X174177839Y-61020342D01*
X174177839Y-61020342D02*
X174177839Y-60734628D01*
X174177839Y-60734628D02*
X174130220Y-60639390D01*
X174130220Y-60639390D02*
X174082601Y-60591771D01*
X174082601Y-60591771D02*
X173987363Y-60544152D01*
X173987363Y-60544152D02*
X173844506Y-60544152D01*
X173844506Y-60544152D02*
X173749268Y-60591771D01*
X173749268Y-60591771D02*
X173701649Y-60639390D01*
X173701649Y-60639390D02*
X173654030Y-60734628D01*
X173654030Y-60734628D02*
X173654030Y-61020342D01*
X173654030Y-61020342D02*
X173701649Y-61115580D01*
X173701649Y-61115580D02*
X173749268Y-61163200D01*
X173749268Y-61163200D02*
X173844506Y-61210819D01*
X173844506Y-61210819D02*
X173987363Y-61210819D01*
X173225458Y-61210819D02*
X173225458Y-60544152D01*
X173225458Y-60639390D02*
X173177839Y-60591771D01*
X173177839Y-60591771D02*
X173082601Y-60544152D01*
X173082601Y-60544152D02*
X172939744Y-60544152D01*
X172939744Y-60544152D02*
X172844506Y-60591771D01*
X172844506Y-60591771D02*
X172796887Y-60687009D01*
X172796887Y-60687009D02*
X172796887Y-61210819D01*
X172796887Y-60687009D02*
X172749268Y-60591771D01*
X172749268Y-60591771D02*
X172654030Y-60544152D01*
X172654030Y-60544152D02*
X172511173Y-60544152D01*
X172511173Y-60544152D02*
X172415934Y-60591771D01*
X172415934Y-60591771D02*
X172368315Y-60687009D01*
X172368315Y-60687009D02*
X172368315Y-61210819D01*
X171177840Y-60163200D02*
X172034982Y-61448914D01*
X170415935Y-61210819D02*
X170415935Y-60210819D01*
X170415935Y-61163200D02*
X170511173Y-61210819D01*
X170511173Y-61210819D02*
X170701649Y-61210819D01*
X170701649Y-61210819D02*
X170796887Y-61163200D01*
X170796887Y-61163200D02*
X170844506Y-61115580D01*
X170844506Y-61115580D02*
X170892125Y-61020342D01*
X170892125Y-61020342D02*
X170892125Y-60734628D01*
X170892125Y-60734628D02*
X170844506Y-60639390D01*
X170844506Y-60639390D02*
X170796887Y-60591771D01*
X170796887Y-60591771D02*
X170701649Y-60544152D01*
X170701649Y-60544152D02*
X170511173Y-60544152D01*
X170511173Y-60544152D02*
X170415935Y-60591771D01*
X169939744Y-60544152D02*
X169939744Y-61401295D01*
X169939744Y-61401295D02*
X169987363Y-61496533D01*
X169987363Y-61496533D02*
X170082601Y-61544152D01*
X170082601Y-61544152D02*
X170130220Y-61544152D01*
X169939744Y-60210819D02*
X169987363Y-60258438D01*
X169987363Y-60258438D02*
X169939744Y-60306057D01*
X169939744Y-60306057D02*
X169892125Y-60258438D01*
X169892125Y-60258438D02*
X169939744Y-60210819D01*
X169939744Y-60210819D02*
X169939744Y-60306057D01*
X169606411Y-60544152D02*
X169225459Y-60544152D01*
X169463554Y-60210819D02*
X169463554Y-61067961D01*
X169463554Y-61067961D02*
X169415935Y-61163200D01*
X169415935Y-61163200D02*
X169320697Y-61210819D01*
X169320697Y-61210819D02*
X169225459Y-61210819D01*
X168511173Y-61163200D02*
X168606411Y-61210819D01*
X168606411Y-61210819D02*
X168796887Y-61210819D01*
X168796887Y-61210819D02*
X168892125Y-61163200D01*
X168892125Y-61163200D02*
X168939744Y-61067961D01*
X168939744Y-61067961D02*
X168939744Y-60687009D01*
X168939744Y-60687009D02*
X168892125Y-60591771D01*
X168892125Y-60591771D02*
X168796887Y-60544152D01*
X168796887Y-60544152D02*
X168606411Y-60544152D01*
X168606411Y-60544152D02*
X168511173Y-60591771D01*
X168511173Y-60591771D02*
X168463554Y-60687009D01*
X168463554Y-60687009D02*
X168463554Y-60782247D01*
X168463554Y-60782247D02*
X168939744Y-60877485D01*
X168034982Y-61210819D02*
X168034982Y-60544152D01*
X168034982Y-60734628D02*
X167987363Y-60639390D01*
X167987363Y-60639390D02*
X167939744Y-60591771D01*
X167939744Y-60591771D02*
X167844506Y-60544152D01*
X167844506Y-60544152D02*
X167749268Y-60544152D01*
X167463553Y-61163200D02*
X167368315Y-61210819D01*
X167368315Y-61210819D02*
X167177839Y-61210819D01*
X167177839Y-61210819D02*
X167082601Y-61163200D01*
X167082601Y-61163200D02*
X167034982Y-61067961D01*
X167034982Y-61067961D02*
X167034982Y-61020342D01*
X167034982Y-61020342D02*
X167082601Y-60925104D01*
X167082601Y-60925104D02*
X167177839Y-60877485D01*
X167177839Y-60877485D02*
X167320696Y-60877485D01*
X167320696Y-60877485D02*
X167415934Y-60829866D01*
X167415934Y-60829866D02*
X167463553Y-60734628D01*
X167463553Y-60734628D02*
X167463553Y-60687009D01*
X167463553Y-60687009D02*
X167415934Y-60591771D01*
X167415934Y-60591771D02*
X167320696Y-60544152D01*
X167320696Y-60544152D02*
X167177839Y-60544152D01*
X167177839Y-60544152D02*
X167082601Y-60591771D01*
X166749267Y-60544152D02*
X166368315Y-60544152D01*
X166606410Y-60210819D02*
X166606410Y-61067961D01*
X166606410Y-61067961D02*
X166558791Y-61163200D01*
X166558791Y-61163200D02*
X166463553Y-61210819D01*
X166463553Y-61210819D02*
X166368315Y-61210819D01*
X165654029Y-61163200D02*
X165749267Y-61210819D01*
X165749267Y-61210819D02*
X165939743Y-61210819D01*
X165939743Y-61210819D02*
X166034981Y-61163200D01*
X166034981Y-61163200D02*
X166082600Y-61067961D01*
X166082600Y-61067961D02*
X166082600Y-60687009D01*
X166082600Y-60687009D02*
X166034981Y-60591771D01*
X166034981Y-60591771D02*
X165939743Y-60544152D01*
X165939743Y-60544152D02*
X165749267Y-60544152D01*
X165749267Y-60544152D02*
X165654029Y-60591771D01*
X165654029Y-60591771D02*
X165606410Y-60687009D01*
X165606410Y-60687009D02*
X165606410Y-60782247D01*
X165606410Y-60782247D02*
X166082600Y-60877485D01*
X164796886Y-61163200D02*
X164892124Y-61210819D01*
X164892124Y-61210819D02*
X165082600Y-61210819D01*
X165082600Y-61210819D02*
X165177838Y-61163200D01*
X165177838Y-61163200D02*
X165225457Y-61067961D01*
X165225457Y-61067961D02*
X165225457Y-60687009D01*
X165225457Y-60687009D02*
X165177838Y-60591771D01*
X165177838Y-60591771D02*
X165082600Y-60544152D01*
X165082600Y-60544152D02*
X164892124Y-60544152D01*
X164892124Y-60544152D02*
X164796886Y-60591771D01*
X164796886Y-60591771D02*
X164749267Y-60687009D01*
X164749267Y-60687009D02*
X164749267Y-60782247D01*
X164749267Y-60782247D02*
X165225457Y-60877485D01*
X163892124Y-60544152D02*
X163892124Y-61353676D01*
X163892124Y-61353676D02*
X163939743Y-61448914D01*
X163939743Y-61448914D02*
X163987362Y-61496533D01*
X163987362Y-61496533D02*
X164082600Y-61544152D01*
X164082600Y-61544152D02*
X164225457Y-61544152D01*
X164225457Y-61544152D02*
X164320695Y-61496533D01*
X163892124Y-61163200D02*
X163987362Y-61210819D01*
X163987362Y-61210819D02*
X164177838Y-61210819D01*
X164177838Y-61210819D02*
X164273076Y-61163200D01*
X164273076Y-61163200D02*
X164320695Y-61115580D01*
X164320695Y-61115580D02*
X164368314Y-61020342D01*
X164368314Y-61020342D02*
X164368314Y-60734628D01*
X164368314Y-60734628D02*
X164320695Y-60639390D01*
X164320695Y-60639390D02*
X164273076Y-60591771D01*
X164273076Y-60591771D02*
X164177838Y-60544152D01*
X164177838Y-60544152D02*
X163987362Y-60544152D01*
X163987362Y-60544152D02*
X163892124Y-60591771D01*
X162987362Y-61163200D02*
X163082600Y-61210819D01*
X163082600Y-61210819D02*
X163273076Y-61210819D01*
X163273076Y-61210819D02*
X163368314Y-61163200D01*
X163368314Y-61163200D02*
X163415933Y-61115580D01*
X163415933Y-61115580D02*
X163463552Y-61020342D01*
X163463552Y-61020342D02*
X163463552Y-60734628D01*
X163463552Y-60734628D02*
X163415933Y-60639390D01*
X163415933Y-60639390D02*
X163368314Y-60591771D01*
X163368314Y-60591771D02*
X163273076Y-60544152D01*
X163273076Y-60544152D02*
X163082600Y-60544152D01*
X163082600Y-60544152D02*
X162987362Y-60591771D01*
X161844505Y-60163200D02*
X162701647Y-61448914D01*
X161606409Y-60210819D02*
X160939743Y-61210819D01*
X160939743Y-60210819D02*
X161606409Y-61210819D01*
X160177838Y-61163200D02*
X160273076Y-61210819D01*
X160273076Y-61210819D02*
X160463552Y-61210819D01*
X160463552Y-61210819D02*
X160558790Y-61163200D01*
X160558790Y-61163200D02*
X160606409Y-61067961D01*
X160606409Y-61067961D02*
X160606409Y-60687009D01*
X160606409Y-60687009D02*
X160558790Y-60591771D01*
X160558790Y-60591771D02*
X160463552Y-60544152D01*
X160463552Y-60544152D02*
X160273076Y-60544152D01*
X160273076Y-60544152D02*
X160177838Y-60591771D01*
X160177838Y-60591771D02*
X160130219Y-60687009D01*
X160130219Y-60687009D02*
X160130219Y-60782247D01*
X160130219Y-60782247D02*
X160606409Y-60877485D01*
X159701647Y-61210819D02*
X159701647Y-60544152D01*
X159701647Y-60734628D02*
X159654028Y-60639390D01*
X159654028Y-60639390D02*
X159606409Y-60591771D01*
X159606409Y-60591771D02*
X159511171Y-60544152D01*
X159511171Y-60544152D02*
X159415933Y-60544152D01*
X158939742Y-61210819D02*
X159034980Y-61163200D01*
X159034980Y-61163200D02*
X159082599Y-61115580D01*
X159082599Y-61115580D02*
X159130218Y-61020342D01*
X159130218Y-61020342D02*
X159130218Y-60734628D01*
X159130218Y-60734628D02*
X159082599Y-60639390D01*
X159082599Y-60639390D02*
X159034980Y-60591771D01*
X159034980Y-60591771D02*
X158939742Y-60544152D01*
X158939742Y-60544152D02*
X158796885Y-60544152D01*
X158796885Y-60544152D02*
X158701647Y-60591771D01*
X158701647Y-60591771D02*
X158654028Y-60639390D01*
X158654028Y-60639390D02*
X158606409Y-60734628D01*
X158606409Y-60734628D02*
X158606409Y-61020342D01*
X158606409Y-61020342D02*
X158654028Y-61115580D01*
X158654028Y-61115580D02*
X158701647Y-61163200D01*
X158701647Y-61163200D02*
X158796885Y-61210819D01*
X158796885Y-61210819D02*
X158939742Y-61210819D01*
X158273075Y-61210819D02*
X157749266Y-60544152D01*
X158273075Y-60544152D02*
X157749266Y-61210819D01*
X157368313Y-60829866D02*
X156606409Y-60829866D01*
X155987361Y-60639390D02*
X156082599Y-60591771D01*
X156082599Y-60591771D02*
X156130218Y-60544152D01*
X156130218Y-60544152D02*
X156177837Y-60448914D01*
X156177837Y-60448914D02*
X156177837Y-60401295D01*
X156177837Y-60401295D02*
X156130218Y-60306057D01*
X156130218Y-60306057D02*
X156082599Y-60258438D01*
X156082599Y-60258438D02*
X155987361Y-60210819D01*
X155987361Y-60210819D02*
X155796885Y-60210819D01*
X155796885Y-60210819D02*
X155701647Y-60258438D01*
X155701647Y-60258438D02*
X155654028Y-60306057D01*
X155654028Y-60306057D02*
X155606409Y-60401295D01*
X155606409Y-60401295D02*
X155606409Y-60448914D01*
X155606409Y-60448914D02*
X155654028Y-60544152D01*
X155654028Y-60544152D02*
X155701647Y-60591771D01*
X155701647Y-60591771D02*
X155796885Y-60639390D01*
X155796885Y-60639390D02*
X155987361Y-60639390D01*
X155987361Y-60639390D02*
X156082599Y-60687009D01*
X156082599Y-60687009D02*
X156130218Y-60734628D01*
X156130218Y-60734628D02*
X156177837Y-60829866D01*
X156177837Y-60829866D02*
X156177837Y-61020342D01*
X156177837Y-61020342D02*
X156130218Y-61115580D01*
X156130218Y-61115580D02*
X156082599Y-61163200D01*
X156082599Y-61163200D02*
X155987361Y-61210819D01*
X155987361Y-61210819D02*
X155796885Y-61210819D01*
X155796885Y-61210819D02*
X155701647Y-61163200D01*
X155701647Y-61163200D02*
X155654028Y-61115580D01*
X155654028Y-61115580D02*
X155606409Y-61020342D01*
X155606409Y-61020342D02*
X155606409Y-60829866D01*
X155606409Y-60829866D02*
X155654028Y-60734628D01*
X155654028Y-60734628D02*
X155701647Y-60687009D01*
X155701647Y-60687009D02*
X155796885Y-60639390D01*
X155225456Y-60306057D02*
X155177837Y-60258438D01*
X155177837Y-60258438D02*
X155082599Y-60210819D01*
X155082599Y-60210819D02*
X154844504Y-60210819D01*
X154844504Y-60210819D02*
X154749266Y-60258438D01*
X154749266Y-60258438D02*
X154701647Y-60306057D01*
X154701647Y-60306057D02*
X154654028Y-60401295D01*
X154654028Y-60401295D02*
X154654028Y-60496533D01*
X154654028Y-60496533D02*
X154701647Y-60639390D01*
X154701647Y-60639390D02*
X155273075Y-61210819D01*
X155273075Y-61210819D02*
X154654028Y-61210819D01*
X154034980Y-60210819D02*
X153939742Y-60210819D01*
X153939742Y-60210819D02*
X153844504Y-60258438D01*
X153844504Y-60258438D02*
X153796885Y-60306057D01*
X153796885Y-60306057D02*
X153749266Y-60401295D01*
X153749266Y-60401295D02*
X153701647Y-60591771D01*
X153701647Y-60591771D02*
X153701647Y-60829866D01*
X153701647Y-60829866D02*
X153749266Y-61020342D01*
X153749266Y-61020342D02*
X153796885Y-61115580D01*
X153796885Y-61115580D02*
X153844504Y-61163200D01*
X153844504Y-61163200D02*
X153939742Y-61210819D01*
X153939742Y-61210819D02*
X154034980Y-61210819D01*
X154034980Y-61210819D02*
X154130218Y-61163200D01*
X154130218Y-61163200D02*
X154177837Y-61115580D01*
X154177837Y-61115580D02*
X154225456Y-61020342D01*
X154225456Y-61020342D02*
X154273075Y-60829866D01*
X154273075Y-60829866D02*
X154273075Y-60591771D01*
X154273075Y-60591771D02*
X154225456Y-60401295D01*
X154225456Y-60401295D02*
X154177837Y-60306057D01*
X154177837Y-60306057D02*
X154130218Y-60258438D01*
X154130218Y-60258438D02*
X154034980Y-60210819D01*
X153273075Y-60829866D02*
X152511171Y-60829866D01*
X152034980Y-61210819D02*
X152034980Y-60210819D01*
X152034980Y-60210819D02*
X151654028Y-60210819D01*
X151654028Y-60210819D02*
X151558790Y-60258438D01*
X151558790Y-60258438D02*
X151511171Y-60306057D01*
X151511171Y-60306057D02*
X151463552Y-60401295D01*
X151463552Y-60401295D02*
X151463552Y-60544152D01*
X151463552Y-60544152D02*
X151511171Y-60639390D01*
X151511171Y-60639390D02*
X151558790Y-60687009D01*
X151558790Y-60687009D02*
X151654028Y-60734628D01*
X151654028Y-60734628D02*
X152034980Y-60734628D01*
X151034980Y-61210819D02*
X151034980Y-60544152D01*
X151034980Y-60734628D02*
X150987361Y-60639390D01*
X150987361Y-60639390D02*
X150939742Y-60591771D01*
X150939742Y-60591771D02*
X150844504Y-60544152D01*
X150844504Y-60544152D02*
X150749266Y-60544152D01*
X150273075Y-61210819D02*
X150368313Y-61163200D01*
X150368313Y-61163200D02*
X150415932Y-61115580D01*
X150415932Y-61115580D02*
X150463551Y-61020342D01*
X150463551Y-61020342D02*
X150463551Y-60734628D01*
X150463551Y-60734628D02*
X150415932Y-60639390D01*
X150415932Y-60639390D02*
X150368313Y-60591771D01*
X150368313Y-60591771D02*
X150273075Y-60544152D01*
X150273075Y-60544152D02*
X150130218Y-60544152D01*
X150130218Y-60544152D02*
X150034980Y-60591771D01*
X150034980Y-60591771D02*
X149987361Y-60639390D01*
X149987361Y-60639390D02*
X149939742Y-60734628D01*
X149939742Y-60734628D02*
X149939742Y-61020342D01*
X149939742Y-61020342D02*
X149987361Y-61115580D01*
X149987361Y-61115580D02*
X150034980Y-61163200D01*
X150034980Y-61163200D02*
X150130218Y-61210819D01*
X150130218Y-61210819D02*
X150273075Y-61210819D01*
X149511170Y-60544152D02*
X149511170Y-61401295D01*
X149511170Y-61401295D02*
X149558789Y-61496533D01*
X149558789Y-61496533D02*
X149654027Y-61544152D01*
X149654027Y-61544152D02*
X149701646Y-61544152D01*
X149511170Y-60210819D02*
X149558789Y-60258438D01*
X149558789Y-60258438D02*
X149511170Y-60306057D01*
X149511170Y-60306057D02*
X149463551Y-60258438D01*
X149463551Y-60258438D02*
X149511170Y-60210819D01*
X149511170Y-60210819D02*
X149511170Y-60306057D01*
X148654028Y-61163200D02*
X148749266Y-61210819D01*
X148749266Y-61210819D02*
X148939742Y-61210819D01*
X148939742Y-61210819D02*
X149034980Y-61163200D01*
X149034980Y-61163200D02*
X149082599Y-61067961D01*
X149082599Y-61067961D02*
X149082599Y-60687009D01*
X149082599Y-60687009D02*
X149034980Y-60591771D01*
X149034980Y-60591771D02*
X148939742Y-60544152D01*
X148939742Y-60544152D02*
X148749266Y-60544152D01*
X148749266Y-60544152D02*
X148654028Y-60591771D01*
X148654028Y-60591771D02*
X148606409Y-60687009D01*
X148606409Y-60687009D02*
X148606409Y-60782247D01*
X148606409Y-60782247D02*
X149082599Y-60877485D01*
X147749266Y-61163200D02*
X147844504Y-61210819D01*
X147844504Y-61210819D02*
X148034980Y-61210819D01*
X148034980Y-61210819D02*
X148130218Y-61163200D01*
X148130218Y-61163200D02*
X148177837Y-61115580D01*
X148177837Y-61115580D02*
X148225456Y-61020342D01*
X148225456Y-61020342D02*
X148225456Y-60734628D01*
X148225456Y-60734628D02*
X148177837Y-60639390D01*
X148177837Y-60639390D02*
X148130218Y-60591771D01*
X148130218Y-60591771D02*
X148034980Y-60544152D01*
X148034980Y-60544152D02*
X147844504Y-60544152D01*
X147844504Y-60544152D02*
X147749266Y-60591771D01*
X147463551Y-60544152D02*
X147082599Y-60544152D01*
X147320694Y-60210819D02*
X147320694Y-61067961D01*
X147320694Y-61067961D02*
X147273075Y-61163200D01*
X147273075Y-61163200D02*
X147177837Y-61210819D01*
X147177837Y-61210819D02*
X147082599Y-61210819D01*
X146796884Y-61163200D02*
X146701646Y-61210819D01*
X146701646Y-61210819D02*
X146511170Y-61210819D01*
X146511170Y-61210819D02*
X146415932Y-61163200D01*
X146415932Y-61163200D02*
X146368313Y-61067961D01*
X146368313Y-61067961D02*
X146368313Y-61020342D01*
X146368313Y-61020342D02*
X146415932Y-60925104D01*
X146415932Y-60925104D02*
X146511170Y-60877485D01*
X146511170Y-60877485D02*
X146654027Y-60877485D01*
X146654027Y-60877485D02*
X146749265Y-60829866D01*
X146749265Y-60829866D02*
X146796884Y-60734628D01*
X146796884Y-60734628D02*
X146796884Y-60687009D01*
X146796884Y-60687009D02*
X146749265Y-60591771D01*
X146749265Y-60591771D02*
X146654027Y-60544152D01*
X146654027Y-60544152D02*
X146511170Y-60544152D01*
X146511170Y-60544152D02*
X146415932Y-60591771D01*
X174885477Y-55933875D02*
X174218811Y-56933875D01*
X174218811Y-55933875D02*
X174885477Y-56933875D01*
X173456906Y-56886256D02*
X173552144Y-56933875D01*
X173552144Y-56933875D02*
X173742620Y-56933875D01*
X173742620Y-56933875D02*
X173837858Y-56886256D01*
X173837858Y-56886256D02*
X173885477Y-56791017D01*
X173885477Y-56791017D02*
X173885477Y-56410065D01*
X173885477Y-56410065D02*
X173837858Y-56314827D01*
X173837858Y-56314827D02*
X173742620Y-56267208D01*
X173742620Y-56267208D02*
X173552144Y-56267208D01*
X173552144Y-56267208D02*
X173456906Y-56314827D01*
X173456906Y-56314827D02*
X173409287Y-56410065D01*
X173409287Y-56410065D02*
X173409287Y-56505303D01*
X173409287Y-56505303D02*
X173885477Y-56600541D01*
X172980715Y-56933875D02*
X172980715Y-56267208D01*
X172980715Y-56457684D02*
X172933096Y-56362446D01*
X172933096Y-56362446D02*
X172885477Y-56314827D01*
X172885477Y-56314827D02*
X172790239Y-56267208D01*
X172790239Y-56267208D02*
X172695001Y-56267208D01*
X172218810Y-56933875D02*
X172314048Y-56886256D01*
X172314048Y-56886256D02*
X172361667Y-56838636D01*
X172361667Y-56838636D02*
X172409286Y-56743398D01*
X172409286Y-56743398D02*
X172409286Y-56457684D01*
X172409286Y-56457684D02*
X172361667Y-56362446D01*
X172361667Y-56362446D02*
X172314048Y-56314827D01*
X172314048Y-56314827D02*
X172218810Y-56267208D01*
X172218810Y-56267208D02*
X172075953Y-56267208D01*
X172075953Y-56267208D02*
X171980715Y-56314827D01*
X171980715Y-56314827D02*
X171933096Y-56362446D01*
X171933096Y-56362446D02*
X171885477Y-56457684D01*
X171885477Y-56457684D02*
X171885477Y-56743398D01*
X171885477Y-56743398D02*
X171933096Y-56838636D01*
X171933096Y-56838636D02*
X171980715Y-56886256D01*
X171980715Y-56886256D02*
X172075953Y-56933875D01*
X172075953Y-56933875D02*
X172218810Y-56933875D01*
X171552143Y-56933875D02*
X171028334Y-56267208D01*
X171552143Y-56267208D02*
X171028334Y-56933875D01*
X169742619Y-56362446D02*
X169837857Y-56314827D01*
X169837857Y-56314827D02*
X169885476Y-56267208D01*
X169885476Y-56267208D02*
X169933095Y-56171970D01*
X169933095Y-56171970D02*
X169933095Y-56124351D01*
X169933095Y-56124351D02*
X169885476Y-56029113D01*
X169885476Y-56029113D02*
X169837857Y-55981494D01*
X169837857Y-55981494D02*
X169742619Y-55933875D01*
X169742619Y-55933875D02*
X169552143Y-55933875D01*
X169552143Y-55933875D02*
X169456905Y-55981494D01*
X169456905Y-55981494D02*
X169409286Y-56029113D01*
X169409286Y-56029113D02*
X169361667Y-56124351D01*
X169361667Y-56124351D02*
X169361667Y-56171970D01*
X169361667Y-56171970D02*
X169409286Y-56267208D01*
X169409286Y-56267208D02*
X169456905Y-56314827D01*
X169456905Y-56314827D02*
X169552143Y-56362446D01*
X169552143Y-56362446D02*
X169742619Y-56362446D01*
X169742619Y-56362446D02*
X169837857Y-56410065D01*
X169837857Y-56410065D02*
X169885476Y-56457684D01*
X169885476Y-56457684D02*
X169933095Y-56552922D01*
X169933095Y-56552922D02*
X169933095Y-56743398D01*
X169933095Y-56743398D02*
X169885476Y-56838636D01*
X169885476Y-56838636D02*
X169837857Y-56886256D01*
X169837857Y-56886256D02*
X169742619Y-56933875D01*
X169742619Y-56933875D02*
X169552143Y-56933875D01*
X169552143Y-56933875D02*
X169456905Y-56886256D01*
X169456905Y-56886256D02*
X169409286Y-56838636D01*
X169409286Y-56838636D02*
X169361667Y-56743398D01*
X169361667Y-56743398D02*
X169361667Y-56552922D01*
X169361667Y-56552922D02*
X169409286Y-56457684D01*
X169409286Y-56457684D02*
X169456905Y-56410065D01*
X169456905Y-56410065D02*
X169552143Y-56362446D01*
X168980714Y-56029113D02*
X168933095Y-55981494D01*
X168933095Y-55981494D02*
X168837857Y-55933875D01*
X168837857Y-55933875D02*
X168599762Y-55933875D01*
X168599762Y-55933875D02*
X168504524Y-55981494D01*
X168504524Y-55981494D02*
X168456905Y-56029113D01*
X168456905Y-56029113D02*
X168409286Y-56124351D01*
X168409286Y-56124351D02*
X168409286Y-56219589D01*
X168409286Y-56219589D02*
X168456905Y-56362446D01*
X168456905Y-56362446D02*
X169028333Y-56933875D01*
X169028333Y-56933875D02*
X168409286Y-56933875D01*
X167790238Y-55933875D02*
X167695000Y-55933875D01*
X167695000Y-55933875D02*
X167599762Y-55981494D01*
X167599762Y-55981494D02*
X167552143Y-56029113D01*
X167552143Y-56029113D02*
X167504524Y-56124351D01*
X167504524Y-56124351D02*
X167456905Y-56314827D01*
X167456905Y-56314827D02*
X167456905Y-56552922D01*
X167456905Y-56552922D02*
X167504524Y-56743398D01*
X167504524Y-56743398D02*
X167552143Y-56838636D01*
X167552143Y-56838636D02*
X167599762Y-56886256D01*
X167599762Y-56886256D02*
X167695000Y-56933875D01*
X167695000Y-56933875D02*
X167790238Y-56933875D01*
X167790238Y-56933875D02*
X167885476Y-56886256D01*
X167885476Y-56886256D02*
X167933095Y-56838636D01*
X167933095Y-56838636D02*
X167980714Y-56743398D01*
X167980714Y-56743398D02*
X168028333Y-56552922D01*
X168028333Y-56552922D02*
X168028333Y-56314827D01*
X168028333Y-56314827D02*
X167980714Y-56124351D01*
X167980714Y-56124351D02*
X167933095Y-56029113D01*
X167933095Y-56029113D02*
X167885476Y-55981494D01*
X167885476Y-55981494D02*
X167790238Y-55933875D01*
X165933095Y-56410065D02*
X166266428Y-56410065D01*
X166266428Y-56933875D02*
X166266428Y-55933875D01*
X166266428Y-55933875D02*
X165790238Y-55933875D01*
X165266428Y-56933875D02*
X165361666Y-56886256D01*
X165361666Y-56886256D02*
X165409285Y-56791017D01*
X165409285Y-56791017D02*
X165409285Y-55933875D01*
X164742618Y-56933875D02*
X164837856Y-56886256D01*
X164837856Y-56886256D02*
X164885475Y-56838636D01*
X164885475Y-56838636D02*
X164933094Y-56743398D01*
X164933094Y-56743398D02*
X164933094Y-56457684D01*
X164933094Y-56457684D02*
X164885475Y-56362446D01*
X164885475Y-56362446D02*
X164837856Y-56314827D01*
X164837856Y-56314827D02*
X164742618Y-56267208D01*
X164742618Y-56267208D02*
X164599761Y-56267208D01*
X164599761Y-56267208D02*
X164504523Y-56314827D01*
X164504523Y-56314827D02*
X164456904Y-56362446D01*
X164456904Y-56362446D02*
X164409285Y-56457684D01*
X164409285Y-56457684D02*
X164409285Y-56743398D01*
X164409285Y-56743398D02*
X164456904Y-56838636D01*
X164456904Y-56838636D02*
X164504523Y-56886256D01*
X164504523Y-56886256D02*
X164599761Y-56933875D01*
X164599761Y-56933875D02*
X164742618Y-56933875D01*
X163980713Y-56267208D02*
X163980713Y-57267208D01*
X163980713Y-56314827D02*
X163885475Y-56267208D01*
X163885475Y-56267208D02*
X163694999Y-56267208D01*
X163694999Y-56267208D02*
X163599761Y-56314827D01*
X163599761Y-56314827D02*
X163552142Y-56362446D01*
X163552142Y-56362446D02*
X163504523Y-56457684D01*
X163504523Y-56457684D02*
X163504523Y-56743398D01*
X163504523Y-56743398D02*
X163552142Y-56838636D01*
X163552142Y-56838636D02*
X163599761Y-56886256D01*
X163599761Y-56886256D02*
X163694999Y-56933875D01*
X163694999Y-56933875D02*
X163885475Y-56933875D01*
X163885475Y-56933875D02*
X163980713Y-56886256D01*
X163075951Y-56267208D02*
X163075951Y-57267208D01*
X163075951Y-56314827D02*
X162980713Y-56267208D01*
X162980713Y-56267208D02*
X162790237Y-56267208D01*
X162790237Y-56267208D02*
X162694999Y-56314827D01*
X162694999Y-56314827D02*
X162647380Y-56362446D01*
X162647380Y-56362446D02*
X162599761Y-56457684D01*
X162599761Y-56457684D02*
X162599761Y-56743398D01*
X162599761Y-56743398D02*
X162647380Y-56838636D01*
X162647380Y-56838636D02*
X162694999Y-56886256D01*
X162694999Y-56886256D02*
X162790237Y-56933875D01*
X162790237Y-56933875D02*
X162980713Y-56933875D01*
X162980713Y-56933875D02*
X163075951Y-56886256D01*
X162266427Y-56267208D02*
X162028332Y-56933875D01*
X161790237Y-56267208D02*
X162028332Y-56933875D01*
X162028332Y-56933875D02*
X162123570Y-57171970D01*
X162123570Y-57171970D02*
X162171189Y-57219589D01*
X162171189Y-57219589D02*
X162266427Y-57267208D01*
X160694998Y-56648160D02*
X160218808Y-56648160D01*
X160790236Y-56933875D02*
X160456903Y-55933875D01*
X160456903Y-55933875D02*
X160123570Y-56933875D01*
X159361665Y-56933875D02*
X159361665Y-55933875D01*
X159361665Y-56886256D02*
X159456903Y-56933875D01*
X159456903Y-56933875D02*
X159647379Y-56933875D01*
X159647379Y-56933875D02*
X159742617Y-56886256D01*
X159742617Y-56886256D02*
X159790236Y-56838636D01*
X159790236Y-56838636D02*
X159837855Y-56743398D01*
X159837855Y-56743398D02*
X159837855Y-56457684D01*
X159837855Y-56457684D02*
X159790236Y-56362446D01*
X159790236Y-56362446D02*
X159742617Y-56314827D01*
X159742617Y-56314827D02*
X159647379Y-56267208D01*
X159647379Y-56267208D02*
X159456903Y-56267208D01*
X159456903Y-56267208D02*
X159361665Y-56314827D01*
X158456903Y-56933875D02*
X158456903Y-56410065D01*
X158456903Y-56410065D02*
X158504522Y-56314827D01*
X158504522Y-56314827D02*
X158599760Y-56267208D01*
X158599760Y-56267208D02*
X158790236Y-56267208D01*
X158790236Y-56267208D02*
X158885474Y-56314827D01*
X158456903Y-56886256D02*
X158552141Y-56933875D01*
X158552141Y-56933875D02*
X158790236Y-56933875D01*
X158790236Y-56933875D02*
X158885474Y-56886256D01*
X158885474Y-56886256D02*
X158933093Y-56791017D01*
X158933093Y-56791017D02*
X158933093Y-56695779D01*
X158933093Y-56695779D02*
X158885474Y-56600541D01*
X158885474Y-56600541D02*
X158790236Y-56552922D01*
X158790236Y-56552922D02*
X158552141Y-56552922D01*
X158552141Y-56552922D02*
X158456903Y-56505303D01*
X157980712Y-56267208D02*
X157980712Y-57267208D01*
X157980712Y-56314827D02*
X157885474Y-56267208D01*
X157885474Y-56267208D02*
X157694998Y-56267208D01*
X157694998Y-56267208D02*
X157599760Y-56314827D01*
X157599760Y-56314827D02*
X157552141Y-56362446D01*
X157552141Y-56362446D02*
X157504522Y-56457684D01*
X157504522Y-56457684D02*
X157504522Y-56743398D01*
X157504522Y-56743398D02*
X157552141Y-56838636D01*
X157552141Y-56838636D02*
X157599760Y-56886256D01*
X157599760Y-56886256D02*
X157694998Y-56933875D01*
X157694998Y-56933875D02*
X157885474Y-56933875D01*
X157885474Y-56933875D02*
X157980712Y-56886256D01*
X157218807Y-56267208D02*
X156837855Y-56267208D01*
X157075950Y-55933875D02*
X157075950Y-56791017D01*
X157075950Y-56791017D02*
X157028331Y-56886256D01*
X157028331Y-56886256D02*
X156933093Y-56933875D01*
X156933093Y-56933875D02*
X156837855Y-56933875D01*
X156123569Y-56886256D02*
X156218807Y-56933875D01*
X156218807Y-56933875D02*
X156409283Y-56933875D01*
X156409283Y-56933875D02*
X156504521Y-56886256D01*
X156504521Y-56886256D02*
X156552140Y-56791017D01*
X156552140Y-56791017D02*
X156552140Y-56410065D01*
X156552140Y-56410065D02*
X156504521Y-56314827D01*
X156504521Y-56314827D02*
X156409283Y-56267208D01*
X156409283Y-56267208D02*
X156218807Y-56267208D01*
X156218807Y-56267208D02*
X156123569Y-56314827D01*
X156123569Y-56314827D02*
X156075950Y-56410065D01*
X156075950Y-56410065D02*
X156075950Y-56505303D01*
X156075950Y-56505303D02*
X156552140Y-56600541D01*
X155647378Y-56933875D02*
X155647378Y-56267208D01*
X155647378Y-56457684D02*
X155599759Y-56362446D01*
X155599759Y-56362446D02*
X155552140Y-56314827D01*
X155552140Y-56314827D02*
X155456902Y-56267208D01*
X155456902Y-56267208D02*
X155361664Y-56267208D01*
X154361663Y-56267208D02*
X154123568Y-56933875D01*
X154123568Y-56933875D02*
X153885473Y-56267208D01*
X152980711Y-56933875D02*
X153552139Y-56933875D01*
X153266425Y-56933875D02*
X153266425Y-55933875D01*
X153266425Y-55933875D02*
X153361663Y-56076732D01*
X153361663Y-56076732D02*
X153456901Y-56171970D01*
X153456901Y-56171970D02*
X153552139Y-56219589D01*
X152552139Y-56838636D02*
X152504520Y-56886256D01*
X152504520Y-56886256D02*
X152552139Y-56933875D01*
X152552139Y-56933875D02*
X152599758Y-56886256D01*
X152599758Y-56886256D02*
X152552139Y-56838636D01*
X152552139Y-56838636D02*
X152552139Y-56933875D01*
X151885473Y-55933875D02*
X151790235Y-55933875D01*
X151790235Y-55933875D02*
X151694997Y-55981494D01*
X151694997Y-55981494D02*
X151647378Y-56029113D01*
X151647378Y-56029113D02*
X151599759Y-56124351D01*
X151599759Y-56124351D02*
X151552140Y-56314827D01*
X151552140Y-56314827D02*
X151552140Y-56552922D01*
X151552140Y-56552922D02*
X151599759Y-56743398D01*
X151599759Y-56743398D02*
X151647378Y-56838636D01*
X151647378Y-56838636D02*
X151694997Y-56886256D01*
X151694997Y-56886256D02*
X151790235Y-56933875D01*
X151790235Y-56933875D02*
X151885473Y-56933875D01*
X151885473Y-56933875D02*
X151980711Y-56886256D01*
X151980711Y-56886256D02*
X152028330Y-56838636D01*
X152028330Y-56838636D02*
X152075949Y-56743398D01*
X152075949Y-56743398D02*
X152123568Y-56552922D01*
X152123568Y-56552922D02*
X152123568Y-56314827D01*
X152123568Y-56314827D02*
X152075949Y-56124351D01*
X152075949Y-56124351D02*
X152028330Y-56029113D01*
X152028330Y-56029113D02*
X151980711Y-55981494D01*
X151980711Y-55981494D02*
X151885473Y-55933875D01*
X171456905Y-58543819D02*
X171456905Y-57543819D01*
X171456905Y-57543819D02*
X171075953Y-57543819D01*
X171075953Y-57543819D02*
X170980715Y-57591438D01*
X170980715Y-57591438D02*
X170933096Y-57639057D01*
X170933096Y-57639057D02*
X170885477Y-57734295D01*
X170885477Y-57734295D02*
X170885477Y-57877152D01*
X170885477Y-57877152D02*
X170933096Y-57972390D01*
X170933096Y-57972390D02*
X170980715Y-58020009D01*
X170980715Y-58020009D02*
X171075953Y-58067628D01*
X171075953Y-58067628D02*
X171456905Y-58067628D01*
X169885477Y-58448580D02*
X169933096Y-58496200D01*
X169933096Y-58496200D02*
X170075953Y-58543819D01*
X170075953Y-58543819D02*
X170171191Y-58543819D01*
X170171191Y-58543819D02*
X170314048Y-58496200D01*
X170314048Y-58496200D02*
X170409286Y-58400961D01*
X170409286Y-58400961D02*
X170456905Y-58305723D01*
X170456905Y-58305723D02*
X170504524Y-58115247D01*
X170504524Y-58115247D02*
X170504524Y-57972390D01*
X170504524Y-57972390D02*
X170456905Y-57781914D01*
X170456905Y-57781914D02*
X170409286Y-57686676D01*
X170409286Y-57686676D02*
X170314048Y-57591438D01*
X170314048Y-57591438D02*
X170171191Y-57543819D01*
X170171191Y-57543819D02*
X170075953Y-57543819D01*
X170075953Y-57543819D02*
X169933096Y-57591438D01*
X169933096Y-57591438D02*
X169885477Y-57639057D01*
X169123572Y-58020009D02*
X168980715Y-58067628D01*
X168980715Y-58067628D02*
X168933096Y-58115247D01*
X168933096Y-58115247D02*
X168885477Y-58210485D01*
X168885477Y-58210485D02*
X168885477Y-58353342D01*
X168885477Y-58353342D02*
X168933096Y-58448580D01*
X168933096Y-58448580D02*
X168980715Y-58496200D01*
X168980715Y-58496200D02*
X169075953Y-58543819D01*
X169075953Y-58543819D02*
X169456905Y-58543819D01*
X169456905Y-58543819D02*
X169456905Y-57543819D01*
X169456905Y-57543819D02*
X169123572Y-57543819D01*
X169123572Y-57543819D02*
X169028334Y-57591438D01*
X169028334Y-57591438D02*
X168980715Y-57639057D01*
X168980715Y-57639057D02*
X168933096Y-57734295D01*
X168933096Y-57734295D02*
X168933096Y-57829533D01*
X168933096Y-57829533D02*
X168980715Y-57924771D01*
X168980715Y-57924771D02*
X169028334Y-57972390D01*
X169028334Y-57972390D02*
X169123572Y-58020009D01*
X169123572Y-58020009D02*
X169456905Y-58020009D01*
X167695000Y-58543819D02*
X167695000Y-57543819D01*
X167695000Y-57924771D02*
X167599762Y-57877152D01*
X167599762Y-57877152D02*
X167409286Y-57877152D01*
X167409286Y-57877152D02*
X167314048Y-57924771D01*
X167314048Y-57924771D02*
X167266429Y-57972390D01*
X167266429Y-57972390D02*
X167218810Y-58067628D01*
X167218810Y-58067628D02*
X167218810Y-58353342D01*
X167218810Y-58353342D02*
X167266429Y-58448580D01*
X167266429Y-58448580D02*
X167314048Y-58496200D01*
X167314048Y-58496200D02*
X167409286Y-58543819D01*
X167409286Y-58543819D02*
X167599762Y-58543819D01*
X167599762Y-58543819D02*
X167695000Y-58496200D01*
X166885476Y-57877152D02*
X166647381Y-58543819D01*
X166409286Y-57877152D02*
X166647381Y-58543819D01*
X166647381Y-58543819D02*
X166742619Y-58781914D01*
X166742619Y-58781914D02*
X166790238Y-58829533D01*
X166790238Y-58829533D02*
X166885476Y-58877152D01*
X164695000Y-58448580D02*
X164742619Y-58496200D01*
X164742619Y-58496200D02*
X164885476Y-58543819D01*
X164885476Y-58543819D02*
X164980714Y-58543819D01*
X164980714Y-58543819D02*
X165123571Y-58496200D01*
X165123571Y-58496200D02*
X165218809Y-58400961D01*
X165218809Y-58400961D02*
X165266428Y-58305723D01*
X165266428Y-58305723D02*
X165314047Y-58115247D01*
X165314047Y-58115247D02*
X165314047Y-57972390D01*
X165314047Y-57972390D02*
X165266428Y-57781914D01*
X165266428Y-57781914D02*
X165218809Y-57686676D01*
X165218809Y-57686676D02*
X165123571Y-57591438D01*
X165123571Y-57591438D02*
X164980714Y-57543819D01*
X164980714Y-57543819D02*
X164885476Y-57543819D01*
X164885476Y-57543819D02*
X164742619Y-57591438D01*
X164742619Y-57591438D02*
X164695000Y-57639057D01*
X164266428Y-58543819D02*
X164266428Y-57543819D01*
X163837857Y-58543819D02*
X163837857Y-58020009D01*
X163837857Y-58020009D02*
X163885476Y-57924771D01*
X163885476Y-57924771D02*
X163980714Y-57877152D01*
X163980714Y-57877152D02*
X164123571Y-57877152D01*
X164123571Y-57877152D02*
X164218809Y-57924771D01*
X164218809Y-57924771D02*
X164266428Y-57972390D01*
X163361666Y-58543819D02*
X163361666Y-57877152D01*
X163361666Y-58067628D02*
X163314047Y-57972390D01*
X163314047Y-57972390D02*
X163266428Y-57924771D01*
X163266428Y-57924771D02*
X163171190Y-57877152D01*
X163171190Y-57877152D02*
X163075952Y-57877152D01*
X162742618Y-58543819D02*
X162742618Y-57877152D01*
X162742618Y-57543819D02*
X162790237Y-57591438D01*
X162790237Y-57591438D02*
X162742618Y-57639057D01*
X162742618Y-57639057D02*
X162694999Y-57591438D01*
X162694999Y-57591438D02*
X162742618Y-57543819D01*
X162742618Y-57543819D02*
X162742618Y-57639057D01*
X162314047Y-58496200D02*
X162218809Y-58543819D01*
X162218809Y-58543819D02*
X162028333Y-58543819D01*
X162028333Y-58543819D02*
X161933095Y-58496200D01*
X161933095Y-58496200D02*
X161885476Y-58400961D01*
X161885476Y-58400961D02*
X161885476Y-58353342D01*
X161885476Y-58353342D02*
X161933095Y-58258104D01*
X161933095Y-58258104D02*
X162028333Y-58210485D01*
X162028333Y-58210485D02*
X162171190Y-58210485D01*
X162171190Y-58210485D02*
X162266428Y-58162866D01*
X162266428Y-58162866D02*
X162314047Y-58067628D01*
X162314047Y-58067628D02*
X162314047Y-58020009D01*
X162314047Y-58020009D02*
X162266428Y-57924771D01*
X162266428Y-57924771D02*
X162171190Y-57877152D01*
X162171190Y-57877152D02*
X162028333Y-57877152D01*
X162028333Y-57877152D02*
X161933095Y-57924771D01*
X160837856Y-57543819D02*
X160266428Y-57543819D01*
X160552142Y-58543819D02*
X160552142Y-57543819D01*
X159552142Y-58496200D02*
X159647380Y-58543819D01*
X159647380Y-58543819D02*
X159837856Y-58543819D01*
X159837856Y-58543819D02*
X159933094Y-58496200D01*
X159933094Y-58496200D02*
X159980713Y-58400961D01*
X159980713Y-58400961D02*
X159980713Y-58020009D01*
X159980713Y-58020009D02*
X159933094Y-57924771D01*
X159933094Y-57924771D02*
X159837856Y-57877152D01*
X159837856Y-57877152D02*
X159647380Y-57877152D01*
X159647380Y-57877152D02*
X159552142Y-57924771D01*
X159552142Y-57924771D02*
X159504523Y-58020009D01*
X159504523Y-58020009D02*
X159504523Y-58115247D01*
X159504523Y-58115247D02*
X159980713Y-58210485D01*
X159075951Y-58543819D02*
X159075951Y-57877152D01*
X159075951Y-58067628D02*
X159028332Y-57972390D01*
X159028332Y-57972390D02*
X158980713Y-57924771D01*
X158980713Y-57924771D02*
X158885475Y-57877152D01*
X158885475Y-57877152D02*
X158790237Y-57877152D01*
X158504522Y-58496200D02*
X158409284Y-58543819D01*
X158409284Y-58543819D02*
X158218808Y-58543819D01*
X158218808Y-58543819D02*
X158123570Y-58496200D01*
X158123570Y-58496200D02*
X158075951Y-58400961D01*
X158075951Y-58400961D02*
X158075951Y-58353342D01*
X158075951Y-58353342D02*
X158123570Y-58258104D01*
X158123570Y-58258104D02*
X158218808Y-58210485D01*
X158218808Y-58210485D02*
X158361665Y-58210485D01*
X158361665Y-58210485D02*
X158456903Y-58162866D01*
X158456903Y-58162866D02*
X158504522Y-58067628D01*
X158504522Y-58067628D02*
X158504522Y-58020009D01*
X158504522Y-58020009D02*
X158456903Y-57924771D01*
X158456903Y-57924771D02*
X158361665Y-57877152D01*
X158361665Y-57877152D02*
X158218808Y-57877152D01*
X158218808Y-57877152D02*
X158123570Y-57924771D01*
X157790236Y-57877152D02*
X157409284Y-57877152D01*
X157647379Y-57543819D02*
X157647379Y-58400961D01*
X157647379Y-58400961D02*
X157599760Y-58496200D01*
X157599760Y-58496200D02*
X157504522Y-58543819D01*
X157504522Y-58543819D02*
X157409284Y-58543819D01*
X156694998Y-58496200D02*
X156790236Y-58543819D01*
X156790236Y-58543819D02*
X156980712Y-58543819D01*
X156980712Y-58543819D02*
X157075950Y-58496200D01*
X157075950Y-58496200D02*
X157123569Y-58400961D01*
X157123569Y-58400961D02*
X157123569Y-58020009D01*
X157123569Y-58020009D02*
X157075950Y-57924771D01*
X157075950Y-57924771D02*
X156980712Y-57877152D01*
X156980712Y-57877152D02*
X156790236Y-57877152D01*
X156790236Y-57877152D02*
X156694998Y-57924771D01*
X156694998Y-57924771D02*
X156647379Y-58020009D01*
X156647379Y-58020009D02*
X156647379Y-58115247D01*
X156647379Y-58115247D02*
X157123569Y-58210485D01*
X155837855Y-58496200D02*
X155933093Y-58543819D01*
X155933093Y-58543819D02*
X156123569Y-58543819D01*
X156123569Y-58543819D02*
X156218807Y-58496200D01*
X156218807Y-58496200D02*
X156266426Y-58400961D01*
X156266426Y-58400961D02*
X156266426Y-58020009D01*
X156266426Y-58020009D02*
X156218807Y-57924771D01*
X156218807Y-57924771D02*
X156123569Y-57877152D01*
X156123569Y-57877152D02*
X155933093Y-57877152D01*
X155933093Y-57877152D02*
X155837855Y-57924771D01*
X155837855Y-57924771D02*
X155790236Y-58020009D01*
X155790236Y-58020009D02*
X155790236Y-58115247D01*
X155790236Y-58115247D02*
X156266426Y-58210485D01*
X154933093Y-57877152D02*
X154933093Y-58686676D01*
X154933093Y-58686676D02*
X154980712Y-58781914D01*
X154980712Y-58781914D02*
X155028331Y-58829533D01*
X155028331Y-58829533D02*
X155123569Y-58877152D01*
X155123569Y-58877152D02*
X155266426Y-58877152D01*
X155266426Y-58877152D02*
X155361664Y-58829533D01*
X154933093Y-58496200D02*
X155028331Y-58543819D01*
X155028331Y-58543819D02*
X155218807Y-58543819D01*
X155218807Y-58543819D02*
X155314045Y-58496200D01*
X155314045Y-58496200D02*
X155361664Y-58448580D01*
X155361664Y-58448580D02*
X155409283Y-58353342D01*
X155409283Y-58353342D02*
X155409283Y-58067628D01*
X155409283Y-58067628D02*
X155361664Y-57972390D01*
X155361664Y-57972390D02*
X155314045Y-57924771D01*
X155314045Y-57924771D02*
X155218807Y-57877152D01*
X155218807Y-57877152D02*
X155028331Y-57877152D01*
X155028331Y-57877152D02*
X154933093Y-57924771D01*
M02*
