M48
; DRILL file {KiCad 8.0.7} date 2025-01-12T23:09:15-0600
; FORMAT={-:-/ absolute / inch / decimal}
; #@! TF.CreationDate,2025-01-12T23:09:15-06:00
; #@! TF.GenerationSoftware,Kicad,Pcbnew,8.0.7
; #@! TF.FileFunction,MixedPlating,1,2
FMAT,2
INCH
; #@! TA.AperFunction,Plated,PTH,ViaDrill
T1C0.0157
; #@! TA.AperFunction,Plated,PTH,ComponentDrill
T2C0.0394
%
G90
G05
T1
X5.55Y-2.275
X5.585Y-2.275
X5.62Y-2.275
X5.95Y-2.335
X6.05Y-2.335
X6.15Y-2.335
X6.255Y-2.335
X6.355Y-2.335
X6.45Y-2.335
X6.545Y-2.335
X6.645Y-2.335
X6.75Y-2.335
X6.845Y-2.335
T2
X5.65Y-2.5
X5.65Y-2.6
X5.75Y-2.5
X5.75Y-2.6
X5.85Y-2.5
X5.85Y-2.6
X5.95Y-2.5
X5.95Y-2.6
X6.05Y-2.5
X6.05Y-2.6
X6.15Y-2.5
X6.15Y-2.6
X6.25Y-2.5
X6.25Y-2.6
X6.35Y-2.5
X6.35Y-2.6
X6.45Y-2.5
X6.45Y-2.6
X6.55Y-2.5
X6.55Y-2.6
X6.65Y-2.5
X6.65Y-2.6
X6.75Y-2.5
X6.75Y-2.6
X6.85Y-2.5
X6.85Y-2.6
X6.95Y-2.5
X6.95Y-2.6
X6.98Y-2.275
X7.05Y-2.5
X7.05Y-2.6
X7.08Y-2.275
X7.15Y-2.5
X7.15Y-2.6
X7.25Y-2.5
X7.25Y-2.6
M30
