%TF.GenerationSoftware,KiCad,Pcbnew,8.0.7*%
%TF.CreationDate,2025-01-12T23:09:12-06:00*%
%TF.ProjectId,DB37-to-IDC34-Floppy-Adapter,44423337-2d74-46f2-9d49-444333342d46,v1.0*%
%TF.SameCoordinates,Original*%
%TF.FileFunction,Copper,L2,Bot*%
%TF.FilePolarity,Positive*%
%FSLAX46Y46*%
G04 Gerber Fmt 4.6, Leading zero omitted, Abs format (unit mm)*
G04 Created by KiCad (PCBNEW 8.0.7) date 2025-01-12 23:09:12*
%MOMM*%
%LPD*%
G01*
G04 APERTURE LIST*
G04 Aperture macros list*
%AMRoundRect*
0 Rectangle with rounded corners*
0 $1 Rounding radius*
0 $2 $3 $4 $5 $6 $7 $8 $9 X,Y pos of 4 corners*
0 Add a 4 corners polygon primitive as box body*
4,1,4,$2,$3,$4,$5,$6,$7,$8,$9,$2,$3,0*
0 Add four circle primitives for the rounded corners*
1,1,$1+$1,$2,$3*
1,1,$1+$1,$4,$5*
1,1,$1+$1,$6,$7*
1,1,$1+$1,$8,$9*
0 Add four rect primitives between the rounded corners*
20,1,$1+$1,$2,$3,$4,$5,0*
20,1,$1+$1,$4,$5,$6,$7,0*
20,1,$1+$1,$6,$7,$8,$9,0*
20,1,$1+$1,$8,$9,$2,$3,0*%
G04 Aperture macros list end*
%TA.AperFunction,ComponentPad*%
%ADD10RoundRect,0.250000X-0.600000X0.600000X-0.600000X-0.600000X0.600000X-0.600000X0.600000X0.600000X0*%
%TD*%
%TA.AperFunction,ComponentPad*%
%ADD11C,1.700000*%
%TD*%
%TA.AperFunction,ComponentPad*%
%ADD12R,1.700000X1.700000*%
%TD*%
%TA.AperFunction,ComponentPad*%
%ADD13O,1.700000X1.700000*%
%TD*%
%TA.AperFunction,SMDPad,CuDef*%
%ADD14R,1.846667X3.480000*%
%TD*%
%TA.AperFunction,ViaPad*%
%ADD15C,0.800000*%
%TD*%
%TA.AperFunction,Conductor*%
%ADD16C,0.600000*%
%TD*%
G04 APERTURE END LIST*
D10*
%TO.P,J1,1,Pin_1*%
%TO.N,GND*%
X184150000Y-63500000D03*
D11*
%TO.P,J1,2,Pin_2*%
%TO.N,/SEL_8_5*%
X184150000Y-66040000D03*
%TO.P,J1,3,Pin_3*%
%TO.N,GND*%
X181610000Y-63500000D03*
%TO.P,J1,4,Pin_4*%
%TO.N,unconnected-(J1-Pin_4-Pad4)*%
X181610000Y-66040000D03*
%TO.P,J1,5,Pin_5*%
%TO.N,GND*%
X179070000Y-63500000D03*
%TO.P,J1,6,Pin_6*%
%TO.N,Net-(J1-Pin_6)*%
X179070000Y-66040000D03*
%TO.P,J1,7,Pin_7*%
%TO.N,GND*%
X176530000Y-63500000D03*
%TO.P,J1,8,Pin_8*%
%TO.N,/INDEX*%
X176530000Y-66040000D03*
%TO.P,J1,9,Pin_9*%
%TO.N,GND*%
X173990000Y-63500000D03*
%TO.P,J1,10,Pin_10*%
%TO.N,/DVSEL1*%
X173990000Y-66040000D03*
%TO.P,J1,11,Pin_11*%
%TO.N,GND*%
X171450000Y-63500000D03*
%TO.P,J1,12,Pin_12*%
%TO.N,/DVSEL2*%
X171450000Y-66040000D03*
%TO.P,J1,13,Pin_13*%
%TO.N,GND*%
X168910000Y-63500000D03*
%TO.P,J1,14,Pin_14*%
%TO.N,unconnected-(J1-Pin_14-Pad14)*%
X168910000Y-66040000D03*
%TO.P,J1,15,Pin_15*%
%TO.N,GND*%
X166370000Y-63500000D03*
%TO.P,J1,16,Pin_16*%
%TO.N,/HEAD_LOAD*%
X166370000Y-66040000D03*
%TO.P,J1,17,Pin_17*%
%TO.N,GND*%
X163830000Y-63500000D03*
%TO.P,J1,18,Pin_18*%
%TO.N,/STEP_IN*%
X163830000Y-66040000D03*
%TO.P,J1,19,Pin_19*%
%TO.N,GND*%
X161290000Y-63500000D03*
%TO.P,J1,20,Pin_20*%
%TO.N,/STEP*%
X161290000Y-66040000D03*
%TO.P,J1,21,Pin_21*%
%TO.N,GND*%
X158750000Y-63500000D03*
%TO.P,J1,22,Pin_22*%
%TO.N,/WRT_DATA*%
X158750000Y-66040000D03*
%TO.P,J1,23,Pin_23*%
%TO.N,GND*%
X156210000Y-63500000D03*
%TO.P,J1,24,Pin_24*%
%TO.N,/WRITE*%
X156210000Y-66040000D03*
%TO.P,J1,25,Pin_25*%
%TO.N,GND*%
X153670000Y-63500000D03*
%TO.P,J1,26,Pin_26*%
%TO.N,/TRK00*%
X153670000Y-66040000D03*
%TO.P,J1,27,Pin_27*%
%TO.N,GND*%
X151130000Y-63500000D03*
%TO.P,J1,28,Pin_28*%
%TO.N,/WRT_PROTECT*%
X151130000Y-66040000D03*
%TO.P,J1,29,Pin_29*%
%TO.N,GND*%
X148590000Y-63500000D03*
%TO.P,J1,30,Pin_30*%
%TO.N,/RDDATA*%
X148590000Y-66040000D03*
%TO.P,J1,31,Pin_31*%
%TO.N,GND*%
X146050000Y-63500000D03*
%TO.P,J1,32,Pin_32*%
%TO.N,/SIDE*%
X146050000Y-66040000D03*
%TO.P,J1,33,Pin_33*%
%TO.N,GND*%
X143510000Y-63500000D03*
%TO.P,J1,34,Pin_34*%
%TO.N,/READY*%
X143510000Y-66040000D03*
%TD*%
D12*
%TO.P,J3,1,Pin_1*%
%TO.N,+5V*%
X177292000Y-57785000D03*
D13*
%TO.P,J3,2,Pin_2*%
%TO.N,GND*%
X179832000Y-57785000D03*
%TD*%
D14*
%TO.P,J2,20,20*%
%TO.N,GND*%
X187375000Y-53340000D03*
%TO.P,J2,21,21*%
X184605000Y-53340000D03*
%TO.P,J2,22,22*%
X181835000Y-53340000D03*
%TO.P,J2,23,23*%
X179065000Y-53340000D03*
%TO.P,J2,24,24*%
X176295000Y-53340000D03*
%TO.P,J2,25,25*%
X173525000Y-53340000D03*
%TO.P,J2,26,26*%
X170755000Y-53340000D03*
%TO.P,J2,27,27*%
X167985000Y-53340000D03*
%TO.P,J2,28,28*%
X165215000Y-53340000D03*
%TO.P,J2,29,29*%
X162445000Y-53340000D03*
%TO.P,J2,30,30*%
X159675000Y-53340000D03*
%TO.P,J2,31,31*%
X156905000Y-53340000D03*
%TO.P,J2,32,32*%
X154135000Y-53340000D03*
%TO.P,J2,33,33*%
X151365000Y-53340000D03*
%TO.P,J2,34,34*%
X148595000Y-53340000D03*
%TO.P,J2,35,35*%
X145825000Y-53340000D03*
%TO.P,J2,36,36*%
X143055000Y-53340000D03*
%TO.P,J2,37,37*%
X140285000Y-53340000D03*
%TD*%
D15*
%TO.N,GND*%
X161417000Y-59309000D03*
X151130000Y-59309000D03*
X166243000Y-59309000D03*
X168783000Y-59309000D03*
X171450000Y-59309000D03*
X156210000Y-59309000D03*
X163830000Y-59309000D03*
X173863000Y-59309000D03*
X153670000Y-59309000D03*
X158877000Y-59309000D03*
%TO.N,+5V*%
X142748000Y-57785000D03*
X140970000Y-57785000D03*
X141859000Y-57785000D03*
%TD*%
D16*
%TO.N,+5V*%
X140970000Y-57785000D02*
X177292000Y-57785000D01*
X140970000Y-57785000D02*
X142748000Y-57785000D01*
%TD*%
%TA.AperFunction,Conductor*%
%TO.N,GND*%
G36*
X145584075Y-63692993D02*
G01*
X145649901Y-63807007D01*
X145742993Y-63900099D01*
X145857007Y-63965925D01*
X145920591Y-63982962D01*
X145288627Y-64614925D01*
X145364595Y-64668119D01*
X145408219Y-64722696D01*
X145415412Y-64792195D01*
X145383890Y-64854549D01*
X145364595Y-64871269D01*
X145178594Y-65001508D01*
X145011505Y-65168597D01*
X144881575Y-65354158D01*
X144826998Y-65397783D01*
X144757500Y-65404977D01*
X144695145Y-65373454D01*
X144678425Y-65354158D01*
X144548494Y-65168597D01*
X144381402Y-65001506D01*
X144381401Y-65001505D01*
X144195405Y-64871269D01*
X144151781Y-64816692D01*
X144144588Y-64747193D01*
X144176110Y-64684839D01*
X144195404Y-64668120D01*
X144271371Y-64614925D01*
X143639408Y-63982962D01*
X143702993Y-63965925D01*
X143817007Y-63900099D01*
X143910099Y-63807007D01*
X143975925Y-63692993D01*
X143992962Y-63629408D01*
X144624925Y-64261371D01*
X144678426Y-64184968D01*
X144733004Y-64141344D01*
X144802502Y-64134152D01*
X144864856Y-64165675D01*
X144881575Y-64184969D01*
X144935073Y-64261372D01*
X145567037Y-63629408D01*
X145584075Y-63692993D01*
G37*
%TD.AperFunction*%
%TA.AperFunction,Conductor*%
G36*
X148124075Y-63692993D02*
G01*
X148189901Y-63807007D01*
X148282993Y-63900099D01*
X148397007Y-63965925D01*
X148460591Y-63982962D01*
X147828627Y-64614925D01*
X147904595Y-64668119D01*
X147948219Y-64722696D01*
X147955412Y-64792195D01*
X147923890Y-64854549D01*
X147904595Y-64871269D01*
X147718594Y-65001508D01*
X147551505Y-65168597D01*
X147421575Y-65354158D01*
X147366998Y-65397783D01*
X147297500Y-65404977D01*
X147235145Y-65373454D01*
X147218425Y-65354158D01*
X147088494Y-65168597D01*
X146921402Y-65001506D01*
X146921401Y-65001505D01*
X146735405Y-64871269D01*
X146691781Y-64816692D01*
X146684588Y-64747193D01*
X146716110Y-64684839D01*
X146735404Y-64668120D01*
X146811371Y-64614925D01*
X146179408Y-63982962D01*
X146242993Y-63965925D01*
X146357007Y-63900099D01*
X146450099Y-63807007D01*
X146515925Y-63692993D01*
X146532962Y-63629408D01*
X147164925Y-64261371D01*
X147218426Y-64184968D01*
X147273004Y-64141344D01*
X147342502Y-64134152D01*
X147404856Y-64165675D01*
X147421575Y-64184969D01*
X147475073Y-64261372D01*
X148107037Y-63629408D01*
X148124075Y-63692993D01*
G37*
%TD.AperFunction*%
%TA.AperFunction,Conductor*%
G36*
X150664075Y-63692993D02*
G01*
X150729901Y-63807007D01*
X150822993Y-63900099D01*
X150937007Y-63965925D01*
X151000591Y-63982962D01*
X150368627Y-64614925D01*
X150444595Y-64668119D01*
X150488219Y-64722696D01*
X150495412Y-64792195D01*
X150463890Y-64854549D01*
X150444595Y-64871269D01*
X150258594Y-65001508D01*
X150091505Y-65168597D01*
X149961575Y-65354158D01*
X149906998Y-65397783D01*
X149837500Y-65404977D01*
X149775145Y-65373454D01*
X149758425Y-65354158D01*
X149628494Y-65168597D01*
X149461402Y-65001506D01*
X149461401Y-65001505D01*
X149275405Y-64871269D01*
X149231781Y-64816692D01*
X149224588Y-64747193D01*
X149256110Y-64684839D01*
X149275404Y-64668120D01*
X149351371Y-64614925D01*
X148719408Y-63982962D01*
X148782993Y-63965925D01*
X148897007Y-63900099D01*
X148990099Y-63807007D01*
X149055925Y-63692993D01*
X149072962Y-63629408D01*
X149704925Y-64261371D01*
X149758426Y-64184968D01*
X149813004Y-64141344D01*
X149882502Y-64134152D01*
X149944856Y-64165675D01*
X149961575Y-64184969D01*
X150015073Y-64261372D01*
X150647037Y-63629408D01*
X150664075Y-63692993D01*
G37*
%TD.AperFunction*%
%TA.AperFunction,Conductor*%
G36*
X153204075Y-63692993D02*
G01*
X153269901Y-63807007D01*
X153362993Y-63900099D01*
X153477007Y-63965925D01*
X153540591Y-63982962D01*
X152908627Y-64614925D01*
X152984595Y-64668119D01*
X153028219Y-64722696D01*
X153035412Y-64792195D01*
X153003890Y-64854549D01*
X152984595Y-64871269D01*
X152798594Y-65001508D01*
X152631505Y-65168597D01*
X152501575Y-65354158D01*
X152446998Y-65397783D01*
X152377500Y-65404977D01*
X152315145Y-65373454D01*
X152298425Y-65354158D01*
X152168494Y-65168597D01*
X152001402Y-65001506D01*
X152001401Y-65001505D01*
X151815405Y-64871269D01*
X151771781Y-64816692D01*
X151764588Y-64747193D01*
X151796110Y-64684839D01*
X151815404Y-64668120D01*
X151891371Y-64614925D01*
X151259408Y-63982962D01*
X151322993Y-63965925D01*
X151437007Y-63900099D01*
X151530099Y-63807007D01*
X151595925Y-63692993D01*
X151612962Y-63629408D01*
X152244925Y-64261371D01*
X152298426Y-64184968D01*
X152353004Y-64141344D01*
X152422502Y-64134152D01*
X152484856Y-64165675D01*
X152501575Y-64184969D01*
X152555073Y-64261372D01*
X153187037Y-63629408D01*
X153204075Y-63692993D01*
G37*
%TD.AperFunction*%
%TA.AperFunction,Conductor*%
G36*
X155744075Y-63692993D02*
G01*
X155809901Y-63807007D01*
X155902993Y-63900099D01*
X156017007Y-63965925D01*
X156080591Y-63982962D01*
X155448627Y-64614925D01*
X155524595Y-64668119D01*
X155568219Y-64722696D01*
X155575412Y-64792195D01*
X155543890Y-64854549D01*
X155524595Y-64871269D01*
X155338594Y-65001508D01*
X155171505Y-65168597D01*
X155041575Y-65354158D01*
X154986998Y-65397783D01*
X154917500Y-65404977D01*
X154855145Y-65373454D01*
X154838425Y-65354158D01*
X154708494Y-65168597D01*
X154541402Y-65001506D01*
X154541401Y-65001505D01*
X154355405Y-64871269D01*
X154311781Y-64816692D01*
X154304588Y-64747193D01*
X154336110Y-64684839D01*
X154355404Y-64668120D01*
X154431371Y-64614925D01*
X153799408Y-63982962D01*
X153862993Y-63965925D01*
X153977007Y-63900099D01*
X154070099Y-63807007D01*
X154135925Y-63692993D01*
X154152962Y-63629408D01*
X154784925Y-64261371D01*
X154838426Y-64184968D01*
X154893004Y-64141344D01*
X154962502Y-64134152D01*
X155024856Y-64165675D01*
X155041575Y-64184969D01*
X155095073Y-64261372D01*
X155727037Y-63629408D01*
X155744075Y-63692993D01*
G37*
%TD.AperFunction*%
%TA.AperFunction,Conductor*%
G36*
X158284075Y-63692993D02*
G01*
X158349901Y-63807007D01*
X158442993Y-63900099D01*
X158557007Y-63965925D01*
X158620591Y-63982962D01*
X157988627Y-64614925D01*
X158064595Y-64668119D01*
X158108219Y-64722696D01*
X158115412Y-64792195D01*
X158083890Y-64854549D01*
X158064595Y-64871269D01*
X157878594Y-65001508D01*
X157711505Y-65168597D01*
X157581575Y-65354158D01*
X157526998Y-65397783D01*
X157457500Y-65404977D01*
X157395145Y-65373454D01*
X157378425Y-65354158D01*
X157248494Y-65168597D01*
X157081402Y-65001506D01*
X157081401Y-65001505D01*
X156895405Y-64871269D01*
X156851781Y-64816692D01*
X156844588Y-64747193D01*
X156876110Y-64684839D01*
X156895404Y-64668120D01*
X156971371Y-64614925D01*
X156339408Y-63982962D01*
X156402993Y-63965925D01*
X156517007Y-63900099D01*
X156610099Y-63807007D01*
X156675925Y-63692993D01*
X156692962Y-63629408D01*
X157324925Y-64261371D01*
X157378426Y-64184968D01*
X157433004Y-64141344D01*
X157502502Y-64134152D01*
X157564856Y-64165675D01*
X157581575Y-64184969D01*
X157635073Y-64261372D01*
X158267037Y-63629408D01*
X158284075Y-63692993D01*
G37*
%TD.AperFunction*%
%TA.AperFunction,Conductor*%
G36*
X160824075Y-63692993D02*
G01*
X160889901Y-63807007D01*
X160982993Y-63900099D01*
X161097007Y-63965925D01*
X161160591Y-63982962D01*
X160528627Y-64614925D01*
X160604595Y-64668119D01*
X160648219Y-64722696D01*
X160655412Y-64792195D01*
X160623890Y-64854549D01*
X160604595Y-64871269D01*
X160418594Y-65001508D01*
X160251505Y-65168597D01*
X160121575Y-65354158D01*
X160066998Y-65397783D01*
X159997500Y-65404977D01*
X159935145Y-65373454D01*
X159918425Y-65354158D01*
X159788494Y-65168597D01*
X159621402Y-65001506D01*
X159621401Y-65001505D01*
X159435405Y-64871269D01*
X159391781Y-64816692D01*
X159384588Y-64747193D01*
X159416110Y-64684839D01*
X159435404Y-64668120D01*
X159511371Y-64614925D01*
X158879408Y-63982962D01*
X158942993Y-63965925D01*
X159057007Y-63900099D01*
X159150099Y-63807007D01*
X159215925Y-63692993D01*
X159232962Y-63629408D01*
X159864925Y-64261371D01*
X159918426Y-64184968D01*
X159973004Y-64141344D01*
X160042502Y-64134152D01*
X160104856Y-64165675D01*
X160121575Y-64184969D01*
X160175073Y-64261372D01*
X160807037Y-63629408D01*
X160824075Y-63692993D01*
G37*
%TD.AperFunction*%
%TA.AperFunction,Conductor*%
G36*
X163364075Y-63692993D02*
G01*
X163429901Y-63807007D01*
X163522993Y-63900099D01*
X163637007Y-63965925D01*
X163700591Y-63982962D01*
X163068627Y-64614925D01*
X163144595Y-64668119D01*
X163188219Y-64722696D01*
X163195412Y-64792195D01*
X163163890Y-64854549D01*
X163144595Y-64871269D01*
X162958594Y-65001508D01*
X162791505Y-65168597D01*
X162661575Y-65354158D01*
X162606998Y-65397783D01*
X162537500Y-65404977D01*
X162475145Y-65373454D01*
X162458425Y-65354158D01*
X162328494Y-65168597D01*
X162161402Y-65001506D01*
X162161401Y-65001505D01*
X161975405Y-64871269D01*
X161931781Y-64816692D01*
X161924588Y-64747193D01*
X161956110Y-64684839D01*
X161975404Y-64668120D01*
X162051371Y-64614925D01*
X161419408Y-63982962D01*
X161482993Y-63965925D01*
X161597007Y-63900099D01*
X161690099Y-63807007D01*
X161755925Y-63692993D01*
X161772962Y-63629408D01*
X162404925Y-64261371D01*
X162458426Y-64184968D01*
X162513004Y-64141344D01*
X162582502Y-64134152D01*
X162644856Y-64165675D01*
X162661575Y-64184969D01*
X162715073Y-64261372D01*
X163347037Y-63629408D01*
X163364075Y-63692993D01*
G37*
%TD.AperFunction*%
%TA.AperFunction,Conductor*%
G36*
X165904075Y-63692993D02*
G01*
X165969901Y-63807007D01*
X166062993Y-63900099D01*
X166177007Y-63965925D01*
X166240591Y-63982962D01*
X165608627Y-64614925D01*
X165684595Y-64668119D01*
X165728219Y-64722696D01*
X165735412Y-64792195D01*
X165703890Y-64854549D01*
X165684595Y-64871269D01*
X165498594Y-65001508D01*
X165331505Y-65168597D01*
X165201575Y-65354158D01*
X165146998Y-65397783D01*
X165077500Y-65404977D01*
X165015145Y-65373454D01*
X164998425Y-65354158D01*
X164868494Y-65168597D01*
X164701402Y-65001506D01*
X164701401Y-65001505D01*
X164515405Y-64871269D01*
X164471781Y-64816692D01*
X164464588Y-64747193D01*
X164496110Y-64684839D01*
X164515404Y-64668120D01*
X164591371Y-64614925D01*
X163959408Y-63982962D01*
X164022993Y-63965925D01*
X164137007Y-63900099D01*
X164230099Y-63807007D01*
X164295925Y-63692993D01*
X164312962Y-63629408D01*
X164944925Y-64261371D01*
X164998426Y-64184968D01*
X165053004Y-64141344D01*
X165122502Y-64134152D01*
X165184856Y-64165675D01*
X165201575Y-64184969D01*
X165255073Y-64261372D01*
X165887037Y-63629408D01*
X165904075Y-63692993D01*
G37*
%TD.AperFunction*%
%TA.AperFunction,Conductor*%
G36*
X168444075Y-63692993D02*
G01*
X168509901Y-63807007D01*
X168602993Y-63900099D01*
X168717007Y-63965925D01*
X168780591Y-63982962D01*
X168148627Y-64614925D01*
X168224595Y-64668119D01*
X168268219Y-64722696D01*
X168275412Y-64792195D01*
X168243890Y-64854549D01*
X168224595Y-64871269D01*
X168038594Y-65001508D01*
X167871505Y-65168597D01*
X167741575Y-65354158D01*
X167686998Y-65397783D01*
X167617500Y-65404977D01*
X167555145Y-65373454D01*
X167538425Y-65354158D01*
X167408494Y-65168597D01*
X167241402Y-65001506D01*
X167241401Y-65001505D01*
X167055405Y-64871269D01*
X167011781Y-64816692D01*
X167004588Y-64747193D01*
X167036110Y-64684839D01*
X167055404Y-64668120D01*
X167131371Y-64614925D01*
X166499408Y-63982962D01*
X166562993Y-63965925D01*
X166677007Y-63900099D01*
X166770099Y-63807007D01*
X166835925Y-63692993D01*
X166852962Y-63629408D01*
X167484925Y-64261371D01*
X167538426Y-64184968D01*
X167593004Y-64141344D01*
X167662502Y-64134152D01*
X167724856Y-64165675D01*
X167741575Y-64184969D01*
X167795073Y-64261372D01*
X168427037Y-63629408D01*
X168444075Y-63692993D01*
G37*
%TD.AperFunction*%
%TA.AperFunction,Conductor*%
G36*
X170984075Y-63692993D02*
G01*
X171049901Y-63807007D01*
X171142993Y-63900099D01*
X171257007Y-63965925D01*
X171320591Y-63982962D01*
X170688627Y-64614925D01*
X170764595Y-64668119D01*
X170808219Y-64722696D01*
X170815412Y-64792195D01*
X170783890Y-64854549D01*
X170764595Y-64871269D01*
X170578594Y-65001508D01*
X170411505Y-65168597D01*
X170281575Y-65354158D01*
X170226998Y-65397783D01*
X170157500Y-65404977D01*
X170095145Y-65373454D01*
X170078425Y-65354158D01*
X169948494Y-65168597D01*
X169781402Y-65001506D01*
X169781401Y-65001505D01*
X169595405Y-64871269D01*
X169551781Y-64816692D01*
X169544588Y-64747193D01*
X169576110Y-64684839D01*
X169595404Y-64668120D01*
X169671371Y-64614925D01*
X169039408Y-63982962D01*
X169102993Y-63965925D01*
X169217007Y-63900099D01*
X169310099Y-63807007D01*
X169375925Y-63692993D01*
X169392962Y-63629408D01*
X170024925Y-64261371D01*
X170078426Y-64184968D01*
X170133004Y-64141344D01*
X170202502Y-64134152D01*
X170264856Y-64165675D01*
X170281575Y-64184969D01*
X170335073Y-64261372D01*
X170967037Y-63629408D01*
X170984075Y-63692993D01*
G37*
%TD.AperFunction*%
%TA.AperFunction,Conductor*%
G36*
X173524075Y-63692993D02*
G01*
X173589901Y-63807007D01*
X173682993Y-63900099D01*
X173797007Y-63965925D01*
X173860591Y-63982962D01*
X173228627Y-64614925D01*
X173304595Y-64668119D01*
X173348219Y-64722696D01*
X173355412Y-64792195D01*
X173323890Y-64854549D01*
X173304595Y-64871269D01*
X173118594Y-65001508D01*
X172951505Y-65168597D01*
X172821575Y-65354158D01*
X172766998Y-65397783D01*
X172697500Y-65404977D01*
X172635145Y-65373454D01*
X172618425Y-65354158D01*
X172488494Y-65168597D01*
X172321402Y-65001506D01*
X172321401Y-65001505D01*
X172135405Y-64871269D01*
X172091781Y-64816692D01*
X172084588Y-64747193D01*
X172116110Y-64684839D01*
X172135404Y-64668120D01*
X172211371Y-64614925D01*
X171579408Y-63982962D01*
X171642993Y-63965925D01*
X171757007Y-63900099D01*
X171850099Y-63807007D01*
X171915925Y-63692993D01*
X171932962Y-63629408D01*
X172564925Y-64261371D01*
X172618426Y-64184968D01*
X172673004Y-64141344D01*
X172742502Y-64134152D01*
X172804856Y-64165675D01*
X172821575Y-64184969D01*
X172875073Y-64261372D01*
X173507037Y-63629408D01*
X173524075Y-63692993D01*
G37*
%TD.AperFunction*%
%TA.AperFunction,Conductor*%
G36*
X176064075Y-63692993D02*
G01*
X176129901Y-63807007D01*
X176222993Y-63900099D01*
X176337007Y-63965925D01*
X176400591Y-63982962D01*
X175768627Y-64614925D01*
X175844595Y-64668119D01*
X175888219Y-64722696D01*
X175895412Y-64792195D01*
X175863890Y-64854549D01*
X175844595Y-64871269D01*
X175658594Y-65001508D01*
X175491505Y-65168597D01*
X175361575Y-65354158D01*
X175306998Y-65397783D01*
X175237500Y-65404977D01*
X175175145Y-65373454D01*
X175158425Y-65354158D01*
X175028494Y-65168597D01*
X174861402Y-65001506D01*
X174861401Y-65001505D01*
X174675405Y-64871269D01*
X174631781Y-64816692D01*
X174624588Y-64747193D01*
X174656110Y-64684839D01*
X174675404Y-64668120D01*
X174751371Y-64614925D01*
X174119408Y-63982962D01*
X174182993Y-63965925D01*
X174297007Y-63900099D01*
X174390099Y-63807007D01*
X174455925Y-63692993D01*
X174472962Y-63629408D01*
X175104925Y-64261371D01*
X175158426Y-64184968D01*
X175213004Y-64141344D01*
X175282502Y-64134152D01*
X175344856Y-64165675D01*
X175361575Y-64184969D01*
X175415073Y-64261372D01*
X176047037Y-63629408D01*
X176064075Y-63692993D01*
G37*
%TD.AperFunction*%
%TA.AperFunction,Conductor*%
G36*
X178604075Y-63692993D02*
G01*
X178669901Y-63807007D01*
X178762993Y-63900099D01*
X178877007Y-63965925D01*
X178940591Y-63982962D01*
X178308627Y-64614925D01*
X178384595Y-64668119D01*
X178428219Y-64722696D01*
X178435412Y-64792195D01*
X178403890Y-64854549D01*
X178384595Y-64871269D01*
X178198594Y-65001508D01*
X178031505Y-65168597D01*
X177901575Y-65354158D01*
X177846998Y-65397783D01*
X177777500Y-65404977D01*
X177715145Y-65373454D01*
X177698425Y-65354158D01*
X177568494Y-65168597D01*
X177401402Y-65001506D01*
X177401401Y-65001505D01*
X177215405Y-64871269D01*
X177171781Y-64816692D01*
X177164588Y-64747193D01*
X177196110Y-64684839D01*
X177215404Y-64668120D01*
X177291371Y-64614925D01*
X176659408Y-63982962D01*
X176722993Y-63965925D01*
X176837007Y-63900099D01*
X176930099Y-63807007D01*
X176995925Y-63692993D01*
X177012962Y-63629408D01*
X177644925Y-64261371D01*
X177698426Y-64184968D01*
X177753004Y-64141344D01*
X177822502Y-64134152D01*
X177884856Y-64165675D01*
X177901575Y-64184969D01*
X177955073Y-64261372D01*
X178587037Y-63629408D01*
X178604075Y-63692993D01*
G37*
%TD.AperFunction*%
%TA.AperFunction,Conductor*%
G36*
X181144075Y-63692993D02*
G01*
X181209901Y-63807007D01*
X181302993Y-63900099D01*
X181417007Y-63965925D01*
X181480591Y-63982962D01*
X180848627Y-64614925D01*
X180924595Y-64668119D01*
X180968219Y-64722696D01*
X180975412Y-64792195D01*
X180943890Y-64854549D01*
X180924595Y-64871269D01*
X180738594Y-65001508D01*
X180571505Y-65168597D01*
X180441575Y-65354158D01*
X180386998Y-65397783D01*
X180317500Y-65404977D01*
X180255145Y-65373454D01*
X180238425Y-65354158D01*
X180108494Y-65168597D01*
X179941402Y-65001506D01*
X179941401Y-65001505D01*
X179755405Y-64871269D01*
X179711781Y-64816692D01*
X179704588Y-64747193D01*
X179736110Y-64684839D01*
X179755404Y-64668120D01*
X179831371Y-64614925D01*
X179199408Y-63982962D01*
X179262993Y-63965925D01*
X179377007Y-63900099D01*
X179470099Y-63807007D01*
X179535925Y-63692993D01*
X179552962Y-63629408D01*
X180184925Y-64261371D01*
X180238426Y-64184968D01*
X180293004Y-64141344D01*
X180362502Y-64134152D01*
X180424856Y-64165675D01*
X180441575Y-64184969D01*
X180495073Y-64261372D01*
X181127037Y-63629408D01*
X181144075Y-63692993D01*
G37*
%TD.AperFunction*%
%TA.AperFunction,Conductor*%
G36*
X182729157Y-64265603D02*
G01*
X182781704Y-64276164D01*
X182831887Y-64324779D01*
X182841717Y-64346921D01*
X182865641Y-64419119D01*
X182865643Y-64419124D01*
X182957684Y-64568345D01*
X183081654Y-64692315D01*
X183230875Y-64784356D01*
X183230882Y-64784359D01*
X183239712Y-64787285D01*
X183297157Y-64827057D01*
X183323981Y-64891572D01*
X183311667Y-64960348D01*
X183282318Y-64997567D01*
X183282427Y-64997676D01*
X183281511Y-64998591D01*
X183280419Y-64999977D01*
X183278597Y-65001505D01*
X183111505Y-65168597D01*
X182981575Y-65354158D01*
X182926998Y-65397783D01*
X182857500Y-65404977D01*
X182795145Y-65373454D01*
X182778425Y-65354158D01*
X182648494Y-65168597D01*
X182481402Y-65001506D01*
X182481401Y-65001505D01*
X182295405Y-64871269D01*
X182251781Y-64816692D01*
X182244588Y-64747193D01*
X182276110Y-64684839D01*
X182295404Y-64668120D01*
X182371371Y-64614925D01*
X181739408Y-63982962D01*
X181802993Y-63965925D01*
X181917007Y-63900099D01*
X182010099Y-63807007D01*
X182075925Y-63692993D01*
X182092962Y-63629408D01*
X182729157Y-64265603D01*
G37*
%TD.AperFunction*%
%TA.AperFunction,Conductor*%
G36*
X138804705Y-51602785D02*
G01*
X138850460Y-51655589D01*
X138861666Y-51707100D01*
X138861666Y-53090000D01*
X188798334Y-53090000D01*
X188798334Y-51707100D01*
X188818019Y-51640061D01*
X188870823Y-51594306D01*
X188922334Y-51583100D01*
X190075500Y-51583100D01*
X190142539Y-51602785D01*
X190188294Y-51655589D01*
X190199500Y-51707100D01*
X190199500Y-69425500D01*
X190179815Y-69492539D01*
X190127011Y-69538294D01*
X190075500Y-69549500D01*
X137584500Y-69549500D01*
X137517461Y-69529815D01*
X137471706Y-69477011D01*
X137460500Y-69425500D01*
X137460500Y-66039999D01*
X142154341Y-66039999D01*
X142154341Y-66040000D01*
X142174936Y-66275403D01*
X142174938Y-66275413D01*
X142236094Y-66503655D01*
X142236096Y-66503659D01*
X142236097Y-66503663D01*
X142240000Y-66512032D01*
X142335965Y-66717830D01*
X142335967Y-66717834D01*
X142444281Y-66872521D01*
X142471505Y-66911401D01*
X142638599Y-67078495D01*
X142735384Y-67146265D01*
X142832165Y-67214032D01*
X142832167Y-67214033D01*
X142832170Y-67214035D01*
X143046337Y-67313903D01*
X143274592Y-67375063D01*
X143462918Y-67391539D01*
X143509999Y-67395659D01*
X143510000Y-67395659D01*
X143510001Y-67395659D01*
X143549234Y-67392226D01*
X143745408Y-67375063D01*
X143973663Y-67313903D01*
X144187830Y-67214035D01*
X144381401Y-67078495D01*
X144548495Y-66911401D01*
X144678425Y-66725842D01*
X144733002Y-66682217D01*
X144802500Y-66675023D01*
X144864855Y-66706546D01*
X144881575Y-66725842D01*
X145011500Y-66911395D01*
X145011505Y-66911401D01*
X145178599Y-67078495D01*
X145275384Y-67146265D01*
X145372165Y-67214032D01*
X145372167Y-67214033D01*
X145372170Y-67214035D01*
X145586337Y-67313903D01*
X145814592Y-67375063D01*
X146002918Y-67391539D01*
X146049999Y-67395659D01*
X146050000Y-67395659D01*
X146050001Y-67395659D01*
X146089234Y-67392226D01*
X146285408Y-67375063D01*
X146513663Y-67313903D01*
X146727830Y-67214035D01*
X146921401Y-67078495D01*
X147088495Y-66911401D01*
X147218425Y-66725842D01*
X147273002Y-66682217D01*
X147342500Y-66675023D01*
X147404855Y-66706546D01*
X147421575Y-66725842D01*
X147551500Y-66911395D01*
X147551505Y-66911401D01*
X147718599Y-67078495D01*
X147815384Y-67146265D01*
X147912165Y-67214032D01*
X147912167Y-67214033D01*
X147912170Y-67214035D01*
X148126337Y-67313903D01*
X148354592Y-67375063D01*
X148542918Y-67391539D01*
X148589999Y-67395659D01*
X148590000Y-67395659D01*
X148590001Y-67395659D01*
X148629234Y-67392226D01*
X148825408Y-67375063D01*
X149053663Y-67313903D01*
X149267830Y-67214035D01*
X149461401Y-67078495D01*
X149628495Y-66911401D01*
X149758425Y-66725842D01*
X149813002Y-66682217D01*
X149882500Y-66675023D01*
X149944855Y-66706546D01*
X149961575Y-66725842D01*
X150091500Y-66911395D01*
X150091505Y-66911401D01*
X150258599Y-67078495D01*
X150355384Y-67146265D01*
X150452165Y-67214032D01*
X150452167Y-67214033D01*
X150452170Y-67214035D01*
X150666337Y-67313903D01*
X150894592Y-67375063D01*
X151082918Y-67391539D01*
X151129999Y-67395659D01*
X151130000Y-67395659D01*
X151130001Y-67395659D01*
X151169234Y-67392226D01*
X151365408Y-67375063D01*
X151593663Y-67313903D01*
X151807830Y-67214035D01*
X152001401Y-67078495D01*
X152168495Y-66911401D01*
X152298425Y-66725842D01*
X152353002Y-66682217D01*
X152422500Y-66675023D01*
X152484855Y-66706546D01*
X152501575Y-66725842D01*
X152631500Y-66911395D01*
X152631505Y-66911401D01*
X152798599Y-67078495D01*
X152895384Y-67146265D01*
X152992165Y-67214032D01*
X152992167Y-67214033D01*
X152992170Y-67214035D01*
X153206337Y-67313903D01*
X153434592Y-67375063D01*
X153622918Y-67391539D01*
X153669999Y-67395659D01*
X153670000Y-67395659D01*
X153670001Y-67395659D01*
X153709234Y-67392226D01*
X153905408Y-67375063D01*
X154133663Y-67313903D01*
X154347830Y-67214035D01*
X154541401Y-67078495D01*
X154708495Y-66911401D01*
X154838425Y-66725842D01*
X154893002Y-66682217D01*
X154962500Y-66675023D01*
X155024855Y-66706546D01*
X155041575Y-66725842D01*
X155171500Y-66911395D01*
X155171505Y-66911401D01*
X155338599Y-67078495D01*
X155435384Y-67146265D01*
X155532165Y-67214032D01*
X155532167Y-67214033D01*
X155532170Y-67214035D01*
X155746337Y-67313903D01*
X155974592Y-67375063D01*
X156162918Y-67391539D01*
X156209999Y-67395659D01*
X156210000Y-67395659D01*
X156210001Y-67395659D01*
X156249234Y-67392226D01*
X156445408Y-67375063D01*
X156673663Y-67313903D01*
X156887830Y-67214035D01*
X157081401Y-67078495D01*
X157248495Y-66911401D01*
X157378425Y-66725842D01*
X157433002Y-66682217D01*
X157502500Y-66675023D01*
X157564855Y-66706546D01*
X157581575Y-66725842D01*
X157711500Y-66911395D01*
X157711505Y-66911401D01*
X157878599Y-67078495D01*
X157975384Y-67146265D01*
X158072165Y-67214032D01*
X158072167Y-67214033D01*
X158072170Y-67214035D01*
X158286337Y-67313903D01*
X158514592Y-67375063D01*
X158702918Y-67391539D01*
X158749999Y-67395659D01*
X158750000Y-67395659D01*
X158750001Y-67395659D01*
X158789234Y-67392226D01*
X158985408Y-67375063D01*
X159213663Y-67313903D01*
X159427830Y-67214035D01*
X159621401Y-67078495D01*
X159788495Y-66911401D01*
X159918425Y-66725842D01*
X159973002Y-66682217D01*
X160042500Y-66675023D01*
X160104855Y-66706546D01*
X160121575Y-66725842D01*
X160251500Y-66911395D01*
X160251505Y-66911401D01*
X160418599Y-67078495D01*
X160515384Y-67146265D01*
X160612165Y-67214032D01*
X160612167Y-67214033D01*
X160612170Y-67214035D01*
X160826337Y-67313903D01*
X161054592Y-67375063D01*
X161242918Y-67391539D01*
X161289999Y-67395659D01*
X161290000Y-67395659D01*
X161290001Y-67395659D01*
X161329234Y-67392226D01*
X161525408Y-67375063D01*
X161753663Y-67313903D01*
X161967830Y-67214035D01*
X162161401Y-67078495D01*
X162328495Y-66911401D01*
X162458425Y-66725842D01*
X162513002Y-66682217D01*
X162582500Y-66675023D01*
X162644855Y-66706546D01*
X162661575Y-66725842D01*
X162791500Y-66911395D01*
X162791505Y-66911401D01*
X162958599Y-67078495D01*
X163055384Y-67146265D01*
X163152165Y-67214032D01*
X163152167Y-67214033D01*
X163152170Y-67214035D01*
X163366337Y-67313903D01*
X163594592Y-67375063D01*
X163782918Y-67391539D01*
X163829999Y-67395659D01*
X163830000Y-67395659D01*
X163830001Y-67395659D01*
X163869234Y-67392226D01*
X164065408Y-67375063D01*
X164293663Y-67313903D01*
X164507830Y-67214035D01*
X164701401Y-67078495D01*
X164868495Y-66911401D01*
X164998425Y-66725842D01*
X165053002Y-66682217D01*
X165122500Y-66675023D01*
X165184855Y-66706546D01*
X165201575Y-66725842D01*
X165331500Y-66911395D01*
X165331505Y-66911401D01*
X165498599Y-67078495D01*
X165595384Y-67146265D01*
X165692165Y-67214032D01*
X165692167Y-67214033D01*
X165692170Y-67214035D01*
X165906337Y-67313903D01*
X166134592Y-67375063D01*
X166322918Y-67391539D01*
X166369999Y-67395659D01*
X166370000Y-67395659D01*
X166370001Y-67395659D01*
X166409234Y-67392226D01*
X166605408Y-67375063D01*
X166833663Y-67313903D01*
X167047830Y-67214035D01*
X167241401Y-67078495D01*
X167408495Y-66911401D01*
X167538425Y-66725842D01*
X167593002Y-66682217D01*
X167662500Y-66675023D01*
X167724855Y-66706546D01*
X167741575Y-66725842D01*
X167871500Y-66911395D01*
X167871505Y-66911401D01*
X168038599Y-67078495D01*
X168135384Y-67146265D01*
X168232165Y-67214032D01*
X168232167Y-67214033D01*
X168232170Y-67214035D01*
X168446337Y-67313903D01*
X168674592Y-67375063D01*
X168862918Y-67391539D01*
X168909999Y-67395659D01*
X168910000Y-67395659D01*
X168910001Y-67395659D01*
X168949234Y-67392226D01*
X169145408Y-67375063D01*
X169373663Y-67313903D01*
X169587830Y-67214035D01*
X169781401Y-67078495D01*
X169948495Y-66911401D01*
X170078425Y-66725842D01*
X170133002Y-66682217D01*
X170202500Y-66675023D01*
X170264855Y-66706546D01*
X170281575Y-66725842D01*
X170411500Y-66911395D01*
X170411505Y-66911401D01*
X170578599Y-67078495D01*
X170675384Y-67146265D01*
X170772165Y-67214032D01*
X170772167Y-67214033D01*
X170772170Y-67214035D01*
X170986337Y-67313903D01*
X171214592Y-67375063D01*
X171402918Y-67391539D01*
X171449999Y-67395659D01*
X171450000Y-67395659D01*
X171450001Y-67395659D01*
X171489234Y-67392226D01*
X171685408Y-67375063D01*
X171913663Y-67313903D01*
X172127830Y-67214035D01*
X172321401Y-67078495D01*
X172488495Y-66911401D01*
X172618425Y-66725842D01*
X172673002Y-66682217D01*
X172742500Y-66675023D01*
X172804855Y-66706546D01*
X172821575Y-66725842D01*
X172951500Y-66911395D01*
X172951505Y-66911401D01*
X173118599Y-67078495D01*
X173215384Y-67146265D01*
X173312165Y-67214032D01*
X173312167Y-67214033D01*
X173312170Y-67214035D01*
X173526337Y-67313903D01*
X173754592Y-67375063D01*
X173942918Y-67391539D01*
X173989999Y-67395659D01*
X173990000Y-67395659D01*
X173990001Y-67395659D01*
X174029234Y-67392226D01*
X174225408Y-67375063D01*
X174453663Y-67313903D01*
X174667830Y-67214035D01*
X174861401Y-67078495D01*
X175028495Y-66911401D01*
X175158425Y-66725842D01*
X175213002Y-66682217D01*
X175282500Y-66675023D01*
X175344855Y-66706546D01*
X175361575Y-66725842D01*
X175491500Y-66911395D01*
X175491505Y-66911401D01*
X175658599Y-67078495D01*
X175755384Y-67146265D01*
X175852165Y-67214032D01*
X175852167Y-67214033D01*
X175852170Y-67214035D01*
X176066337Y-67313903D01*
X176294592Y-67375063D01*
X176482918Y-67391539D01*
X176529999Y-67395659D01*
X176530000Y-67395659D01*
X176530001Y-67395659D01*
X176569234Y-67392226D01*
X176765408Y-67375063D01*
X176993663Y-67313903D01*
X177207830Y-67214035D01*
X177401401Y-67078495D01*
X177568495Y-66911401D01*
X177698425Y-66725842D01*
X177753002Y-66682217D01*
X177822500Y-66675023D01*
X177884855Y-66706546D01*
X177901575Y-66725842D01*
X178031500Y-66911395D01*
X178031505Y-66911401D01*
X178198599Y-67078495D01*
X178295384Y-67146265D01*
X178392165Y-67214032D01*
X178392167Y-67214033D01*
X178392170Y-67214035D01*
X178606337Y-67313903D01*
X178834592Y-67375063D01*
X179022918Y-67391539D01*
X179069999Y-67395659D01*
X179070000Y-67395659D01*
X179070001Y-67395659D01*
X179109234Y-67392226D01*
X179305408Y-67375063D01*
X179533663Y-67313903D01*
X179747830Y-67214035D01*
X179941401Y-67078495D01*
X180108495Y-66911401D01*
X180238425Y-66725842D01*
X180293002Y-66682217D01*
X180362500Y-66675023D01*
X180424855Y-66706546D01*
X180441575Y-66725842D01*
X180571500Y-66911395D01*
X180571505Y-66911401D01*
X180738599Y-67078495D01*
X180835384Y-67146265D01*
X180932165Y-67214032D01*
X180932167Y-67214033D01*
X180932170Y-67214035D01*
X181146337Y-67313903D01*
X181374592Y-67375063D01*
X181562918Y-67391539D01*
X181609999Y-67395659D01*
X181610000Y-67395659D01*
X181610001Y-67395659D01*
X181649234Y-67392226D01*
X181845408Y-67375063D01*
X182073663Y-67313903D01*
X182287830Y-67214035D01*
X182481401Y-67078495D01*
X182648495Y-66911401D01*
X182778425Y-66725842D01*
X182833002Y-66682217D01*
X182902500Y-66675023D01*
X182964855Y-66706546D01*
X182981575Y-66725842D01*
X183111500Y-66911395D01*
X183111505Y-66911401D01*
X183278599Y-67078495D01*
X183375384Y-67146265D01*
X183472165Y-67214032D01*
X183472167Y-67214033D01*
X183472170Y-67214035D01*
X183686337Y-67313903D01*
X183914592Y-67375063D01*
X184102918Y-67391539D01*
X184149999Y-67395659D01*
X184150000Y-67395659D01*
X184150001Y-67395659D01*
X184189234Y-67392226D01*
X184385408Y-67375063D01*
X184613663Y-67313903D01*
X184827830Y-67214035D01*
X185021401Y-67078495D01*
X185188495Y-66911401D01*
X185324035Y-66717830D01*
X185423903Y-66503663D01*
X185485063Y-66275408D01*
X185505659Y-66040000D01*
X185485063Y-65804592D01*
X185423903Y-65576337D01*
X185324035Y-65362171D01*
X185318425Y-65354158D01*
X185188494Y-65168597D01*
X185021401Y-65001505D01*
X185019579Y-64999976D01*
X185018996Y-64999100D01*
X185017573Y-64997677D01*
X185017859Y-64997390D01*
X184980880Y-64941802D01*
X184979776Y-64871941D01*
X185016616Y-64812573D01*
X185060289Y-64787284D01*
X185069120Y-64784357D01*
X185069124Y-64784356D01*
X185218345Y-64692315D01*
X185342315Y-64568345D01*
X185434356Y-64419124D01*
X185434358Y-64419119D01*
X185489505Y-64252697D01*
X185489506Y-64252690D01*
X185499999Y-64149986D01*
X185500000Y-64149973D01*
X185500000Y-63750000D01*
X184583012Y-63750000D01*
X184615925Y-63692993D01*
X184650000Y-63565826D01*
X184650000Y-63434174D01*
X184615925Y-63307007D01*
X184583012Y-63250000D01*
X185499999Y-63250000D01*
X185499999Y-62850028D01*
X185499998Y-62850013D01*
X185489505Y-62747302D01*
X185434358Y-62580880D01*
X185434356Y-62580875D01*
X185342315Y-62431654D01*
X185218345Y-62307684D01*
X185069124Y-62215643D01*
X185069119Y-62215641D01*
X184902697Y-62160494D01*
X184902690Y-62160493D01*
X184799986Y-62150000D01*
X184400000Y-62150000D01*
X184400000Y-63066988D01*
X184342993Y-63034075D01*
X184215826Y-63000000D01*
X184084174Y-63000000D01*
X183957007Y-63034075D01*
X183900000Y-63066988D01*
X183900000Y-62150000D01*
X183500028Y-62150000D01*
X183500012Y-62150001D01*
X183397302Y-62160494D01*
X183230880Y-62215641D01*
X183230875Y-62215643D01*
X183081654Y-62307684D01*
X182957684Y-62431654D01*
X182865643Y-62580875D01*
X182865641Y-62580880D01*
X182841718Y-62653077D01*
X182801945Y-62710522D01*
X182737429Y-62737345D01*
X182726087Y-62737464D01*
X182092962Y-63370590D01*
X182075925Y-63307007D01*
X182010099Y-63192993D01*
X181917007Y-63099901D01*
X181802993Y-63034075D01*
X181739409Y-63017037D01*
X182371372Y-62385073D01*
X182287576Y-62326398D01*
X182073492Y-62226570D01*
X182073483Y-62226566D01*
X181845326Y-62165432D01*
X181845315Y-62165430D01*
X181610002Y-62144843D01*
X181609998Y-62144843D01*
X181374684Y-62165430D01*
X181374673Y-62165432D01*
X181146516Y-62226566D01*
X181146507Y-62226570D01*
X180932423Y-62326399D01*
X180932421Y-62326400D01*
X180848627Y-62385073D01*
X180848626Y-62385073D01*
X181480591Y-63017037D01*
X181417007Y-63034075D01*
X181302993Y-63099901D01*
X181209901Y-63192993D01*
X181144075Y-63307007D01*
X181127037Y-63370590D01*
X180495073Y-62738626D01*
X180495073Y-62738627D01*
X180441575Y-62815031D01*
X180386999Y-62858656D01*
X180317500Y-62865850D01*
X180255145Y-62834327D01*
X180238425Y-62815032D01*
X180184925Y-62738626D01*
X179552962Y-63370590D01*
X179535925Y-63307007D01*
X179470099Y-63192993D01*
X179377007Y-63099901D01*
X179262993Y-63034075D01*
X179199409Y-63017037D01*
X179831372Y-62385073D01*
X179747576Y-62326398D01*
X179533492Y-62226570D01*
X179533483Y-62226566D01*
X179305326Y-62165432D01*
X179305315Y-62165430D01*
X179070002Y-62144843D01*
X179069998Y-62144843D01*
X178834684Y-62165430D01*
X178834673Y-62165432D01*
X178606516Y-62226566D01*
X178606507Y-62226570D01*
X178392423Y-62326399D01*
X178392421Y-62326400D01*
X178308627Y-62385073D01*
X178308626Y-62385073D01*
X178940591Y-63017037D01*
X178877007Y-63034075D01*
X178762993Y-63099901D01*
X178669901Y-63192993D01*
X178604075Y-63307007D01*
X178587037Y-63370590D01*
X177955073Y-62738626D01*
X177955073Y-62738627D01*
X177901575Y-62815031D01*
X177846999Y-62858656D01*
X177777500Y-62865850D01*
X177715145Y-62834327D01*
X177698425Y-62815032D01*
X177644925Y-62738626D01*
X177012962Y-63370590D01*
X176995925Y-63307007D01*
X176930099Y-63192993D01*
X176837007Y-63099901D01*
X176722993Y-63034075D01*
X176659409Y-63017037D01*
X177291372Y-62385073D01*
X177207576Y-62326398D01*
X176993492Y-62226570D01*
X176993483Y-62226566D01*
X176765326Y-62165432D01*
X176765315Y-62165430D01*
X176530002Y-62144843D01*
X176529998Y-62144843D01*
X176294684Y-62165430D01*
X176294673Y-62165432D01*
X176066516Y-62226566D01*
X176066507Y-62226570D01*
X175852423Y-62326399D01*
X175852421Y-62326400D01*
X175768627Y-62385073D01*
X175768626Y-62385073D01*
X176400591Y-63017037D01*
X176337007Y-63034075D01*
X176222993Y-63099901D01*
X176129901Y-63192993D01*
X176064075Y-63307007D01*
X176047037Y-63370590D01*
X175415073Y-62738626D01*
X175415073Y-62738627D01*
X175361575Y-62815031D01*
X175306999Y-62858656D01*
X175237500Y-62865850D01*
X175175145Y-62834327D01*
X175158425Y-62815032D01*
X175104925Y-62738626D01*
X174472962Y-63370590D01*
X174455925Y-63307007D01*
X174390099Y-63192993D01*
X174297007Y-63099901D01*
X174182993Y-63034075D01*
X174119409Y-63017037D01*
X174751372Y-62385073D01*
X174667576Y-62326398D01*
X174453492Y-62226570D01*
X174453483Y-62226566D01*
X174225326Y-62165432D01*
X174225315Y-62165430D01*
X173990002Y-62144843D01*
X173989998Y-62144843D01*
X173754684Y-62165430D01*
X173754673Y-62165432D01*
X173526516Y-62226566D01*
X173526507Y-62226570D01*
X173312423Y-62326399D01*
X173312421Y-62326400D01*
X173228627Y-62385073D01*
X173228626Y-62385073D01*
X173860591Y-63017037D01*
X173797007Y-63034075D01*
X173682993Y-63099901D01*
X173589901Y-63192993D01*
X173524075Y-63307007D01*
X173507037Y-63370590D01*
X172875073Y-62738626D01*
X172875073Y-62738627D01*
X172821575Y-62815031D01*
X172766999Y-62858656D01*
X172697500Y-62865850D01*
X172635145Y-62834327D01*
X172618425Y-62815032D01*
X172564925Y-62738626D01*
X171932962Y-63370590D01*
X171915925Y-63307007D01*
X171850099Y-63192993D01*
X171757007Y-63099901D01*
X171642993Y-63034075D01*
X171579409Y-63017037D01*
X172211372Y-62385073D01*
X172127576Y-62326398D01*
X171913492Y-62226570D01*
X171913483Y-62226566D01*
X171685326Y-62165432D01*
X171685315Y-62165430D01*
X171450002Y-62144843D01*
X171449998Y-62144843D01*
X171214684Y-62165430D01*
X171214673Y-62165432D01*
X170986516Y-62226566D01*
X170986507Y-62226570D01*
X170772423Y-62326399D01*
X170772421Y-62326400D01*
X170688627Y-62385073D01*
X170688626Y-62385073D01*
X171320591Y-63017037D01*
X171257007Y-63034075D01*
X171142993Y-63099901D01*
X171049901Y-63192993D01*
X170984075Y-63307007D01*
X170967037Y-63370590D01*
X170335073Y-62738626D01*
X170335073Y-62738627D01*
X170281575Y-62815031D01*
X170226999Y-62858656D01*
X170157500Y-62865850D01*
X170095145Y-62834327D01*
X170078425Y-62815032D01*
X170024925Y-62738626D01*
X169392962Y-63370590D01*
X169375925Y-63307007D01*
X169310099Y-63192993D01*
X169217007Y-63099901D01*
X169102993Y-63034075D01*
X169039409Y-63017037D01*
X169671372Y-62385073D01*
X169587576Y-62326398D01*
X169373492Y-62226570D01*
X169373483Y-62226566D01*
X169145326Y-62165432D01*
X169145315Y-62165430D01*
X168910002Y-62144843D01*
X168909998Y-62144843D01*
X168674684Y-62165430D01*
X168674673Y-62165432D01*
X168446516Y-62226566D01*
X168446507Y-62226570D01*
X168232423Y-62326399D01*
X168232421Y-62326400D01*
X168148627Y-62385073D01*
X168148626Y-62385073D01*
X168780591Y-63017037D01*
X168717007Y-63034075D01*
X168602993Y-63099901D01*
X168509901Y-63192993D01*
X168444075Y-63307007D01*
X168427037Y-63370590D01*
X167795073Y-62738626D01*
X167795073Y-62738627D01*
X167741575Y-62815031D01*
X167686999Y-62858656D01*
X167617500Y-62865850D01*
X167555145Y-62834327D01*
X167538425Y-62815032D01*
X167484925Y-62738626D01*
X166852962Y-63370590D01*
X166835925Y-63307007D01*
X166770099Y-63192993D01*
X166677007Y-63099901D01*
X166562993Y-63034075D01*
X166499409Y-63017037D01*
X167131372Y-62385073D01*
X167047576Y-62326398D01*
X166833492Y-62226570D01*
X166833483Y-62226566D01*
X166605326Y-62165432D01*
X166605315Y-62165430D01*
X166370002Y-62144843D01*
X166369998Y-62144843D01*
X166134684Y-62165430D01*
X166134673Y-62165432D01*
X165906516Y-62226566D01*
X165906507Y-62226570D01*
X165692423Y-62326399D01*
X165692421Y-62326400D01*
X165608627Y-62385073D01*
X165608626Y-62385073D01*
X166240591Y-63017037D01*
X166177007Y-63034075D01*
X166062993Y-63099901D01*
X165969901Y-63192993D01*
X165904075Y-63307007D01*
X165887037Y-63370590D01*
X165255073Y-62738626D01*
X165255073Y-62738627D01*
X165201575Y-62815031D01*
X165146999Y-62858656D01*
X165077500Y-62865850D01*
X165015145Y-62834327D01*
X164998425Y-62815032D01*
X164944925Y-62738626D01*
X164312962Y-63370590D01*
X164295925Y-63307007D01*
X164230099Y-63192993D01*
X164137007Y-63099901D01*
X164022993Y-63034075D01*
X163959409Y-63017037D01*
X164591372Y-62385073D01*
X164507576Y-62326398D01*
X164293492Y-62226570D01*
X164293483Y-62226566D01*
X164065326Y-62165432D01*
X164065315Y-62165430D01*
X163830002Y-62144843D01*
X163829998Y-62144843D01*
X163594684Y-62165430D01*
X163594673Y-62165432D01*
X163366516Y-62226566D01*
X163366507Y-62226570D01*
X163152423Y-62326399D01*
X163152421Y-62326400D01*
X163068627Y-62385073D01*
X163068626Y-62385073D01*
X163700591Y-63017037D01*
X163637007Y-63034075D01*
X163522993Y-63099901D01*
X163429901Y-63192993D01*
X163364075Y-63307007D01*
X163347037Y-63370590D01*
X162715073Y-62738626D01*
X162715073Y-62738627D01*
X162661575Y-62815031D01*
X162606999Y-62858656D01*
X162537500Y-62865850D01*
X162475145Y-62834327D01*
X162458425Y-62815032D01*
X162404925Y-62738626D01*
X161772962Y-63370590D01*
X161755925Y-63307007D01*
X161690099Y-63192993D01*
X161597007Y-63099901D01*
X161482993Y-63034075D01*
X161419409Y-63017037D01*
X162051372Y-62385073D01*
X161967576Y-62326398D01*
X161753492Y-62226570D01*
X161753483Y-62226566D01*
X161525326Y-62165432D01*
X161525315Y-62165430D01*
X161290002Y-62144843D01*
X161289998Y-62144843D01*
X161054684Y-62165430D01*
X161054673Y-62165432D01*
X160826516Y-62226566D01*
X160826507Y-62226570D01*
X160612423Y-62326399D01*
X160612421Y-62326400D01*
X160528627Y-62385073D01*
X160528626Y-62385073D01*
X161160591Y-63017037D01*
X161097007Y-63034075D01*
X160982993Y-63099901D01*
X160889901Y-63192993D01*
X160824075Y-63307007D01*
X160807037Y-63370590D01*
X160175073Y-62738626D01*
X160175073Y-62738627D01*
X160121575Y-62815031D01*
X160066999Y-62858656D01*
X159997500Y-62865850D01*
X159935145Y-62834327D01*
X159918425Y-62815032D01*
X159864925Y-62738626D01*
X159232962Y-63370590D01*
X159215925Y-63307007D01*
X159150099Y-63192993D01*
X159057007Y-63099901D01*
X158942993Y-63034075D01*
X158879409Y-63017037D01*
X159511372Y-62385073D01*
X159427576Y-62326398D01*
X159213492Y-62226570D01*
X159213483Y-62226566D01*
X158985326Y-62165432D01*
X158985315Y-62165430D01*
X158750002Y-62144843D01*
X158749998Y-62144843D01*
X158514684Y-62165430D01*
X158514673Y-62165432D01*
X158286516Y-62226566D01*
X158286507Y-62226570D01*
X158072423Y-62326399D01*
X158072421Y-62326400D01*
X157988627Y-62385073D01*
X157988626Y-62385073D01*
X158620591Y-63017037D01*
X158557007Y-63034075D01*
X158442993Y-63099901D01*
X158349901Y-63192993D01*
X158284075Y-63307007D01*
X158267037Y-63370590D01*
X157635073Y-62738626D01*
X157635073Y-62738627D01*
X157581575Y-62815031D01*
X157526999Y-62858656D01*
X157457500Y-62865850D01*
X157395145Y-62834327D01*
X157378425Y-62815032D01*
X157324925Y-62738626D01*
X156692962Y-63370590D01*
X156675925Y-63307007D01*
X156610099Y-63192993D01*
X156517007Y-63099901D01*
X156402993Y-63034075D01*
X156339409Y-63017037D01*
X156971372Y-62385073D01*
X156887576Y-62326398D01*
X156673492Y-62226570D01*
X156673483Y-62226566D01*
X156445326Y-62165432D01*
X156445315Y-62165430D01*
X156210002Y-62144843D01*
X156209998Y-62144843D01*
X155974684Y-62165430D01*
X155974673Y-62165432D01*
X155746516Y-62226566D01*
X155746507Y-62226570D01*
X155532423Y-62326399D01*
X155532421Y-62326400D01*
X155448627Y-62385073D01*
X155448626Y-62385073D01*
X156080591Y-63017037D01*
X156017007Y-63034075D01*
X155902993Y-63099901D01*
X155809901Y-63192993D01*
X155744075Y-63307007D01*
X155727037Y-63370590D01*
X155095073Y-62738626D01*
X155095073Y-62738627D01*
X155041575Y-62815031D01*
X154986999Y-62858656D01*
X154917500Y-62865850D01*
X154855145Y-62834327D01*
X154838425Y-62815032D01*
X154784925Y-62738626D01*
X154152962Y-63370590D01*
X154135925Y-63307007D01*
X154070099Y-63192993D01*
X153977007Y-63099901D01*
X153862993Y-63034075D01*
X153799409Y-63017037D01*
X154431372Y-62385073D01*
X154347576Y-62326398D01*
X154133492Y-62226570D01*
X154133483Y-62226566D01*
X153905326Y-62165432D01*
X153905315Y-62165430D01*
X153670002Y-62144843D01*
X153669998Y-62144843D01*
X153434684Y-62165430D01*
X153434673Y-62165432D01*
X153206516Y-62226566D01*
X153206507Y-62226570D01*
X152992423Y-62326399D01*
X152992421Y-62326400D01*
X152908627Y-62385073D01*
X152908626Y-62385073D01*
X153540591Y-63017037D01*
X153477007Y-63034075D01*
X153362993Y-63099901D01*
X153269901Y-63192993D01*
X153204075Y-63307007D01*
X153187037Y-63370590D01*
X152555073Y-62738626D01*
X152555073Y-62738627D01*
X152501575Y-62815031D01*
X152446999Y-62858656D01*
X152377500Y-62865850D01*
X152315145Y-62834327D01*
X152298425Y-62815032D01*
X152244925Y-62738626D01*
X151612962Y-63370590D01*
X151595925Y-63307007D01*
X151530099Y-63192993D01*
X151437007Y-63099901D01*
X151322993Y-63034075D01*
X151259409Y-63017037D01*
X151891372Y-62385073D01*
X151807576Y-62326398D01*
X151593492Y-62226570D01*
X151593483Y-62226566D01*
X151365326Y-62165432D01*
X151365315Y-62165430D01*
X151130002Y-62144843D01*
X151129998Y-62144843D01*
X150894684Y-62165430D01*
X150894673Y-62165432D01*
X150666516Y-62226566D01*
X150666507Y-62226570D01*
X150452423Y-62326399D01*
X150452421Y-62326400D01*
X150368627Y-62385073D01*
X150368626Y-62385073D01*
X151000591Y-63017037D01*
X150937007Y-63034075D01*
X150822993Y-63099901D01*
X150729901Y-63192993D01*
X150664075Y-63307007D01*
X150647037Y-63370590D01*
X150015073Y-62738626D01*
X150015073Y-62738627D01*
X149961575Y-62815031D01*
X149906999Y-62858656D01*
X149837500Y-62865850D01*
X149775145Y-62834327D01*
X149758425Y-62815032D01*
X149704925Y-62738626D01*
X149072962Y-63370590D01*
X149055925Y-63307007D01*
X148990099Y-63192993D01*
X148897007Y-63099901D01*
X148782993Y-63034075D01*
X148719409Y-63017037D01*
X149351372Y-62385073D01*
X149267576Y-62326398D01*
X149053492Y-62226570D01*
X149053483Y-62226566D01*
X148825326Y-62165432D01*
X148825315Y-62165430D01*
X148590002Y-62144843D01*
X148589998Y-62144843D01*
X148354684Y-62165430D01*
X148354673Y-62165432D01*
X148126516Y-62226566D01*
X148126507Y-62226570D01*
X147912423Y-62326399D01*
X147912421Y-62326400D01*
X147828627Y-62385073D01*
X147828626Y-62385073D01*
X148460591Y-63017037D01*
X148397007Y-63034075D01*
X148282993Y-63099901D01*
X148189901Y-63192993D01*
X148124075Y-63307007D01*
X148107037Y-63370590D01*
X147475073Y-62738626D01*
X147475073Y-62738627D01*
X147421575Y-62815031D01*
X147366999Y-62858656D01*
X147297500Y-62865850D01*
X147235145Y-62834327D01*
X147218425Y-62815032D01*
X147164925Y-62738626D01*
X146532962Y-63370590D01*
X146515925Y-63307007D01*
X146450099Y-63192993D01*
X146357007Y-63099901D01*
X146242993Y-63034075D01*
X146179409Y-63017037D01*
X146811372Y-62385073D01*
X146727576Y-62326398D01*
X146513492Y-62226570D01*
X146513483Y-62226566D01*
X146285326Y-62165432D01*
X146285315Y-62165430D01*
X146050002Y-62144843D01*
X146049998Y-62144843D01*
X145814684Y-62165430D01*
X145814673Y-62165432D01*
X145586516Y-62226566D01*
X145586507Y-62226570D01*
X145372423Y-62326399D01*
X145372421Y-62326400D01*
X145288627Y-62385073D01*
X145288626Y-62385073D01*
X145920591Y-63017037D01*
X145857007Y-63034075D01*
X145742993Y-63099901D01*
X145649901Y-63192993D01*
X145584075Y-63307007D01*
X145567037Y-63370590D01*
X144935073Y-62738626D01*
X144935073Y-62738627D01*
X144881575Y-62815031D01*
X144826999Y-62858656D01*
X144757500Y-62865850D01*
X144695145Y-62834327D01*
X144678425Y-62815032D01*
X144624925Y-62738626D01*
X143992962Y-63370590D01*
X143975925Y-63307007D01*
X143910099Y-63192993D01*
X143817007Y-63099901D01*
X143702993Y-63034075D01*
X143639409Y-63017037D01*
X144271372Y-62385073D01*
X144187576Y-62326398D01*
X143973492Y-62226570D01*
X143973483Y-62226566D01*
X143745326Y-62165432D01*
X143745315Y-62165430D01*
X143510002Y-62144843D01*
X143509998Y-62144843D01*
X143274684Y-62165430D01*
X143274673Y-62165432D01*
X143046516Y-62226566D01*
X143046507Y-62226570D01*
X142832423Y-62326399D01*
X142832421Y-62326400D01*
X142748627Y-62385073D01*
X142748626Y-62385073D01*
X143380591Y-63017037D01*
X143317007Y-63034075D01*
X143202993Y-63099901D01*
X143109901Y-63192993D01*
X143044075Y-63307007D01*
X143027037Y-63370590D01*
X142395073Y-62738626D01*
X142395073Y-62738627D01*
X142336400Y-62822421D01*
X142336399Y-62822423D01*
X142236570Y-63036507D01*
X142236566Y-63036516D01*
X142175432Y-63264673D01*
X142175430Y-63264684D01*
X142154843Y-63499998D01*
X142154843Y-63500000D01*
X142175430Y-63735315D01*
X142175432Y-63735326D01*
X142236566Y-63963483D01*
X142236570Y-63963492D01*
X142336398Y-64177576D01*
X142395073Y-64261372D01*
X143027037Y-63629408D01*
X143044075Y-63692993D01*
X143109901Y-63807007D01*
X143202993Y-63900099D01*
X143317007Y-63965925D01*
X143380591Y-63982962D01*
X142748627Y-64614925D01*
X142824595Y-64668119D01*
X142868219Y-64722696D01*
X142875412Y-64792195D01*
X142843890Y-64854549D01*
X142824595Y-64871269D01*
X142638594Y-65001508D01*
X142471505Y-65168597D01*
X142335965Y-65362169D01*
X142335964Y-65362171D01*
X142236098Y-65576335D01*
X142236094Y-65576344D01*
X142174938Y-65804586D01*
X142174936Y-65804596D01*
X142154341Y-66039999D01*
X137460500Y-66039999D01*
X137460500Y-57785000D01*
X140064540Y-57785000D01*
X140084326Y-57973256D01*
X140084327Y-57973259D01*
X140142818Y-58153277D01*
X140142821Y-58153284D01*
X140237467Y-58317216D01*
X140364129Y-58457888D01*
X140517265Y-58569148D01*
X140517270Y-58569151D01*
X140690192Y-58646142D01*
X140690197Y-58646144D01*
X140875354Y-58685500D01*
X140875355Y-58685500D01*
X141064644Y-58685500D01*
X141064646Y-58685500D01*
X141249803Y-58646144D01*
X141307281Y-58620552D01*
X141361931Y-58596221D01*
X141412367Y-58585500D01*
X141416633Y-58585500D01*
X141467069Y-58596221D01*
X141579192Y-58646142D01*
X141579197Y-58646144D01*
X141764354Y-58685500D01*
X141764355Y-58685500D01*
X141953644Y-58685500D01*
X141953646Y-58685500D01*
X142138803Y-58646144D01*
X142196281Y-58620552D01*
X142250931Y-58596221D01*
X142301367Y-58585500D01*
X142305633Y-58585500D01*
X142356069Y-58596221D01*
X142468192Y-58646142D01*
X142468197Y-58646144D01*
X142653354Y-58685500D01*
X142653355Y-58685500D01*
X142842644Y-58685500D01*
X142842646Y-58685500D01*
X143027803Y-58646144D01*
X143085281Y-58620552D01*
X143139931Y-58596221D01*
X143190367Y-58585500D01*
X175819649Y-58585500D01*
X175886688Y-58605185D01*
X175932443Y-58657989D01*
X175942939Y-58696248D01*
X175947908Y-58742483D01*
X175998202Y-58877328D01*
X175998206Y-58877335D01*
X176084452Y-58992544D01*
X176084455Y-58992547D01*
X176199664Y-59078793D01*
X176199671Y-59078797D01*
X176334517Y-59129091D01*
X176334516Y-59129091D01*
X176341444Y-59129835D01*
X176394127Y-59135500D01*
X178189872Y-59135499D01*
X178249483Y-59129091D01*
X178384331Y-59078796D01*
X178499546Y-58992546D01*
X178585796Y-58877331D01*
X178635002Y-58745401D01*
X178676872Y-58689468D01*
X178742337Y-58665050D01*
X178810610Y-58679901D01*
X178838865Y-58701053D01*
X178960917Y-58823105D01*
X179154421Y-58958600D01*
X179368507Y-59058429D01*
X179368516Y-59058433D01*
X179582000Y-59115634D01*
X179582000Y-58218012D01*
X179639007Y-58250925D01*
X179766174Y-58285000D01*
X179897826Y-58285000D01*
X180024993Y-58250925D01*
X180082000Y-58218012D01*
X180082000Y-59115633D01*
X180295483Y-59058433D01*
X180295492Y-59058429D01*
X180509578Y-58958600D01*
X180703082Y-58823105D01*
X180870105Y-58656082D01*
X181005600Y-58462578D01*
X181105429Y-58248492D01*
X181105432Y-58248486D01*
X181162636Y-58035000D01*
X180265012Y-58035000D01*
X180297925Y-57977993D01*
X180332000Y-57850826D01*
X180332000Y-57719174D01*
X180297925Y-57592007D01*
X180265012Y-57535000D01*
X181162636Y-57535000D01*
X181162635Y-57534999D01*
X181105432Y-57321513D01*
X181105429Y-57321507D01*
X181005600Y-57107422D01*
X181005599Y-57107420D01*
X180870113Y-56913926D01*
X180870108Y-56913920D01*
X180703082Y-56746894D01*
X180509578Y-56611399D01*
X180295492Y-56511570D01*
X180295486Y-56511567D01*
X180082000Y-56454364D01*
X180082000Y-57351988D01*
X180024993Y-57319075D01*
X179897826Y-57285000D01*
X179766174Y-57285000D01*
X179639007Y-57319075D01*
X179582000Y-57351988D01*
X179582000Y-56454364D01*
X179581999Y-56454364D01*
X179368513Y-56511567D01*
X179368507Y-56511570D01*
X179154422Y-56611399D01*
X179154420Y-56611400D01*
X178960926Y-56746886D01*
X178838865Y-56868947D01*
X178777542Y-56902431D01*
X178707850Y-56897447D01*
X178651917Y-56855575D01*
X178635002Y-56824598D01*
X178585797Y-56692671D01*
X178585793Y-56692664D01*
X178499547Y-56577455D01*
X178499544Y-56577452D01*
X178384335Y-56491206D01*
X178384328Y-56491202D01*
X178249482Y-56440908D01*
X178249483Y-56440908D01*
X178189883Y-56434501D01*
X178189881Y-56434500D01*
X178189873Y-56434500D01*
X178189864Y-56434500D01*
X176394129Y-56434500D01*
X176394123Y-56434501D01*
X176334516Y-56440908D01*
X176199671Y-56491202D01*
X176199664Y-56491206D01*
X176084455Y-56577452D01*
X176084452Y-56577455D01*
X175998206Y-56692664D01*
X175998202Y-56692671D01*
X175947910Y-56827513D01*
X175947909Y-56827517D01*
X175942937Y-56873757D01*
X175916201Y-56938306D01*
X175858809Y-56978154D01*
X175819649Y-56984500D01*
X143190367Y-56984500D01*
X143139931Y-56973779D01*
X143027807Y-56923857D01*
X143027802Y-56923855D01*
X142882001Y-56892865D01*
X142842646Y-56884500D01*
X142653354Y-56884500D01*
X142620897Y-56891398D01*
X142468197Y-56923855D01*
X142468192Y-56923857D01*
X142356069Y-56973779D01*
X142305633Y-56984500D01*
X142301367Y-56984500D01*
X142250931Y-56973779D01*
X142138807Y-56923857D01*
X142138802Y-56923855D01*
X141993001Y-56892865D01*
X141953646Y-56884500D01*
X141764354Y-56884500D01*
X141731897Y-56891398D01*
X141579197Y-56923855D01*
X141579192Y-56923857D01*
X141467069Y-56973779D01*
X141416633Y-56984500D01*
X141412367Y-56984500D01*
X141361931Y-56973779D01*
X141249807Y-56923857D01*
X141249802Y-56923855D01*
X141104001Y-56892865D01*
X141064646Y-56884500D01*
X140875354Y-56884500D01*
X140842897Y-56891398D01*
X140690197Y-56923855D01*
X140690192Y-56923857D01*
X140517270Y-57000848D01*
X140517265Y-57000851D01*
X140364129Y-57112111D01*
X140237466Y-57252785D01*
X140142821Y-57416715D01*
X140142818Y-57416722D01*
X140085865Y-57592007D01*
X140084326Y-57596744D01*
X140064540Y-57785000D01*
X137460500Y-57785000D01*
X137460500Y-55127844D01*
X138861666Y-55127844D01*
X138868067Y-55187372D01*
X138868069Y-55187379D01*
X138918311Y-55322086D01*
X138918315Y-55322093D01*
X139004475Y-55437187D01*
X139004478Y-55437190D01*
X139119572Y-55523350D01*
X139119579Y-55523354D01*
X139254286Y-55573596D01*
X139254293Y-55573598D01*
X139313821Y-55579999D01*
X139313838Y-55580000D01*
X140035000Y-55580000D01*
X140535000Y-55580000D01*
X141256162Y-55580000D01*
X141256178Y-55579999D01*
X141315706Y-55573598D01*
X141315713Y-55573596D01*
X141450420Y-55523354D01*
X141450427Y-55523350D01*
X141565519Y-55437191D01*
X141570732Y-55430229D01*
X141626665Y-55388358D01*
X141696357Y-55383373D01*
X141757681Y-55416857D01*
X141769268Y-55430229D01*
X141774480Y-55437191D01*
X141889572Y-55523350D01*
X141889579Y-55523354D01*
X142024286Y-55573596D01*
X142024293Y-55573598D01*
X142083821Y-55579999D01*
X142083838Y-55580000D01*
X142805000Y-55580000D01*
X143305000Y-55580000D01*
X144026162Y-55580000D01*
X144026178Y-55579999D01*
X144085706Y-55573598D01*
X144085713Y-55573596D01*
X144220420Y-55523354D01*
X144220427Y-55523350D01*
X144335519Y-55437191D01*
X144340732Y-55430229D01*
X144396665Y-55388358D01*
X144466357Y-55383373D01*
X144527681Y-55416857D01*
X144539268Y-55430229D01*
X144544480Y-55437191D01*
X144659572Y-55523350D01*
X144659579Y-55523354D01*
X144794286Y-55573596D01*
X144794293Y-55573598D01*
X144853821Y-55579999D01*
X144853838Y-55580000D01*
X145575000Y-55580000D01*
X146075000Y-55580000D01*
X146796162Y-55580000D01*
X146796178Y-55579999D01*
X146855706Y-55573598D01*
X146855713Y-55573596D01*
X146990420Y-55523354D01*
X146990427Y-55523350D01*
X147105519Y-55437191D01*
X147110732Y-55430229D01*
X147166665Y-55388358D01*
X147236357Y-55383373D01*
X147297681Y-55416857D01*
X147309268Y-55430229D01*
X147314480Y-55437191D01*
X147429572Y-55523350D01*
X147429579Y-55523354D01*
X147564286Y-55573596D01*
X147564293Y-55573598D01*
X147623821Y-55579999D01*
X147623838Y-55580000D01*
X148345000Y-55580000D01*
X148845000Y-55580000D01*
X149566162Y-55580000D01*
X149566178Y-55579999D01*
X149625706Y-55573598D01*
X149625713Y-55573596D01*
X149760420Y-55523354D01*
X149760427Y-55523350D01*
X149875519Y-55437191D01*
X149880732Y-55430229D01*
X149936665Y-55388358D01*
X150006357Y-55383373D01*
X150067681Y-55416857D01*
X150079268Y-55430229D01*
X150084480Y-55437191D01*
X150199572Y-55523350D01*
X150199579Y-55523354D01*
X150334286Y-55573596D01*
X150334293Y-55573598D01*
X150393821Y-55579999D01*
X150393838Y-55580000D01*
X151115000Y-55580000D01*
X151615000Y-55580000D01*
X152336162Y-55580000D01*
X152336178Y-55579999D01*
X152395706Y-55573598D01*
X152395713Y-55573596D01*
X152530420Y-55523354D01*
X152530427Y-55523350D01*
X152645519Y-55437191D01*
X152650732Y-55430229D01*
X152706665Y-55388358D01*
X152776357Y-55383373D01*
X152837681Y-55416857D01*
X152849268Y-55430229D01*
X152854480Y-55437191D01*
X152969572Y-55523350D01*
X152969579Y-55523354D01*
X153104286Y-55573596D01*
X153104293Y-55573598D01*
X153163821Y-55579999D01*
X153163838Y-55580000D01*
X153885000Y-55580000D01*
X154385000Y-55580000D01*
X155106162Y-55580000D01*
X155106178Y-55579999D01*
X155165706Y-55573598D01*
X155165713Y-55573596D01*
X155300420Y-55523354D01*
X155300427Y-55523350D01*
X155415519Y-55437191D01*
X155420732Y-55430229D01*
X155476665Y-55388358D01*
X155546357Y-55383373D01*
X155607681Y-55416857D01*
X155619268Y-55430229D01*
X155624480Y-55437191D01*
X155739572Y-55523350D01*
X155739579Y-55523354D01*
X155874286Y-55573596D01*
X155874293Y-55573598D01*
X155933821Y-55579999D01*
X155933838Y-55580000D01*
X156655000Y-55580000D01*
X157155000Y-55580000D01*
X157876162Y-55580000D01*
X157876178Y-55579999D01*
X157935706Y-55573598D01*
X157935713Y-55573596D01*
X158070420Y-55523354D01*
X158070427Y-55523350D01*
X158185519Y-55437191D01*
X158190732Y-55430229D01*
X158246665Y-55388358D01*
X158316357Y-55383373D01*
X158377681Y-55416857D01*
X158389268Y-55430229D01*
X158394480Y-55437191D01*
X158509572Y-55523350D01*
X158509579Y-55523354D01*
X158644286Y-55573596D01*
X158644293Y-55573598D01*
X158703821Y-55579999D01*
X158703838Y-55580000D01*
X159425000Y-55580000D01*
X159925000Y-55580000D01*
X160646162Y-55580000D01*
X160646178Y-55579999D01*
X160705706Y-55573598D01*
X160705713Y-55573596D01*
X160840420Y-55523354D01*
X160840427Y-55523350D01*
X160955519Y-55437191D01*
X160960732Y-55430229D01*
X161016665Y-55388358D01*
X161086357Y-55383373D01*
X161147681Y-55416857D01*
X161159268Y-55430229D01*
X161164480Y-55437191D01*
X161279572Y-55523350D01*
X161279579Y-55523354D01*
X161414286Y-55573596D01*
X161414293Y-55573598D01*
X161473821Y-55579999D01*
X161473838Y-55580000D01*
X162195000Y-55580000D01*
X162695000Y-55580000D01*
X163416162Y-55580000D01*
X163416178Y-55579999D01*
X163475706Y-55573598D01*
X163475713Y-55573596D01*
X163610420Y-55523354D01*
X163610427Y-55523350D01*
X163725519Y-55437191D01*
X163730732Y-55430229D01*
X163786665Y-55388358D01*
X163856357Y-55383373D01*
X163917681Y-55416857D01*
X163929268Y-55430229D01*
X163934480Y-55437191D01*
X164049572Y-55523350D01*
X164049579Y-55523354D01*
X164184286Y-55573596D01*
X164184293Y-55573598D01*
X164243821Y-55579999D01*
X164243838Y-55580000D01*
X164965000Y-55580000D01*
X165465000Y-55580000D01*
X166186162Y-55580000D01*
X166186178Y-55579999D01*
X166245706Y-55573598D01*
X166245713Y-55573596D01*
X166380420Y-55523354D01*
X166380427Y-55523350D01*
X166495519Y-55437191D01*
X166500732Y-55430229D01*
X166556665Y-55388358D01*
X166626357Y-55383373D01*
X166687681Y-55416857D01*
X166699268Y-55430229D01*
X166704480Y-55437191D01*
X166819572Y-55523350D01*
X166819579Y-55523354D01*
X166954286Y-55573596D01*
X166954293Y-55573598D01*
X167013821Y-55579999D01*
X167013838Y-55580000D01*
X167735000Y-55580000D01*
X168235000Y-55580000D01*
X168956162Y-55580000D01*
X168956178Y-55579999D01*
X169015706Y-55573598D01*
X169015713Y-55573596D01*
X169150420Y-55523354D01*
X169150427Y-55523350D01*
X169265519Y-55437191D01*
X169270732Y-55430229D01*
X169326665Y-55388358D01*
X169396357Y-55383373D01*
X169457681Y-55416857D01*
X169469268Y-55430229D01*
X169474480Y-55437191D01*
X169589572Y-55523350D01*
X169589579Y-55523354D01*
X169724286Y-55573596D01*
X169724293Y-55573598D01*
X169783821Y-55579999D01*
X169783838Y-55580000D01*
X170505000Y-55580000D01*
X171005000Y-55580000D01*
X171726162Y-55580000D01*
X171726178Y-55579999D01*
X171785706Y-55573598D01*
X171785713Y-55573596D01*
X171920420Y-55523354D01*
X171920427Y-55523350D01*
X172035519Y-55437191D01*
X172040732Y-55430229D01*
X172096665Y-55388358D01*
X172166357Y-55383373D01*
X172227681Y-55416857D01*
X172239268Y-55430229D01*
X172244480Y-55437191D01*
X172359572Y-55523350D01*
X172359579Y-55523354D01*
X172494286Y-55573596D01*
X172494293Y-55573598D01*
X172553821Y-55579999D01*
X172553838Y-55580000D01*
X173275000Y-55580000D01*
X173775000Y-55580000D01*
X174496162Y-55580000D01*
X174496178Y-55579999D01*
X174555706Y-55573598D01*
X174555713Y-55573596D01*
X174690420Y-55523354D01*
X174690427Y-55523350D01*
X174805519Y-55437191D01*
X174810732Y-55430229D01*
X174866665Y-55388358D01*
X174936357Y-55383373D01*
X174997681Y-55416857D01*
X175009268Y-55430229D01*
X175014480Y-55437191D01*
X175129572Y-55523350D01*
X175129579Y-55523354D01*
X175264286Y-55573596D01*
X175264293Y-55573598D01*
X175323821Y-55579999D01*
X175323838Y-55580000D01*
X176045000Y-55580000D01*
X176545000Y-55580000D01*
X177266162Y-55580000D01*
X177266178Y-55579999D01*
X177325706Y-55573598D01*
X177325713Y-55573596D01*
X177460420Y-55523354D01*
X177460427Y-55523350D01*
X177575519Y-55437191D01*
X177580732Y-55430229D01*
X177636665Y-55388358D01*
X177706357Y-55383373D01*
X177767681Y-55416857D01*
X177779268Y-55430229D01*
X177784480Y-55437191D01*
X177899572Y-55523350D01*
X177899579Y-55523354D01*
X178034286Y-55573596D01*
X178034293Y-55573598D01*
X178093821Y-55579999D01*
X178093838Y-55580000D01*
X178815000Y-55580000D01*
X179315000Y-55580000D01*
X180036162Y-55580000D01*
X180036178Y-55579999D01*
X180095706Y-55573598D01*
X180095713Y-55573596D01*
X180230420Y-55523354D01*
X180230427Y-55523350D01*
X180345519Y-55437191D01*
X180350732Y-55430229D01*
X180406665Y-55388358D01*
X180476357Y-55383373D01*
X180537681Y-55416857D01*
X180549268Y-55430229D01*
X180554480Y-55437191D01*
X180669572Y-55523350D01*
X180669579Y-55523354D01*
X180804286Y-55573596D01*
X180804293Y-55573598D01*
X180863821Y-55579999D01*
X180863838Y-55580000D01*
X181585000Y-55580000D01*
X182085000Y-55580000D01*
X182806162Y-55580000D01*
X182806178Y-55579999D01*
X182865706Y-55573598D01*
X182865713Y-55573596D01*
X183000420Y-55523354D01*
X183000427Y-55523350D01*
X183115519Y-55437191D01*
X183120732Y-55430229D01*
X183176665Y-55388358D01*
X183246357Y-55383373D01*
X183307681Y-55416857D01*
X183319268Y-55430229D01*
X183324480Y-55437191D01*
X183439572Y-55523350D01*
X183439579Y-55523354D01*
X183574286Y-55573596D01*
X183574293Y-55573598D01*
X183633821Y-55579999D01*
X183633838Y-55580000D01*
X184355000Y-55580000D01*
X184855000Y-55580000D01*
X185576162Y-55580000D01*
X185576178Y-55579999D01*
X185635706Y-55573598D01*
X185635713Y-55573596D01*
X185770420Y-55523354D01*
X185770427Y-55523350D01*
X185885519Y-55437191D01*
X185890732Y-55430229D01*
X185946665Y-55388358D01*
X186016357Y-55383373D01*
X186077681Y-55416857D01*
X186089268Y-55430229D01*
X186094480Y-55437191D01*
X186209572Y-55523350D01*
X186209579Y-55523354D01*
X186344286Y-55573596D01*
X186344293Y-55573598D01*
X186403821Y-55579999D01*
X186403838Y-55580000D01*
X187125000Y-55580000D01*
X187625000Y-55580000D01*
X188346162Y-55580000D01*
X188346178Y-55579999D01*
X188405706Y-55573598D01*
X188405713Y-55573596D01*
X188540420Y-55523354D01*
X188540427Y-55523350D01*
X188655521Y-55437190D01*
X188655524Y-55437187D01*
X188741684Y-55322093D01*
X188741688Y-55322086D01*
X188791930Y-55187379D01*
X188791932Y-55187372D01*
X188798333Y-55127844D01*
X188798334Y-55127827D01*
X188798334Y-53590000D01*
X187625000Y-53590000D01*
X187625000Y-55580000D01*
X187125000Y-55580000D01*
X187125000Y-53590000D01*
X184855000Y-53590000D01*
X184855000Y-55580000D01*
X184355000Y-55580000D01*
X184355000Y-53590000D01*
X182085000Y-53590000D01*
X182085000Y-55580000D01*
X181585000Y-55580000D01*
X181585000Y-53590000D01*
X179315000Y-53590000D01*
X179315000Y-55580000D01*
X178815000Y-55580000D01*
X178815000Y-53590000D01*
X176545000Y-53590000D01*
X176545000Y-55580000D01*
X176045000Y-55580000D01*
X176045000Y-53590000D01*
X173775000Y-53590000D01*
X173775000Y-55580000D01*
X173275000Y-55580000D01*
X173275000Y-53590000D01*
X171005000Y-53590000D01*
X171005000Y-55580000D01*
X170505000Y-55580000D01*
X170505000Y-53590000D01*
X168235000Y-53590000D01*
X168235000Y-55580000D01*
X167735000Y-55580000D01*
X167735000Y-53590000D01*
X165465000Y-53590000D01*
X165465000Y-55580000D01*
X164965000Y-55580000D01*
X164965000Y-53590000D01*
X162695000Y-53590000D01*
X162695000Y-55580000D01*
X162195000Y-55580000D01*
X162195000Y-53590000D01*
X159925000Y-53590000D01*
X159925000Y-55580000D01*
X159425000Y-55580000D01*
X159425000Y-53590000D01*
X157155000Y-53590000D01*
X157155000Y-55580000D01*
X156655000Y-55580000D01*
X156655000Y-53590000D01*
X154385000Y-53590000D01*
X154385000Y-55580000D01*
X153885000Y-55580000D01*
X153885000Y-53590000D01*
X151615000Y-53590000D01*
X151615000Y-55580000D01*
X151115000Y-55580000D01*
X151115000Y-53590000D01*
X148845000Y-53590000D01*
X148845000Y-55580000D01*
X148345000Y-55580000D01*
X148345000Y-53590000D01*
X146075000Y-53590000D01*
X146075000Y-55580000D01*
X145575000Y-55580000D01*
X145575000Y-53590000D01*
X143305000Y-53590000D01*
X143305000Y-55580000D01*
X142805000Y-55580000D01*
X142805000Y-53590000D01*
X140535000Y-53590000D01*
X140535000Y-55580000D01*
X140035000Y-55580000D01*
X140035000Y-53590000D01*
X138861666Y-53590000D01*
X138861666Y-55127844D01*
X137460500Y-55127844D01*
X137460500Y-51707100D01*
X137480185Y-51640061D01*
X137532989Y-51594306D01*
X137584500Y-51583100D01*
X138737666Y-51583100D01*
X138804705Y-51602785D01*
G37*
%TD.AperFunction*%
%TD*%
M02*
