%TF.GenerationSoftware,KiCad,Pcbnew,8.0.7*%
%TF.CreationDate,2025-01-12T23:09:13-06:00*%
%TF.ProjectId,DB37-to-IDC34-Floppy-Adapter,44423337-2d74-46f2-9d49-444333342d46,v1.0*%
%TF.SameCoordinates,Original*%
%TF.FileFunction,Soldermask,Top*%
%TF.FilePolarity,Negative*%
%FSLAX46Y46*%
G04 Gerber Fmt 4.6, Leading zero omitted, Abs format (unit mm)*
G04 Created by KiCad (PCBNEW 8.0.7) date 2025-01-12 23:09:13*
%MOMM*%
%LPD*%
G01*
G04 APERTURE LIST*
G04 Aperture macros list*
%AMRoundRect*
0 Rectangle with rounded corners*
0 $1 Rounding radius*
0 $2 $3 $4 $5 $6 $7 $8 $9 X,Y pos of 4 corners*
0 Add a 4 corners polygon primitive as box body*
4,1,4,$2,$3,$4,$5,$6,$7,$8,$9,$2,$3,0*
0 Add four circle primitives for the rounded corners*
1,1,$1+$1,$2,$3*
1,1,$1+$1,$4,$5*
1,1,$1+$1,$6,$7*
1,1,$1+$1,$8,$9*
0 Add four rect primitives between the rounded corners*
20,1,$1+$1,$2,$3,$4,$5,0*
20,1,$1+$1,$4,$5,$6,$7,0*
20,1,$1+$1,$6,$7,$8,$9,0*
20,1,$1+$1,$8,$9,$2,$3,0*%
%AMFreePoly0*
4,1,19,0.500000,-0.750000,0.000000,-0.750000,0.000000,-0.744911,-0.071157,-0.744911,-0.207708,-0.704816,-0.327430,-0.627875,-0.420627,-0.520320,-0.479746,-0.390866,-0.500000,-0.250000,-0.500000,0.250000,-0.479746,0.390866,-0.420627,0.520320,-0.327430,0.627875,-0.207708,0.704816,-0.071157,0.744911,0.000000,0.744911,0.000000,0.750000,0.500000,0.750000,0.500000,-0.750000,0.500000,-0.750000,
$1*%
%AMFreePoly1*
4,1,19,0.000000,0.744911,0.071157,0.744911,0.207708,0.704816,0.327430,0.627875,0.420627,0.520320,0.479746,0.390866,0.500000,0.250000,0.500000,-0.250000,0.479746,-0.390866,0.420627,-0.520320,0.327430,-0.627875,0.207708,-0.704816,0.071157,-0.744911,0.000000,-0.744911,0.000000,-0.750000,-0.500000,-0.750000,-0.500000,0.750000,0.000000,0.750000,0.000000,0.744911,0.000000,0.744911,
$1*%
G04 Aperture macros list end*
%ADD10FreePoly0,270.000000*%
%ADD11FreePoly1,270.000000*%
%ADD12RoundRect,0.250000X-0.600000X0.600000X-0.600000X-0.600000X0.600000X-0.600000X0.600000X0.600000X0*%
%ADD13C,1.700000*%
%ADD14R,1.700000X1.700000*%
%ADD15O,1.700000X1.700000*%
%ADD16R,1.846667X3.480000*%
G04 APERTURE END LIST*
D10*
%TO.C,JP1*%
X139192000Y-57120000D03*
D11*
X139192000Y-58420000D03*
%TD*%
D12*
%TO.C,J1*%
X184150000Y-63500000D03*
D13*
X184150000Y-66040000D03*
X181610000Y-63500000D03*
X181610000Y-66040000D03*
X179070000Y-63500000D03*
X179070000Y-66040000D03*
X176530000Y-63500000D03*
X176530000Y-66040000D03*
X173990000Y-63500000D03*
X173990000Y-66040000D03*
X171450000Y-63500000D03*
X171450000Y-66040000D03*
X168910000Y-63500000D03*
X168910000Y-66040000D03*
X166370000Y-63500000D03*
X166370000Y-66040000D03*
X163830000Y-63500000D03*
X163830000Y-66040000D03*
X161290000Y-63500000D03*
X161290000Y-66040000D03*
X158750000Y-63500000D03*
X158750000Y-66040000D03*
X156210000Y-63500000D03*
X156210000Y-66040000D03*
X153670000Y-63500000D03*
X153670000Y-66040000D03*
X151130000Y-63500000D03*
X151130000Y-66040000D03*
X148590000Y-63500000D03*
X148590000Y-66040000D03*
X146050000Y-63500000D03*
X146050000Y-66040000D03*
X143510000Y-63500000D03*
X143510000Y-66040000D03*
%TD*%
D14*
%TO.C,J3*%
X177292000Y-57785000D03*
D15*
X179832000Y-57785000D03*
%TD*%
D16*
%TO.C,J2*%
X188760000Y-53340000D03*
X185990000Y-53340000D03*
X183220000Y-53340000D03*
X180450000Y-53340000D03*
X177680000Y-53340000D03*
X174910000Y-53340000D03*
X172140000Y-53340000D03*
X169370000Y-53340000D03*
X166600000Y-53340000D03*
X163830000Y-53340000D03*
X161060000Y-53340000D03*
X158290000Y-53340000D03*
X155520000Y-53340000D03*
X152750000Y-53340000D03*
X149980000Y-53340000D03*
X147210000Y-53340000D03*
X144440000Y-53340000D03*
X141670000Y-53340000D03*
X138900000Y-53340000D03*
%TD*%
M02*
